<svg width="314" height="245" viewBox="0 0 314 245" fill="none" xmlns="http://www.w3.org/2000/svg">
<path d="M143.676 64.7132C145.9 61.9719 144.123 64.3662 144.123 64.3835C143.988 67.6384 140.574 71.0632 139.644 75.123C136.888 87.1914 126.961 91.8377 122.929 100.107C118.991 108.195 123.141 116.485 123.318 116.835C118.113 114.67 112.505 118.775 109.559 120.392C106.613 122.009 98.4555 121.891 98.4555 121.891C98.4555 121.891 72.195 121.131 63.874 115.298C55.5531 109.465 52.7702 114.201 52.7702 114.201C52.0763 105.18 56.9932 88.8501 56.9932 88.8501C64.28 62.4612 75.8419 57.7837 75.8419 57.7837L63.8879 54.7961C60.071 38.2757 66.1052 31.0756 71.4663 27.9665C72.0419 27.6324 72.7033 27.4752 73.3678 27.5155C81.366 28.029 101.561 30.0069 113.8 37.2313C114.605 43.1302 118.657 46.9679 120.802 48.4461C123.05 50.018 129.216 49.5773 130.063 46.2496C130.125 45.9953 130.203 45.7448 130.296 45.5001C133.349 48.3663 142.427 55.9481 143.676 64.7132Z" fill="#2E2E2E"/>
<path d="M31.6141 242.592C30.2609 242.322 28.9284 241.999 27.6306 241.617C22.3043 240.063 16.1069 237.401 13.9868 231.811C13.4552 230.367 13.2876 228.814 13.4988 227.289C13.71 225.765 14.2935 224.316 15.1978 223.071C16.1568 221.743 17.5036 220.745 19.053 220.215C22.4223 219.125 26.1525 220.822 28.6543 223.338C31.1561 225.853 32.7766 229.081 34.7197 232.033C32.9501 228.064 31.1526 223.987 30.9028 219.649C30.712 216.27 31.635 212.602 33.9633 210.062C36.1077 207.727 41.1252 205.898 44.0816 207.612C46.0283 208.747 46.8055 211.155 47.1421 213.386C48.0582 219.483 46.8819 225.68 45.7056 231.735C46.4967 228.498 47.3434 225.232 48.9465 222.311C50.5496 219.389 53.0132 216.811 56.164 215.718C58.3708 214.961 60.9941 215.045 62.8436 216.467C64.5786 217.8 65.3385 220.045 65.5744 222.21C65.9735 225.836 65.1164 229.518 63.6486 232.859C58.1696 245.341 42.9643 244.869 31.6141 242.592Z" stroke="#CCDDE2" stroke-width="1.21795" stroke-miterlimit="10"/>
<path d="M43.981 236.423C43.981 236.423 52.4337 238.768 55.4318 227.022" stroke="#CCDDE2" stroke-width="1.21795" stroke-miterlimit="10"/>
<path d="M40.2223 216.37C37.8731 221.696 40.2223 237.675 40.2223 237.675" stroke="#CCDDE2" stroke-width="1.21795" stroke-miterlimit="10"/>
<path d="M32.3912 236.058C32.0442 235.999 28.6472 235.524 25.7567 234.198C23.5186 233.157 21.5928 231.631 21.5928 229.372" stroke="#CCDDE2" stroke-width="1.21795" stroke-miterlimit="10"/>
<path d="M26.4369 229.372C26.4369 229.372 23.1335 233.227 25.7429 234.198" stroke="#CCDDE2" stroke-width="1.21795" stroke-miterlimit="10"/>
<path d="M24.2437 237.703C24.7121 237.051 27.1584 238.359 28.7546 235.274" stroke="#CCDDE2" stroke-width="1.21795" stroke-miterlimit="10"/>
<path d="M39.178 223.421C38.3417 222.793 36.1487 223.421 35.8364 218.407" stroke="#CCDDE2" stroke-width="1.21795" stroke-miterlimit="10"/>
<path d="M39.5425 228.13C39.5425 228.13 43.1859 226.801 43.1859 223.935" stroke="#CCDDE2" stroke-width="1.21795" stroke-miterlimit="10"/>
<path d="M47.4019 236.488C47.4019 236.488 49.3069 231.565 50.0911 229.372" stroke="#CCDDE2" stroke-width="1.21795" stroke-miterlimit="10"/>
<path d="M53.3218 231.786C53.3218 231.786 55.4037 233.445 57.9264 230.783" stroke="#CCDDE2" stroke-width="1.21795" stroke-miterlimit="10"/>
<path d="M53.3215 229.371C53.3215 229.371 51.9717 228.789 52.5997 225.398" stroke="#CCDDE2" stroke-width="1.21795" stroke-miterlimit="10"/>
<path d="M246.042 193.056L261.819 210.277V133.317" stroke="#CCDDE2" stroke-width="1.21795" stroke-miterlimit="10"/>
<path d="M261.819 199.363L276.081 186.83" stroke="#CCDDE2" stroke-width="1.21795" stroke-miterlimit="10"/>
<path d="M261.82 168.145L252.093 157.26" stroke="#CCDDE2" stroke-width="1.21795" stroke-miterlimit="10"/>
<path d="M261.819 158.349L268.95 154.053" stroke="#CCDDE2" stroke-width="1.21795" stroke-miterlimit="10"/>
<path d="M261.819 137.782C261.819 136.474 256.961 127.254 256.961 127.254" stroke="#CCDDE2" stroke-width="1.21795" stroke-miterlimit="10"/>
<path d="M246.382 215.887L247.121 215.922L251.25 215.995C252.771 216.018 254.222 216.639 255.29 217.723C256.357 218.808 256.955 220.268 256.955 221.79V243.72" stroke="#CCDDE2" stroke-width="1.21795" stroke-miterlimit="10"/>
<path d="M210.561 205.134L222.626 218.302V159.445" stroke="#CCDDE2" stroke-width="1.21795" stroke-miterlimit="10"/>
<path d="M226.027 206.974L222.63 209.958" stroke="#CCDDE2" stroke-width="1.21795" stroke-miterlimit="10"/>
<path d="M222.627 186.083L215.19 177.755" stroke="#CCDDE2" stroke-width="1.21795" stroke-miterlimit="10"/>
<path d="M222.626 178.588L228.081 175.306" stroke="#CCDDE2" stroke-width="1.21795" stroke-miterlimit="10"/>
<path d="M222.627 162.86C222.627 161.864 218.907 154.813 218.907 154.813" stroke="#CCDDE2" stroke-width="1.21795" stroke-miterlimit="10"/>
<path d="M233.623 190.56C232.2 188.325 231.468 186.049 233.095 184.613C234.094 183.735 236.444 183.631 238.22 183.1" stroke="#CCDDE2" stroke-width="1.21795" stroke-miterlimit="10"/>
<path d="M218.907 243.886V227.113C218.907 225.95 218.45 224.833 217.635 224.004C216.82 223.174 215.711 222.698 214.549 222.678L211.387 222.63C211.387 222.63 181.636 221.831 202.803 199.45C223.969 177.069 201.519 187.448 203.979 179.949C206.439 172.451 214.042 173.44 215.697 166.663C216.769 162.232 215.423 157.471 215.746 152.977C215.957 149.945 217.21 146.117 219.167 143.779C221.686 140.77 224.882 142.956 226.548 145.784C229.376 150.611 228.099 156.52 228.081 161.801C228.081 165.889 229.317 169.435 232.634 171.927C235.608 174.172 239.071 176.195 240.306 179.949C240.376 180.158 240.427 180.373 240.459 180.591" stroke="#CCDDE2" stroke-width="1.21795" stroke-miterlimit="10"/>
<path d="M226.1 227.533C226.099 226.876 226.228 226.227 226.48 225.621C226.732 225.015 227.102 224.466 227.569 224.005C228.036 223.543 228.589 223.18 229.198 222.935C229.807 222.69 230.458 222.568 231.114 222.577L233.543 222.619C238.054 222.432 242.138 223.546 246.285 218.455L246.389 218.327C242.804 218.098 227.252 216.592 226.034 206.973C225.687 204.364 226.489 201.734 227.592 199.391C230.763 192.649 235.719 186.698 240.243 180.827C242.246 178.232 244.497 175.844 246.173 173.002C247.242 171.188 248.932 168.11 246.989 166.285C244.695 164.133 238.04 165.625 237.225 162.013C237.123 161.375 237.192 160.721 237.426 160.119C240.642 150.309 250.591 151.6 252.752 142.745C254.158 136.957 252.405 130.732 252.808 124.85C253.093 120.884 254.727 115.887 257.295 112.823C260.577 108.888 264.762 111.748 266.934 115.454C270.63 121.762 268.964 129.482 268.94 136.398C268.94 141.745 270.564 146.36 274.898 149.625C278.78 152.561 283.316 155.209 284.926 160.119C286.678 165.466 277.986 164.067 275.515 166.219C271.053 170.122 280.186 179.11 282.729 181.684C289.1 188.145 301.404 199.839 292.75 210.485C287.33 217.147 281.994 215.69 276.095 215.929L272.895 215.88C272.04 215.869 271.191 216.028 270.397 216.348C269.603 216.668 268.881 217.142 268.272 217.743C267.663 218.344 267.179 219.06 266.849 219.849C266.518 220.639 266.348 221.486 266.348 222.341" stroke="#CCDDE2" stroke-width="1.21795" stroke-miterlimit="10"/>
<path d="M131.007 107.421C129.051 103.993 127.367 100.417 125.968 96.7268C127.839 92.7988 131.204 89.6516 131.204 89.6516C147.149 72.9473 136.86 58.0474 136.86 58.0474L140.466 54.98C144.331 62.1107 146.337 70.4837 148.165 79.6894C148.585 81.8026 149.113 84.0928 149.758 86.4801C129.275 89.5996 130.92 106.713 131.007 107.421Z" fill="#2E2E2E"/>
<path d="M125.798 96.272C125.854 96.4177 125.916 96.5669 125.968 96.7161C127.367 100.407 129.051 103.982 131.007 107.41C131.881 108.965 132.832 110.464 133.824 111.921C143.193 125.53 156.074 137.599 172.24 142.457C177.212 143.956 182.966 143.807 186.345 139.299C187.952 137.165 189.545 133.588 188.923 130.853C188.288 128.053 185.617 125.53 183.274 124.202C180.242 122.467 176.768 122.238 174.7 125.36C174.613 125.499 174.53 125.603 174.436 125.742" stroke="black" stroke-width="1.58229" stroke-miterlimit="10"/>
<path d="M172.735 129.507L172.725 129.525" stroke="black" stroke-width="1.58229" stroke-miterlimit="10"/>
<path d="M173.763 137.327C171.726 136.234 169.227 133.24 171.094 130.825C173.006 128.351 175.713 129.766 177.579 131.776C178.453 132.651 179.085 133.738 179.415 134.93" stroke="black" stroke-width="1.58229" stroke-miterlimit="10"/>
<path d="M182.934 129.76C181.404 127.445 178.36 125.006 175.446 125.45C173.364 125.769 172.281 128.06 173.673 129.527" stroke="black" stroke-width="1.58229" stroke-miterlimit="10"/>
<path d="M131.006 43.4976C134.895 46.6545 138.111 50.5585 140.465 54.9796C144.331 62.1103 146.337 70.4833 148.165 79.689C148.585 81.8022 149.112 84.0924 149.758 86.4797C153.728 101.008 162.291 118.927 178.267 118.715L188.677 118.58C189.542 118.754 190.323 119.216 190.892 119.891C191.462 120.565 191.786 121.412 191.814 122.294C191.84 123.177 191.568 124.042 191.041 124.75C190.513 125.458 189.762 125.967 188.909 126.193C188.48 126.296 188.035 126.321 187.598 126.266L186.182 126.096" stroke="black" stroke-width="1.58229" stroke-miterlimit="10"/>
<path d="M135.336 29.3467C135.725 31.4668 137.606 32.7819 139.48 32.3794" stroke="black" stroke-width="1.58229" stroke-miterlimit="10"/>
<path d="M154.287 9.79762C154.037 11.2644 153.334 12.6159 152.276 13.6621C151.217 14.7079 149.858 15.395 148.388 15.6271C148.226 15.0397 147.922 14.5011 147.503 14.0587C145.726 12.2231 145.261 15.9221 139.807 13.6527C132.242 10.502 129.601 12.7748 129.601 12.7748C129.372 12.9726 129.511 14.6555 129.501 14.9539C129.421 16.7097 129.341 18.4516 129.251 20.2074C129.199 21.2762 129.147 22.3345 129.105 23.3963C128.992 23.2235 128.87 23.058 128.737 22.9001C127.915 20.5857 125.791 17.9277 123.297 19.2983C122.792 19.587 122.365 19.9913 122.047 20.4781C120.493 22.8272 121.929 24.9023 123.817 26.377C124.297 26.8423 124.827 27.2542 125.396 27.6053C125.143 28.2334 124.109 30.7283 124.109 30.7283C124.001 30.9781 119.5 26.5227 119.153 26.03C118.6 24.8041 118.256 23.4938 118.137 22.1541C117.696 16.6195 119.525 10.0266 123.793 6.53934C124.851 5.6788 125.198 4.89459 125.202 3.81891C125.202 3.76062 125.221 3.70441 125.254 3.65687C125.288 3.60933 125.334 3.57324 125.389 3.55277C125.443 3.53264 125.503 3.52918 125.559 3.5434C125.615 3.55728 125.666 3.58817 125.705 3.63154C127.218 5.15831 130.688 4.76274 130.688 4.76274C142.562 0.928455 146.996 6.0258 149.477 6.81347C150.496 7.12473 151.592 7.07059 152.576 6.66079C152.656 6.99044 152.825 7.29163 153.065 7.5314C153.305 7.77152 153.606 7.94086 153.936 8.02101L153.912 8.58661C153.892 9.02139 154.025 9.44959 154.287 9.79762Z" fill="#3FBDF1"/>
<path d="M64.9078 175.186C64.762 174.464 61.0631 156.41 70.8483 159.432C70.8483 159.432 66.1084 152.801 62.3504 155.713C58.5925 158.624 58.9846 162.736 59.6369 167.597C60.2893 172.458 59.3628 193.535 65.574 195.877C71.7852 198.219 74.922 193.642 73.7839 191.921C72.6457 190.2 65.3068 177.185 64.9078 175.186Z" fill="#3FBDF1"/>
<path d="M170.619 235.218L168.926 232.436L204.729 235.788L208.952 243.63L175.664 243.883L170.619 235.218Z" fill="#3FBDF1"/>
<path d="M148.374 15.6403C149.843 15.4085 151.203 14.7211 152.262 13.6753C153.32 12.6294 154.023 11.2779 154.272 9.81082C154.371 9.24834 154.419 8.67823 154.415 8.10708H154.321C154.189 8.10603 154.058 8.08625 153.932 8.04808C153.603 7.96793 153.301 7.79859 153.061 7.55882C152.822 7.3187 152.652 7.01752 152.572 6.68787C152.521 6.50535 152.501 6.3152 152.513 6.12574L152.638 3.37408C152.638 3.37408 150.556 5.14375 148.079 4.35607C145.601 3.5684 141.163 -1.54282 129.289 2.30534C129.289 2.30534 125.819 2.69744 124.303 1.17413C124.264 1.13076 124.213 1.10023 124.157 1.086C124.101 1.07212 124.041 1.07559 123.987 1.09571C123.932 1.11584 123.886 1.15227 123.852 1.19946C123.819 1.247 123.8 1.30357 123.799 1.36151C123.799 2.43372 123.452 3.21793 122.391 4.07847C118.119 7.54841 116.297 14.1413 116.735 19.6932C116.955 21.9955 117.784 24.1979 119.136 26.0744C119.483 26.5671 123.994 31.0226 124.091 30.7727C124.091 30.7727 125.132 28.2744 125.378 27.6498L125.437 27.511C125.396 27.4867 125.344 27.4554 125.298 27.4346C124.778 27.1282 124.278 26.7899 123.799 26.4214C121.912 24.9397 120.475 22.8647 122.03 20.5225C122.347 20.0357 122.775 19.6314 123.279 19.3427C125.774 17.9721 127.897 20.6301 128.72 22.9445C128.881 23.3866 128.991 23.845 129.049 24.3117C129.049 24.0202 129.074 23.7391 129.088 23.4477C129.129 22.3859 129.181 21.3275 129.233 20.2588C129.324 18.503 129.403 16.7611 129.483 15.0053C129.483 14.7069 129.355 13.024 129.584 12.8262C129.584 12.8262 132.224 10.5534 139.789 13.7041C145.244 15.9734 145.709 12.2745 147.485 14.1101C147.904 14.5525 148.208 15.091 148.37 15.6785C148.421 15.8676 148.458 16.0602 148.481 16.2545C148.484 16.2798 148.484 16.3055 148.481 16.3308C148.533 16.7542 148.571 17.181 148.61 17.5974C148.918 21.619 148.759 25.8489 147.426 29.6901C145.813 34.3467 141.031 39.1561 135.608 37.3968C133.938 36.7743 132.375 35.8964 130.975 34.7944" stroke="black" stroke-width="1.58229" stroke-miterlimit="10"/>
<path d="M113.688 33.8512L119.802 26.7656" stroke="black" stroke-width="1.58229" stroke-miterlimit="10"/>
<path d="M136.447 26.1127C137.059 26.1127 137.554 25.6169 137.554 25.0058C137.554 24.3944 137.059 23.8989 136.447 23.8989C135.836 23.8989 135.34 24.3944 135.34 25.0058C135.34 25.6169 135.836 26.1127 136.447 26.1127Z" fill="black"/>
<path d="M144.949 25.7104C145.56 25.7104 146.056 25.2145 146.056 24.6035C146.056 23.9921 145.56 23.4966 144.949 23.4966C144.337 23.4966 143.842 23.9921 143.842 24.6035C143.842 25.2145 144.337 25.7104 144.949 25.7104Z" fill="black"/>
<path d="M141.936 22.248C141.936 22.248 142.977 26.006 143.092 26.3877C143.477 27.6126 140.993 27.3385 140.993 27.3385" stroke="black" stroke-width="1.58229" stroke-miterlimit="10"/>
<path d="M140.261 17.5046C140.261 17.5046 136.51 15.3809 133.82 18.0181" stroke="black" stroke-width="1.58229" stroke-miterlimit="10"/>
<path d="M137.003 27.0607C139.183 27.0607 140.951 25.2927 140.951 23.1119C140.951 20.931 139.183 19.1631 137.003 19.1631C134.822 19.1631 133.054 20.931 133.054 23.1119C133.054 25.2927 134.822 27.0607 137.003 27.0607Z" stroke="black" stroke-width="1.58229" stroke-miterlimit="10"/>
<path d="M146.996 27.2096C149.177 27.2096 150.944 25.4417 150.944 23.2608C150.944 21.0799 149.177 19.312 146.996 19.312C144.815 19.312 143.047 21.0799 143.047 23.2608C143.047 25.4417 144.815 27.2096 146.996 27.2096Z" stroke="black" stroke-width="1.58229" stroke-miterlimit="10"/>
<path d="M146.996 20.7312H147.034C147.688 20.7596 148.306 21.0411 148.757 21.5161C149.208 21.9911 149.457 22.6223 149.453 23.2774C149.447 23.9322 149.189 24.5599 148.73 25.028C148.272 25.4961 147.65 25.7681 146.996 25.7869H146.957C146.287 25.7768 145.648 25.501 145.181 25.0204C144.714 24.5394 144.457 23.893 144.466 23.2226C144.479 22.5592 144.75 21.9269 145.223 21.4616C145.696 20.9959 146.332 20.7336 146.996 20.7312ZM146.996 19.94C146.115 19.9334 145.267 20.2773 144.64 20.8953C144.013 21.5137 143.657 22.3558 143.65 23.2365C143.644 24.1171 143.988 24.9642 144.606 25.5915C145.224 26.2189 146.066 26.5749 146.947 26.5815H146.996C147.876 26.5877 148.724 26.2442 149.351 25.6259C149.978 25.0079 150.334 24.1657 150.341 23.2851C150.347 22.4044 150.003 21.557 149.385 20.9297C148.767 20.3023 147.925 19.9463 147.044 19.94H146.996Z" fill="white"/>
<path d="M140.951 22.2125L143.044 22.0459" stroke="black" stroke-width="1.58229" stroke-miterlimit="10"/>
<path opacity="0.53" d="M137.002 26.4536C138.848 26.4536 140.344 24.9577 140.344 23.1121C140.344 21.2667 138.848 19.7705 137.002 19.7705C135.157 19.7705 133.661 21.2667 133.661 23.1121C133.661 24.9577 135.157 26.4536 137.002 26.4536Z" fill="white"/>
<path opacity="0.53" d="M146.995 26.6025C148.841 26.6025 150.337 25.1063 150.337 23.261C150.337 21.4153 148.841 19.9194 146.995 19.9194C145.15 19.9194 143.654 21.4153 143.654 23.261C143.654 25.1063 145.15 26.6025 146.995 26.6025Z" fill="white"/>
<path d="M95.6303 183.854C75.7788 163.908 66.4134 142.03 63.5958 121.429C63.2881 119.19 63.0566 116.969 62.9019 114.767" stroke="black" stroke-width="1.58229" stroke-miterlimit="10"/>
<path d="M74.8525 58.2965C74.9462 58.1265 75.0295 57.9495 75.1267 57.8003" stroke="black" stroke-width="1.58229" stroke-miterlimit="10"/>
<path d="M109.038 133.511C109.038 133.511 135.431 172.1 127.221 197.629C123.057 210.558 108.546 216.679 96.0537 211.349C85.9909 207.057 73.2354 196.775 63.8735 172.607" stroke="black" stroke-width="1.58229" stroke-miterlimit="10"/>
<path d="M93.5002 181.671L67.9441 156.586C67.2588 155.908 66.3878 155.448 65.4415 155.263C64.4949 155.079 63.515 155.178 62.625 155.549C61.735 155.92 60.9743 156.545 60.4389 157.348C59.9035 158.15 59.6173 159.092 59.6162 160.056L61.1222 188.225C61.2748 191.119 62.6385 193.892 65.0328 195.53C67.427 197.167 70.7027 197.594 74.53 192.983" stroke="black" stroke-width="1.58229" stroke-miterlimit="10"/>
<path d="M113.688 33.8516C100.313 29.1415 86.3804 26.1983 72.2432 25.097C71.2924 25.0137 70.3313 24.9721 69.3805 24.9512C63.8633 24.8506 58.3711 25.715 53.1516 27.5051C45.4865 30.1145 38.5779 34.5387 32.4048 39.7228C27.3457 43.9665 22.5953 48.3976 18.7715 53.8385C15.7394 58.1922 13.0191 62.7552 10.631 67.4927C10.3569 68.0409 9.80864 68.6759 9.11118 68.4226C8.79989 68.281 8.52202 68.0753 8.29575 67.8189C7.34498 66.8265 6.7655 66.5107 5.58225 65.7924C1.97352 63.6272 0.526553 67.6107 1.86595 70.4387C2.95551 72.7496 4.94031 74.6026 7.20965 75.7928C10.8083 77.6131 14.923 78.1423 18.8651 77.2918C25.9403 75.6956 28.6642 69.3109 33.196 64.4322C35.8817 61.4883 38.9214 58.8883 42.2456 56.6908C48.887 52.3603 56.0768 52.7628 63.8807 54.8205L78.0068 58.5715C100.815 63.0061 103.771 45.9305 103.771 45.9305" stroke="black" stroke-width="1.58229" stroke-miterlimit="10"/>
<path d="M128.734 184.256C129.737 185.165 130.771 186.07 131.819 186.959C154.075 205.922 171.445 236.332 174.836 242.509C175.022 242.85 175.297 243.134 175.632 243.331C175.967 243.529 176.348 243.632 176.737 243.63H208.952L206.523 238.317C206.152 237.512 205.575 236.82 204.849 236.31C204.124 235.801 203.277 235.492 202.394 235.416L190.051 234.32L178.701 204.648C170.221 182.233 153.697 154.418 136.083 138.168C127.617 130.354 120.816 125.739 117.394 121.221L117.363 121.189C116.48 120.067 115.802 118.797 115.361 117.438" stroke="black" stroke-width="1.58229" stroke-miterlimit="10"/>
<path d="M125.076 97.0145L125.107 96.9832C125.604 96.4142 126.121 95.8243 126.672 95.2101C126.915 94.936 127.158 94.6619 127.411 94.3877C130.432 91.0906 133.141 87.5211 135.503 83.7246" stroke="black" stroke-width="1.58229" stroke-miterlimit="10"/>
<path d="M190.051 234.317L184.946 233.915" stroke="black" stroke-width="1.58229" stroke-miterlimit="10"/>
<path d="M113.688 33.8486C113.688 37.9605 115.77 47.9956 123.026 49.1823C129.077 50.1747 130.583 45.5631 130.92 43.9982C131 43.6064 131.106 43.2206 131.235 42.8427L133.692 35.8612" stroke="black" stroke-width="1.58229" stroke-miterlimit="10"/>
<path d="M67.1948 116.745C67.2576 116.774 67.318 116.81 67.3753 116.849" stroke="black" stroke-width="1.58229" stroke-miterlimit="10"/>
<path d="M123.341 118.788C123.404 116.682 120.912 116.384 119.334 116.509C116.665 116.713 114.212 117.921 111.908 119.198C105.992 122.473 98.9581 122.272 92.4242 121.752C85.6072 121.259 78.8519 120.121 72.25 118.351C69.1999 117.511 66.1464 116.533 63.3462 115.041C63.3462 115.041 54.5603 109.142 52.0029 115.589" stroke="black" stroke-width="1.58229" stroke-miterlimit="10"/>
<path d="M125.114 96.9658C123.494 98.9333 122.016 101.23 121.54 103.77C121.08 106.396 121.067 109.08 121.502 111.71C121.676 112.934 121.943 114.144 122.3 115.329C122.647 116.45 123.421 117.57 123.341 118.799C123.286 119.312 123.1 119.802 122.802 120.223C122.504 120.644 122.103 120.981 121.637 121.203C120.77 121.644 119.732 122.022 118.744 121.897C118.28 121.833 117.847 121.633 117.498 121.321C117.456 121.286 117.417 121.248 117.38 121.207" stroke="black" stroke-width="1.58229" stroke-miterlimit="10"/>
<path d="M75.4112 57.8735C68.9258 62.6898 55.8962 77.0068 51.9891 115.589C51.9891 115.589 51.0175 121.207 63.596 121.429" stroke="black" stroke-width="1.58229" stroke-miterlimit="10"/>
<path d="M153.402 225.957C153.404 229.013 152.614 232.018 151.107 234.677C149.601 237.336 147.431 239.559 144.809 241.129C142.187 242.698 139.202 243.561 136.146 243.632C133.091 243.703 130.07 242.98 127.377 241.534C124.072 238.694 121.933 234.733 121.371 230.411C120.809 226.09 121.864 221.713 124.334 218.123C126.803 214.532 130.513 211.981 134.749 210.96C138.986 209.939 143.45 210.52 147.284 212.591C149.206 214.247 150.747 216.299 151.803 218.606C152.859 220.913 153.404 223.42 153.402 225.957Z" fill="#3FBDF1"/>
<path d="M153.402 225.957C153.404 229.013 152.614 232.018 151.107 234.677C149.601 237.336 147.431 239.559 144.809 241.129C142.187 242.698 139.202 243.561 136.146 243.632C133.091 243.703 130.07 242.98 127.377 241.534C124.072 238.694 121.933 234.733 121.371 230.411C120.809 226.09 121.864 221.713 124.334 218.123C126.803 214.532 130.513 211.981 134.749 210.96C138.986 209.939 143.45 210.52 147.284 212.591C149.206 214.247 150.747 216.299 151.803 218.606C152.859 220.913 153.404 223.42 153.402 225.957Z" fill="#3FBDF1"/>
<path d="M135.73 243.629C145.49 243.629 153.402 235.717 153.402 225.957C153.402 216.197 145.49 208.285 135.73 208.285C125.969 208.285 118.057 216.197 118.057 225.957C118.057 235.717 125.969 243.629 135.73 243.629Z" stroke="black" stroke-width="1.58229" stroke-miterlimit="10"/>
<path d="M0.852539 243.883H313.147" stroke="black" stroke-width="1.21795" stroke-miterlimit="10"/>
<path d="M62.4234 114.371C62.4234 114.371 63.1729 118.167 63.3846 119.798C63.5962 121.429 63.0723 121.46 61.8161 121.356C60.56 121.252 50.0184 119.812 52.3883 114.763C54.7583 109.715 62.4234 114.371 62.4234 114.371Z" fill="black"/>
<path d="M116.447 117.31C116.447 117.31 114.556 117.925 117.547 120.874C120.538 123.824 123.328 118.792 123.328 118.792C123.328 118.792 123.193 116.432 119.591 116.741C115.989 117.05 116.447 117.31 116.447 117.31Z" fill="black"/>
</svg>
