<svg width="132" height="102" viewBox="0 0 132 102" fill="none" xmlns="http://www.w3.org/2000/svg">
<path d="M29.1003 33.8358C28.9923 30.3697 26.6264 24.8589 29.7051 18.7158" stroke="#CCDDE2" stroke-width="0.67968" stroke-miterlimit="10"/>
<path d="M38.5301 7.89033C49.428 0.834326 69.7521 -2.48631 81.0273 6.21993" stroke="#CCDDE2" stroke-width="0.67968" stroke-miterlimit="10"/>
<path d="M26.9082 43.1543C26.6215 43.8262 26.2965 44.4811 25.9348 45.1156C23.4479 49.4802 19.9703 53.2156 16.2176 56.5578C10.2085 61.9103 6.13764 68.3399 9.65556 76.3909C13.2152 84.5457 19.9213 90.0061 26.6274 95.4897" stroke="#CCDDE2" stroke-width="0.67968" stroke-miterlimit="10"/>
<path d="M69.457 91.8835C69.457 91.8835 67.6671 81.3312 61.2606 82.6502C54.854 83.9693 53.1577 91.129 53.1577 91.129" stroke="#CCDDE2" stroke-width="0.67968" stroke-miterlimit="10"/>
<path d="M62.3898 82.541C62.3898 82.541 67.3074 87.149 67.018 92.6757" stroke="#CCDDE2" stroke-width="0.67968" stroke-miterlimit="10"/>
<path d="M62.9586 85.7598C62.9586 85.7598 64.9545 88.8428 64.7097 92.6718" stroke="#CCDDE2" stroke-width="0.67968" stroke-miterlimit="10"/>
<path d="M61.3086 84.6289C61.3086 84.6289 58.7166 88.3023 58.8131 91.8836" stroke="#CCDDE2" stroke-width="0.67968" stroke-miterlimit="10"/>
<path d="M59.0889 84.6289C59.0889 84.6289 56.9793 86.2302 55.5378 90.9404" stroke="#CCDDE2" stroke-width="0.67968" stroke-miterlimit="10"/>
<path d="M61.7328 87.21C61.9877 89.4355 61.8414 91.6888 61.3008 93.8628" stroke="#CCDDE2" stroke-width="0.67968" stroke-miterlimit="10"/>
<path d="M63.2236 101.653C62.747 100.92 62.7743 99.5388 62.1494 98.4329C61.6655 97.5775 60.8635 96.9166 59.8353 97.1974C58.7625 97.4854 58.3147 98.3566 58.1203 99.3804C57.9979 100.027 57.5803 101.131 56.879 101.653" stroke="#CCDDE2" stroke-width="0.67968" stroke-miterlimit="10"/>
<path d="M54.0498 91.3252C53.7618 92.2458 53.54 93.0925 53.3845 93.8654C53.1527 96.7238 53.0677 99.3676 53.0965 101.659" stroke="#CCDDE2" stroke-width="0.67968" stroke-miterlimit="10"/>
<path d="M67.8737 101.653C68.3129 98.7957 68.4799 95.7703 68.4627 94.5204C68.4539 93.6378 68.3933 92.7564 68.2812 91.8809" stroke="#CCDDE2" stroke-width="0.67968" stroke-miterlimit="10"/>
<path d="M68.4639 94.519C68.4639 94.519 57.8079 97.0893 53.3899 93.8623" stroke="#CCDDE2" stroke-width="0.67968" stroke-miterlimit="10"/>
<path d="M71.6934 11.0276C71.6934 11.0276 67.4914 5.79603 61.6393 11.0276C61.6393 11.0276 60.1388 5.51811 53.0857 6.31155" stroke="#CCDDE2" stroke-width="0.67968" stroke-miterlimit="10"/>
<path d="M83.5322 24.3115C83.5322 24.3115 80.3815 20.3875 75.9924 24.3115C75.9924 24.3115 74.8663 20.1787 69.5757 20.7734" stroke="#CCDDE2" stroke-width="0.67968" stroke-miterlimit="10"/>
<path d="M74.7161 13.073C75.2319 12.9754 75.7565 12.9314 76.2814 12.942C79.0719 12.9399 81.7492 14.0461 83.7247 16.0172C85.7001 17.9884 86.8122 20.6632 86.8164 23.454" stroke="#CCDDE2" stroke-width="0.67968" stroke-miterlimit="10"/>
<path d="M80.2338 33.3289C83.2189 29.9003 89.0322 28.371 93.8908 27.759C94.9232 27.6323 95.9068 27.5415 96.8212 27.4868C98.9044 27.3414 100.997 27.3978 103.069 27.6553C103.251 27.6783 103.432 27.7043 103.612 27.7316C103.671 27.7417 103.756 27.759 103.861 27.7863" stroke="#CCDDE2" stroke-width="0.67968" stroke-miterlimit="10"/>
<path d="M109.455 29.3659C110.845 28.0112 111.712 26.2089 111.903 24.277C111.925 24.0091 111.943 23.7298 111.943 23.4576C111.941 21.4341 111.198 19.4815 109.854 17.969C108.51 16.4566 106.658 15.4891 104.648 15.2496C104.332 14.2609 103.923 13.3043 103.426 12.3926C102.007 9.78696 99.8975 7.62279 97.3291 6.13771C94.7607 4.6525 91.8326 3.90398 88.8666 3.97426C85.9005 4.04438 83.0113 4.93071 80.5159 6.53573C78.0207 8.14076 76.0161 10.4024 74.7222 13.0723C72.231 13.4381 69.9547 14.6886 68.3099 16.5951C66.6652 18.5017 65.762 20.9367 65.7654 23.4547V23.5584C65.7637 23.6326 65.7672 23.7066 65.7755 23.7802C65.7712 23.8025 65.7712 23.8255 65.7755 23.8478V23.8939" stroke="#CCDDE2" stroke-width="0.67968" stroke-miterlimit="10"/>
<path d="M74.7161 13.073C75.2319 12.9754 75.7565 12.9314 76.2814 12.942C79.0719 12.9399 81.7492 14.0461 83.7247 16.0172C85.7001 17.9884 86.8122 20.6632 86.8164 23.454" stroke="#CCDDE2" stroke-width="0.67968" stroke-miterlimit="10"/>
<path d="M99.7373 58.5957L101.746 67.5323" stroke="#CCDDE2" stroke-width="0.67968" stroke-miterlimit="10"/>
<path d="M92.4282 65.1387C92.9793 64.9118 93.4999 64.6167 93.9777 64.2603C95.2132 63.3416 96.165 62.1003 97.0161 60.8187C97.7361 59.7315 98.5194 58.4369 99.7377 58.5953C100.004 58.6335 100.261 58.7225 100.494 58.8574C101.585 59.4651 102.21 60.6416 103.184 61.3846C107.331 64.5224 112.112 60.0987 114.326 56.6758C116.486 53.3336 121.67 54.1083 124.995 54.5158C126.756 54.7376 128.353 54.7693 129.664 53.3523C130.816 52.1024 131.144 50.2232 130.41 48.7155C126.653 40.9856 118.931 33.0195 109.455 29.3662C107.646 28.6647 105.774 28.1343 103.866 27.7822C103.604 27.7318 103.342 27.6915 103.074 27.6512C100.03 27.1724 96.9278 27.2074 93.8956 27.7549" stroke="#CCDDE2" stroke-width="0.67968" stroke-miterlimit="10"/>
<path d="M32.4498 101.651C35.0749 100.895 47.0975 98.7869 53.1426 97.9531" stroke="#CCDDE2" stroke-width="0.67968" stroke-miterlimit="10"/>
<path d="M68.426 96.038C71.3679 95.6982 73.2788 95.4894 73.2788 95.4894C85.4684 93.6476 83.8571 85.7593 83.8571 85.7593C83.8571 85.7593 86.9127 86.8911 87.8732 90.0563C89.1087 94.1401 94.7507 96.5535 98.7452 95.0502C100.982 94.2135 103.046 92.6555 104.233 89.8849C104.78 88.5975 105.029 87.0855 105.052 85.4209C105.08 83.6929 104.858 81.8122 104.486 79.9014" stroke="#CCDDE2" stroke-width="0.67968" stroke-miterlimit="10"/>
<path d="M111.987 101.653C113.706 96.8662 114.757 91.6462 113.923 86.5601C113.347 83.0292 111.619 80.2241 109.821 77.3916" stroke="#CCDDE2" stroke-width="0.67968" stroke-miterlimit="10"/>
<path d="M104.448 79.2666L108.7 101.735" stroke="#CCDDE2" stroke-width="0.67968" stroke-miterlimit="10"/>
<path d="M75.586 40.1299L76.008 40.5518L76.3564 40.8918C76.2513 40.7737 76.152 40.6556 76.0483 40.5419C75.9446 40.4281 75.8755 40.3475 75.7905 40.2539C75.7318 40.1987 75.6621 40.1565 75.586 40.1299Z" fill="#353642"/>
<path d="M12.3584 28.1221C12.403 28.0717 12.4419 28.0271 12.4851 27.9781C13.5233 26.8362 13.0928 25.4394 12.1121 24.368C11.3561 23.5372 10.0961 22.6861 8.92398 22.6904C7.77198 22.6904 6.51342 23.6855 5.82654 24.5351C4.6515 25.988 4.17918 27.8471 5.36862 29.4311C6.71041 31.2067 8.24372 32.8293 9.94062 34.2695C18.2077 41.386 27.9853 45.1156 38.876 43.6511C39.9445 43.5071 41.3931 42.993 42.4141 42.6431" stroke="black" stroke-width="0.67968" stroke-miterlimit="10"/>
<path d="M9.94075 25.0342C11.0064 25.4388 12.2707 26.4483 12.3787 27.6809C12.4636 28.65 11.4729 29.3585 10.7054 28.6126" stroke="black" stroke-width="0.67968" stroke-miterlimit="10"/>
<path d="M19.4423 101.651H113.06" stroke="black" stroke-width="0.67968" stroke-miterlimit="10"/>
<path d="M42.4138 42.6533C44.7855 47.0453 49.3143 49.7482 53.5926 52.2293C54.6841 52.8586 58.8687 55.2317 60.4037 56.1058C61.2461 55.8177 62.0381 55.5629 62.7668 55.3267C62.7898 55.3267 62.8071 55.3138 62.8301 55.308C65.9233 54.3302 67.9335 53.8277 68.2229 53.7557L65.0175 54.7205C72.638 52.6685 73.2082 52.6238 80.9151 50.903C81.6178 50.7446 82.2428 50.5761 82.7871 50.4048C82.6431 50.124 82.4991 49.8432 82.3436 49.571C82.3351 49.5566 82.3273 49.5418 82.3205 49.5264C82.2975 49.4861 82.2716 49.44 82.2529 49.3997C82.2068 49.3176 82.1622 49.237 82.1218 49.1592L82.0268 48.9965L81.985 48.9288L81.9677 48.8971C81.746 48.4978 81.5193 48.1086 81.2881 47.7293C80.5508 46.488 79.7847 45.3288 79.0057 44.2459C78.1417 43.0464 77.259 41.9419 76.3662 40.9094L76.3532 40.8965L76.0047 40.5566L75.5828 40.1347L72.1772 40.8965C72.1772 40.8965 68.3612 37.1957 66.0961 37.6766C65.0002 37.1424 63.5458 37.0459 62.365 36.7925C60.8775 36.4728 59.066 36.3994 58.0781 35.0645C56.9866 33.5914 56.6497 31.4544 56.9621 29.6832C57.3193 27.6672 58.6369 25.3877 60.6457 24.695C62.4097 24.0874 64.3234 23.975 66.1724 23.8757C61.7386 23.7072 56.7865 21.9389 52.6162 23.039C52.6024 23.0399 52.5889 23.0428 52.5759 23.0477L51.8919 23.2378C51.6798 23.2968 51.4585 23.3154 51.2396 23.2925C51.0956 24.6014 50.2028 28.8523 47.1054 30.7416C45.0418 31.9958 43.3153 31.5062 42.2929 30.6682C41.8709 31.3205 41.6492 31.9498 41.4289 32.7331C40.513 35.9918 40.7924 39.6509 42.4138 42.6533Z" fill="#353642"/>
<path d="M35.6963 96.8594L22.6859 96.9803C22.0408 96.9803 18.7158 99.0079 19.5856 100.327C20.3156 101.433 19.5856 101.652 19.5856 101.652H32.4491L35.6963 96.8594Z" fill="#3FBDF1"/>
<path d="M118.066 61.8675L124.834 70.6601C124.834 70.6601 127.579 71.3801 128.625 70.5694L129.671 69.7572L121.781 59.5908L118.066 61.8675Z" fill="#3FBDF1"/>
<path d="M71.8706 68.7174L73.4892 70.6744C95.2721 95.4913 123.438 68.2264 123.438 68.2264L122.161 66.4883" stroke="black" stroke-width="0.67968" stroke-miterlimit="10"/>
<path d="M68.0693 53.9121C68.0693 53.9121 60.3697 55.5897 51.0457 59.6548C51.0457 59.6548 50.8066 59.747 50.3818 59.9428" stroke="black" stroke-width="0.67968" stroke-miterlimit="10"/>
<path d="M36.3066 72.8496C36.3066 72.8611 36.2951 72.8669 36.2894 72.877C35.4498 74.5416 34.6031 76.3243 33.7924 78.1287C33.7809 78.1517 33.7751 78.1747 33.7636 78.1978C33.3892 79.0258 33.0206 79.861 32.662 80.689C29.5113 87.9739 25.9401 97.2994 25.9401 97.2994" stroke="black" stroke-width="0.67968" stroke-miterlimit="10"/>
<path d="M36.2845 72.8831C36.2944 72.8737 36.3022 72.8625 36.3075 72.8499C41.1617 64.6347 48.2077 60.9325 50.3821 59.9403C50.8141 59.7474 51.0459 59.6523 51.0459 59.6523" stroke="black" stroke-width="0.67968" stroke-miterlimit="10"/>
<path d="M81.9693 48.8916C81.9693 48.8916 90.5532 62.2836 71.0685 69.007C50.3584 76.1422 50.2044 73.8151 42.3304 86.3561C37.4344 94.1566 35.5178 97.1561 34.7805 98.2836L34.314 98.9878L32.4492 101.652H19.5799V100.327C19.5799 99.525 19.8984 98.7558 20.4656 98.1887C21.0327 97.6216 21.8018 97.303 22.6039 97.303H27.7879" stroke="black" stroke-width="0.67968" stroke-miterlimit="10"/>
<path d="M118.534 61.5543L121.585 59.2705L129.534 69.8588L128.251 70.8222C128.004 71.0074 127.723 71.1416 127.424 71.2172C127.125 71.2928 126.814 71.3082 126.508 71.2625C126.203 71.2169 125.91 71.1109 125.646 70.9511C125.382 70.7912 125.153 70.5806 124.971 70.3311L123.433 68.2244" stroke="black" stroke-width="0.67968" stroke-miterlimit="10"/>
<path d="M42.4756 30.3979C38.0231 33.9144 32.001 34.3925 26.578 33.5458C21.8965 32.8157 16.0847 31.105 14.77 25.8936L13.8167 21.6298C13.674 21.2926 13.4191 21.0154 13.0953 20.8451C12.7714 20.6747 12.3984 20.6219 12.04 20.6953C11.6815 20.7688 11.3595 20.9642 11.1287 21.2481C10.8978 21.5321 10.7725 21.8872 10.774 22.2533C10.7753 22.4374 10.808 22.62 10.8705 22.7933L11.0749 23.3549" stroke="black" stroke-width="0.67968" stroke-linejoin="round"/>
<path d="M60.2842 56.0309C59.1034 55.3555 54.7632 52.9061 53.5939 52.225C49.3128 49.7439 44.7826 47.041 42.4095 42.6475C40.7923 39.6523 40.5058 35.9919 41.4303 32.7331C41.6823 31.8447 41.9343 31.1491 42.4757 30.3975" stroke="black" stroke-width="0.67968" stroke-linejoin="round"/>
<path d="M51.2604 23.374C51.2604 23.3913 51.269 23.4057 51.269 23.4057C51.3324 23.6087 50.7477 28.7078 47.3479 30.7814C45.1562 32.1177 43.3764 31.3574 42.4807 30.4012H42.4706C42.3749 30.2955 42.2844 30.1849 42.1999 30.07V30.0571" stroke="black" stroke-width="0.67968" stroke-miterlimit="10"/>
<path d="M42.4756 30.3974L38.7561 25.9492" stroke="black" stroke-width="0.67968" stroke-miterlimit="10"/>
<path d="M62.7673 55.3252C62.7903 55.3252 62.8076 55.3123 62.8306 55.3065L65.018 54.719C72.6385 52.667 73.2087 52.6224 80.9156 50.9016C81.6183 50.7432 82.2433 50.5747 82.7876 50.4033C88.5332 48.5788 86.4322 45.9753 85.6532 45.9753C80.1063 45.9753 79.1012 44.1768 79.1012 44.1768L79.0062 44.2444L62.7673 55.3252Z" fill="#353642"/>
<path d="M118.535 61.5572C118.535 61.5572 94.4267 78.28 85.2712 55.7742C84.4915 53.8541 83.666 52.0671 82.7944 50.4131" stroke="black" stroke-width="0.67968" stroke-miterlimit="10"/>
<path d="M72.7233 37.209C74.5072 38.8314 76.1642 40.5881 77.6798 42.4635C78.7209 43.7235 79.7505 44.8007 81.3417 45.3435C82.098 45.5911 82.8795 45.7542 83.6716 45.8303C84.4866 45.9181 85.6977 45.7813 86.3126 46.4351C86.4485 46.5812 86.5509 46.7552 86.6127 46.945C86.6743 47.1348 86.6937 47.3358 86.6697 47.5338C86.6092 47.8887 86.4511 48.2198 86.2132 48.4899C84.9906 49.9933 82.7082 50.5059 80.9154 50.8991C72.5102 52.7711 72.5951 52.6631 62.7714 55.3256" stroke="black" stroke-width="0.67968" stroke-miterlimit="10"/>
<path d="M76.008 40.5521L76.3564 40.8919C76.2513 40.7738 76.152 40.6558 76.0483 40.542L76.008 40.5521Z" fill="#353642"/>
<path d="M86.9156 46.9092C86.9156 46.9092 87.7609 50.0772 83.6626 52.1349L82.646 50.1189C82.646 50.1189 87.745 48.5565 86.9156 46.9092Z" fill="black"/>
<path d="M119.368 77.5371C119.368 77.5371 111.467 86.3672 94.4936 86.3672" stroke="black" stroke-width="0.67968" stroke-miterlimit="10"/>
<path d="M46.3311 85.0742L42.4143 91.1208" stroke="black" stroke-width="0.67968" stroke-miterlimit="10"/>
<path d="M4.05078 32.0144C2.58918 30.5543 1.37094 28.7197 1.20102 26.3408" stroke="black" stroke-width="0.67968" stroke-miterlimit="10"/>
<path d="M25.7259 77.403C36.0939 81.3428 50.1871 76.13 50.1871 76.13C95.4579 61.4953 108.118 48.1566 111.609 41.305C111.632 41.2647 111.655 41.223 111.674 41.187C111.851 40.8347 111.954 40.4501 111.978 40.0566C112.002 39.663 111.945 39.2686 111.812 38.8977C111.678 38.5267 111.471 38.1867 111.202 37.8984C110.933 37.6103 110.608 37.3799 110.247 37.2212C103.274 34.1411 85.0611 31.7967 40.591 49.4699C40.591 49.4699 28.1206 53.8345 22.0539 62.3204C22.0484 62.3256 22.0436 62.3314 22.0395 62.3377C21.6413 62.895 21.2714 63.4717 20.9307 64.0657C20.2629 65.2357 19.8568 66.5364 19.7402 67.8784C19.6234 69.2205 19.7991 70.5718 20.2549 71.8394C20.7106 73.107 21.4357 74.2608 22.3802 75.2212C23.3247 76.1817 24.466 76.926 25.7259 77.403Z" fill="white"/>
<path d="M25.7263 77.4033C36.0943 81.3432 50.1876 76.1304 50.1876 76.1304C95.4583 61.4957 108.119 48.1569 111.609 41.3054C111.582 40.7746 111.408 40.2619 111.108 39.8234C110.807 39.3849 110.392 39.0377 109.907 38.82C102.966 35.6721 84.7764 33.155 40.1393 50.4019C40.1393 50.4019 28.3803 54.3921 22.0543 62.3208C22.0489 62.326 22.0441 62.3317 22.0399 62.3381C21.6419 62.8952 21.2719 63.4719 20.9311 64.0661C20.2636 65.2359 19.8573 66.5367 19.7407 67.8788C19.624 69.2207 19.7996 70.572 20.2554 71.8396C20.7111 73.1073 21.4361 74.261 22.3806 75.2215C23.3251 76.1819 24.4666 76.9263 25.7263 77.4033Z" fill="#3FBDF1"/>
<path d="M44.1757 67.8641C49.7514 69.9838 57.3388 67.1787 57.3388 67.1787C64.9708 64.7105 72.6287 61.8723 79.6141 57.8706C83.1219 55.8618 88.3823 52.8997 90.1261 49.0246C90.3349 48.561 90.3637 47.9806 90.0656 47.5674C89.8367 47.252 89.4594 47.0821 89.0951 46.941C83.7671 44.8717 77.7651 45.933 72.345 47.0403C65.3048 48.4803 58.7053 51.0349 51.9258 53.3346C51.9258 53.3346 45.5984 55.4816 42.1871 59.7584C41.9718 60.0589 41.7723 60.3704 41.5895 60.6915C40.1019 63.3195 41.3619 66.7942 44.1757 67.8641Z" fill="#D7E8F0"/>
<path d="M70.8242 72.2757C70.601 72.2757 70.3922 72.2757 70.1777 72.2656C70.1749 72.2666 70.1718 72.2666 70.169 72.2656" stroke="black" stroke-width="0.67968" stroke-miterlimit="10"/>
<path d="M65.382 67.5644C66.6319 67.2346 67.3735 65.0429 67.6399 64.4713C67.6697 64.4099 67.7074 64.3529 67.7522 64.3013L68.56 63.0586L68.8293 64.5145C68.7545 65.2805 67.6874 67.2505 67.1244 69.2794C66.5613 71.3084 67.7364 71.3473 68.3973 71.3703C69.0583 71.3933 69.3103 70.0743 69.4615 71.3703C69.6127 72.6663 71.0455 72.2113 71.8922 71.7721C72.7389 71.3329 72.7361 70.2514 72.7821 71.0837C72.8282 71.9161 73.6793 72.2631 74.2898 72.0917C74.7535 71.965 75.4332 71.0636 75.7298 70.6388C75.9789 71.0953 76.601 71.9031 77.5817 71.0477C78.8777 69.9116 79.0994 65.5757 78.9338 61.2557C78.7682 56.9357 83.7132 47.3698 82.2977 39.3893C82.2977 39.3778 82.2977 39.3591 82.2876 39.3461C82.1565 38.75 81.9996 38.1596 81.8081 37.5735C81.4449 36.4579 80.9737 35.3805 80.4012 34.3565C79.9876 33.6123 79.5262 32.8957 79.0202 32.2109L67.804 38.4764C67.9149 38.5412 68.6047 38.6204 68.717 38.6909C72.582 41.0453 71.7036 45.6951 70.5516 49.4204C69.3866 53.2119 67.8818 57.074 65.837 60.4882C65.2374 61.4881 64.7118 62.5306 64.2645 63.6073L64.4474 63.6433C64.3825 64.0289 64.2945 64.4102 64.1839 64.7852C63.7289 66.2295 64.1292 67.8898 65.382 67.5644Z" fill="white"/>
<path d="M70.0094 70.0552L70.0137 70.0537" stroke="black" stroke-width="0.67968" stroke-miterlimit="10"/>
<path d="M76.1666 69.8725L76.1709 69.8711" stroke="black" stroke-width="0.67968" stroke-miterlimit="10"/>
<path d="M72.1289 62.6172C72.4313 64.8996 71.3931 67.8142 70.015 70.0462C69.6147 70.6942 68.575 71.6633 67.7398 71.3422C65.9341 70.6524 67.7657 67.9567 68.192 66.9732C68.7104 65.7795 69.0185 64.4763 68.8673 63.1702C68.8649 63.0877 68.8344 63.0085 68.7809 62.9455C68.7396 62.914 68.6889 62.8969 68.6369 62.8969C68.585 62.8969 68.5343 62.914 68.4929 62.9455C68.4123 63.009 68.3472 63.0904 68.3029 63.1831C67.7586 64.1436 67.3194 65.1473 66.8715 66.1553C66.5533 66.8753 65.4848 67.974 64.6222 67.4758C62.7502 66.3915 65.4862 61.5718 66.2062 60.3708C68.2453 56.958 69.7544 53.0945 70.9193 49.303C72.0713 45.5734 72.3723 40.9063 68.5073 38.5563C66.4913 37.3294 64.0808 37.2963 61.8171 36.9219C58.171 36.3185 56.6518 33.8359 56.6518 33.8359" stroke="black" stroke-width="0.67968" stroke-miterlimit="10"/>
<path d="M74.6533 64.2188C74.6533 64.2188 74.5309 69.3552 71.5588 71.9069C71.3848 72.0629 71.178 72.1781 70.9538 72.2437C70.7296 72.3095 70.4934 72.3244 70.2628 72.2871C69.7573 72.1877 69.2548 71.8248 69.5514 70.6944" stroke="black" stroke-width="0.67968" stroke-miterlimit="10"/>
<path d="M77.2432 64.5693C77.1654 66.486 76.9105 68.5466 75.976 70.253C75.544 71.0306 74.9564 71.8572 74.0924 72.1769C73.0571 72.5613 72.628 71.5317 72.8267 70.6706C72.867 70.4849 72.9304 70.305 73.0153 70.1349" stroke="black" stroke-width="0.67968" stroke-miterlimit="10"/>
<path d="M50.5931 22.9383L51.2569 23.3703C56.9305 22.5783 73.6475 21.4551 80.7769 34.2323C81.6543 35.8085 82.2906 37.5074 82.6648 39.2723C82.6658 39.2744 82.6663 39.2769 82.6663 39.2795C82.6663 39.2819 82.6658 39.2844 82.6648 39.2867M82.6648 39.2867C82.6658 39.2894 82.6658 39.2924 82.6648 39.2953M82.6648 39.2867C82.664 39.2652 82.6612 39.244 82.6561 39.2233M82.6648 39.2953C84.0644 47.2729 79.1281 56.8316 79.2966 61.1343M82.6648 39.2953C84.0644 47.2729 79.1295 56.8215 79.2966 61.1343M79.2966 61.1343C79.4651 65.4371 79.2462 69.7873 77.9416 70.9263M79.2966 61.1343C79.4636 65.4471 79.2404 69.7844 77.9416 70.9263M77.9416 70.9263C76.6369 72.0654 75.9673 70.2524 75.9673 70.2524C75.9673 70.2524 76.6427 72.0683 77.9416 70.9263Z" stroke="black" stroke-width="0.67968" stroke-miterlimit="10"/>
<path d="M27.4182 16.8771C27.4945 17.1629 27.6218 17.4328 27.794 17.6734C28.5543 18.1054 29.6487 18.8945 30.4681 18.6181C31.6907 18.2062 31.6907 18.2062 32.2998 18.0089C32.6036 17.9859 32.8023 18.2307 33.2603 19.0645C33.3396 19.21 33.43 19.3491 33.531 19.4806C34.215 19.8377 35.0473 20.5491 35.7227 20.3633C36.5651 20.1373 37.0763 19.5166 37.4924 20.1603C37.91 20.3273 38.2268 20.7032 38.4673 21.2878C38.6029 21.6039 38.7893 21.8956 39.0188 22.1518C39.2168 22.2909 39.4275 22.4109 39.6481 22.5104C40.1463 22.7221 40.7713 22.0078 41.4783 21.2821C42.1854 20.5563 42.9817 20.9336 43.2063 21.5413C43.9652 21.6968 44.331 22.9985 44.6348 23.6091C44.9387 24.2197 45.3073 24.8561 45.8487 25.2982C46.22 25.5894 46.671 25.7607 47.1419 25.7895C47.6129 25.8183 48.0815 25.7033 48.4854 25.4595C49.4372 24.8993 49.8822 23.7214 49.8937 22.6587C49.9038 21.6219 49.3177 20.6427 49.443 19.6232C49.5222 18.9968 49.8059 18.4107 50.1284 17.8765C50.3531 17.5035 50.6036 17.1565 50.7591 16.7518C50.7894 16.6856 50.8018 16.6126 50.7951 16.5401C50.7635 16.3558 50.3991 16.3155 50.2566 16.2795C48.6035 15.8576 47.1548 17.1795 46.1036 17.2875C45.0524 17.3955 37.3067 16.2277 37.3067 16.2277C37.3067 16.2277 31.1031 14.9691 29.8979 14.6437C28.6926 14.3182 26.9516 15.1491 27.4182 16.8771Z" fill="#3FBDF1"/>
<path d="M69.7451 39.5293C61.5674 41.7527 51.9309 44.9595 40.5837 49.4653C40.5837 49.4653 26.3982 54.4319 20.9234 64.0683C20.2569 65.2379 19.8519 66.5381 19.7359 67.8793C19.6199 69.2204 19.7958 70.5708 20.2515 71.8376C20.7071 73.1042 21.4318 74.2572 22.3755 75.2171C23.3192 76.1772 24.4597 76.9212 25.7186 77.3984C36.0866 81.3383 50.1798 76.1255 50.1798 76.1255C56.3603 74.1296 61.9302 72.1554 66.9515 70.2215" stroke="black" stroke-width="0.67968" stroke-miterlimit="10"/>
<path d="M79.3241 65.0591C101.598 54.9157 109.142 46.2412 111.674 41.1868C111.851 40.8345 111.954 40.4498 111.978 40.0562C112.002 39.6627 111.945 39.2684 111.812 38.8975C111.678 38.5264 111.471 38.1865 111.202 37.8982C110.933 37.6101 110.608 37.3796 110.247 37.221C106.026 35.3591 97.6956 33.765 81.9147 36.7084" stroke="black" stroke-width="0.67968" stroke-miterlimit="10"/>
<path d="M41.4362 16.8234L45.6971 17.0898C45.7375 15.5145 45.3976 13.0924 43.4824 10.5652C42.8952 9.79088 42.1487 9.15138 41.2935 8.68986C40.4383 8.22834 39.4941 7.95546 38.5245 7.88965C36.9553 7.9844 35.4765 8.65501 34.3715 9.77317C33.2361 10.907 32.3378 12.2556 31.7291 13.7404C31.4843 13.6223 31.2266 13.5085 30.9674 13.4049C30.2046 13.1091 29.4264 12.8553 28.636 12.6445C27.7432 12.3853 26.7122 12.0685 25.7647 12.1952C25.7341 12.1957 25.7038 12.1991 25.674 12.2053C23.9229 12.4904 28.0787 15.1789 41.4362 16.8234Z" fill="#353642"/>
<path d="M29.2385 14.4541C28.7114 14.6917 28.0505 14.8429 27.6789 15.3181C26.9071 16.3131 27.5681 17.7661 28.5141 18.3752C29.8663 19.2479 31.4762 18.1895 32.8341 17.8842C32.5253 19.3958 31.8024 20.7917 30.7461 21.9162C30.7461 21.9162 31.6332 22.3482 32.3633 22.6779C32.7665 22.8637 33.0962 23.4887 33.3137 24.0042C33.6091 24.7386 34.1009 25.3777 34.7349 25.8517C38.0642 28.2421 40.9658 23.9639 40.9658 23.9639" stroke="black" stroke-width="0.67968" stroke-linejoin="round"/>
<path d="M41.4186 16.8187C41.4242 16.8208 41.4303 16.8208 41.4359 16.8187C42.7636 17.0088 44.0898 17.1629 45.4261 17.281C45.7131 17.3229 46.0052 17.3166 46.2901 17.2623C46.4012 17.2348 46.5089 17.1952 46.6113 17.1442C46.7553 17.0808 46.8993 17.0002 47.0433 16.9325C48.0371 16.4264 49.1504 16.2008 50.2631 16.2802C50.6051 16.2908 50.9349 16.4099 51.2049 16.62C51.6369 16.9901 51.5346 17.4163 51.3489 17.772C50.95 18.5698 50.1753 19.2034 50.0629 20.0861C49.9722 20.7658 50.2977 21.4181 50.4604 22.0834C50.6649 22.9379 50.6021 23.8347 50.2804 24.6523C49.8729 25.6747 48.9037 26.5848 47.8036 26.5042C47.1009 26.4495 46.486 26.0103 45.982 25.512C45.3497 24.8794 44.8403 24.1348 44.4801 23.316C44.3116 22.9315 44.1762 22.524 43.9271 22.1842C43.678 21.8444 43.2834 21.578 42.8673 21.6082C42.0292 21.6716 41.6677 22.7847 40.8757 23.0482C40.2133 23.27 39.5077 22.812 39.0815 22.2547C38.6553 21.6975 38.3932 21.0279 37.9007 20.534C37.1389 19.7607 36.5874 20.0775 35.722 20.3669C34.4634 20.7874 32.865 19.0709 32.829 17.8858" stroke="black" stroke-width="0.67968" stroke-linejoin="round"/>
<path d="M46.6076 17.1489C46.658 15.5736 46.3325 13.1241 44.3943 10.5652C41.9621 7.3598 37.2101 6.91629 34.3791 9.77181C33.2412 10.9057 32.3405 12.2548 31.7295 13.7404C30.7604 13.271 29.6703 12.9398 28.6364 12.6432C27.7162 12.3782 26.6434 12.0513 25.6757 12.2112C23.9218 12.4992 28.0762 15.1848 41.4351 16.8264" stroke="black" stroke-width="0.67968" stroke-linejoin="round"/>
</svg>
