<svg width="131" height="85" viewBox="0 0 131 85" fill="none" xmlns="http://www.w3.org/2000/svg">
<path d="M113.74 11.1264C114.812 11.1264 115.68 10.258 115.68 9.18675C115.68 8.11539 114.812 7.24707 113.74 7.24707C112.669 7.24707 111.801 8.11539 111.801 9.18675C111.801 10.258 112.669 11.1264 113.74 11.1264Z" fill="#D7E8F0"/>
<path d="M119.098 11.4631C119.971 11.4631 120.678 10.7557 120.678 9.88339C120.678 9.0109 119.971 8.30371 119.098 8.30371C118.226 8.30371 117.519 9.0109 117.519 9.88339C117.519 10.7557 118.226 11.4631 119.098 11.4631Z" fill="#D7E8F0"/>
<path d="M89.2601 41.1628C89.2601 41.1628 88.9836 40.3694 89.7972 40.2196C90.6108 40.0698 91.626 39.2418 92.0825 41.1628C92.539 43.0838 95.0014 52.4193 94.4988 53.8218C93.9963 55.2244 91.6534 57.5817 91.6188 57.0733C91.5843 56.565 91.2689 50.6207 90.6339 48.239C89.9988 45.8572 89.2601 41.1628 89.2601 41.1628Z" fill="#D7E8F0"/>
<path d="M86.1032 32.0907C86.1911 32.1583 86.5266 33.7539 87.7563 33.918C88.9861 34.0822 89.9639 33.63 89.1402 32.023C88.3165 30.4159 87.7333 28.0932 87.2927 29.2625C87.1582 29.6088 86.9504 29.9219 86.6834 30.1801C86.4164 30.4384 86.0966 30.6357 85.7461 30.7587L86.1032 32.0907Z" fill="#D7E8F0"/>
<path d="M83.8037 22.9598L83.7706 22.9929C83.6266 23.1585 83.5071 23.3615 83.3213 23.4926C82.8173 23.8482 81.7762 23.9159 81.2808 23.7215C81.2607 23.6999 81.2391 23.6783 81.2218 23.6582C81.0101 23.4206 80.7898 23.1844 80.5652 22.9382C74.6612 16.5806 63.4522 8.35529 47.4639 7.81817V6.75977C47.5272 6.75977 47.5949 6.75977 47.6597 6.75977C60.0653 6.75977 73.7122 13.4313 82.7957 21.969C83.0578 22.2138 83.316 22.4605 83.5704 22.7092C83.6439 22.7942 83.7274 22.8748 83.8037 22.9598Z" fill="#D7E8F0"/>
<path d="M42.4858 84.0501C42.1128 83.8182 41.7398 83.572 41.377 83.3301" stroke="black" stroke-width="0.52992" stroke-miterlimit="10"/>
<path d="M129.125 73.9659L115.157 83.7954C115.14 83.7867 115.124 83.7738 115.107 83.7651C114.125 83.1647 113.68 82.1811 112.863 81.4251C112.084 80.7051 111.06 80.1637 109.976 80.1637C108.976 80.1539 108.007 80.5127 107.255 81.1717C106.578 81.7894 106.146 82.6275 105.476 83.2539C104.716 83.9811 103.706 84.3888 102.654 84.393C101.943 84.3935 101.243 84.2141 100.62 83.8714C99.9965 83.5287 99.4702 83.0339 99.0897 82.4331L98.9025 82.1207C98.5217 81.5202 97.9952 81.0258 97.3722 80.6831C96.7492 80.3405 96.0496 80.161 95.3385 80.161C94.6275 80.161 93.9279 80.3405 93.305 80.6831C92.6819 81.0258 92.1554 81.5202 91.7745 82.1207L91.5888 82.4331C91.2092 83.033 90.6843 83.5274 90.0628 83.8704C89.4413 84.2136 88.7433 84.3943 88.0334 84.3959C86.9824 84.3915 85.9731 83.9837 85.2139 83.2568C84.5414 82.6304 84.1137 81.7923 83.4312 81.1746C82.6789 80.5151 81.7099 80.1561 80.7096 80.1666C79.631 80.1666 78.6057 80.7037 77.8296 81.428C77.0131 82.1855 76.5696 83.1675 75.5875 83.768C74.931 84.1801 74.1717 84.3986 73.3965 84.3986C72.6214 84.3986 71.8621 84.1801 71.2056 83.768C70.2235 83.1675 69.7785 82.184 68.9621 81.428C68.183 80.708 67.1592 80.1666 66.0821 80.1666C65.0818 80.1571 64.1131 80.5159 63.3605 81.1746C62.6837 81.7923 62.2517 82.6304 61.5835 83.2568C60.8227 83.9839 59.812 84.3915 58.7597 84.3959C58.0484 84.3964 57.3487 84.217 56.7257 83.8743C56.1024 83.5316 55.5761 83.0368 55.1957 82.436L55.0099 82.1235C54.6289 81.5232 54.1023 81.0287 53.4792 80.6861C52.8559 80.3435 52.1564 80.164 51.4452 80.164C50.7341 80.164 50.0344 80.3435 49.4113 80.6861C48.7881 81.0287 48.2615 81.5232 47.8805 82.1235L47.6947 82.436C46.799 83.9437 44.8781 84.6421 43.1961 84.2591C41.1369 83.7867 40.6027 81.7376 38.9381 80.7627C38.4729 80.492 37.9416 80.3567 37.4491 80.1392C35.9054 79.4667 34.8801 78.044 33.6605 76.9439L37.2345 80.1709C36.8961 79.8656 36.683 78.8749 36.4497 78.4429C36.0991 77.8018 35.6949 77.1915 35.2416 76.6184C34.3329 75.4664 33.3609 74.3922 32.4509 73.2359C30.383 70.6093 28.2864 68.0058 26.2214 65.3763C24.8261 63.5994 23.4451 61.8109 22.0973 59.9965C21.1267 58.6875 18.9293 56.372 20.3693 54.6771C20.674 54.349 21.0885 54.144 21.5342 54.1011C23.4811 53.8391 25.7592 54.477 27.6945 54.7131C32.1859 55.2647 36.6729 55.845 41.1629 56.4037C47.1705 57.1467 53.1854 57.8869 59.183 58.7639L60.1997 58.9179L60.5553 58.9727C60.7339 59.0029 60.8693 59.0288 60.9571 59.0403L61.068 59.0576C61.0752 59.0586 61.0824 59.0586 61.0896 59.0576L128.209 69.9742C128.643 70.0452 129.046 70.2437 129.366 70.5444C129.686 70.845 129.91 71.2342 130.008 71.6625C130.106 72.0906 130.075 72.5385 129.918 72.9487C129.76 73.359 129.485 73.7131 129.125 73.9659Z" fill="#3FBDF1"/>
<path d="M115.166 83.7968L129.125 73.9673C129.485 73.7149 129.761 73.3608 129.919 72.9504C130.077 72.54 130.109 72.0919 130.01 71.6633C129.912 71.2348 129.688 70.8453 129.367 70.5447C129.046 70.2441 128.643 70.0459 128.209 69.9757L19.2962 52.2637C17.3277 51.9469 15.9727 54.1861 17.1751 55.7816L30.0012 72.8283C32.1391 75.5192 34.5464 77.9848 37.1853 80.1867" stroke="black" stroke-width="0.52992" stroke-miterlimit="10"/>
<path d="M121.539 80.1653C121.542 80.9168 121.344 81.6555 120.966 82.3048C120.587 82.9541 120.042 83.4902 119.386 83.8576C118.731 84.2249 117.989 84.4101 117.237 84.3938C116.486 84.3775 115.753 84.1605 115.113 83.7653C114.131 83.1633 113.688 82.1813 112.87 81.4224C112.091 80.7024 111.07 80.1624 109.99 80.1624C108.99 80.1529 108.021 80.5117 107.268 81.1704C106.59 81.7896 106.158 82.6262 105.488 83.2526C104.728 83.9789 103.718 84.3862 102.666 84.3902C101.955 84.3904 101.255 84.2108 100.632 83.8681C100.009 83.5255 99.4827 83.0309 99.102 82.4304L98.9162 82.1179C98.5353 81.5174 98.0089 81.0231 97.3859 80.6803C96.7628 80.3378 96.0633 80.1582 95.3522 80.1582C94.6411 80.1582 93.9417 80.3378 93.3187 80.6803C92.6956 81.0231 92.1691 81.5174 91.7882 82.1179L91.601 82.4304C91.221 83.0332 90.6944 83.5297 90.0703 83.8737C89.4463 84.2177 88.7452 84.3978 88.0327 84.3974C86.9815 84.3929 85.9719 83.9859 85.2117 83.2598C84.5407 82.6334 84.1101 81.7968 83.4319 81.1776C82.6792 80.5189 81.7105 80.1601 80.7103 80.1696C79.6274 80.1696 78.605 80.7053 77.8303 81.4296C77.0124 82.1885 76.5689 83.1705 75.5868 83.7725C74.9294 84.1836 74.1697 84.4016 73.3944 84.4016C72.6191 84.4016 71.8593 84.1836 71.202 83.7725C70.2199 83.1705 69.7764 82.1885 68.9599 81.4296C68.1809 80.7096 67.1585 80.1696 66.0799 80.1696C65.0797 80.1601 64.111 80.5189 63.3583 81.1776C62.6801 81.7968 62.2495 82.6334 61.5785 83.2598C60.8183 83.9859 59.8087 84.3929 58.7575 84.3974C58.0464 84.398 57.3466 84.2186 56.7235 83.8758C56.1003 83.5331 55.5739 83.0383 55.1935 82.4376L55.0063 82.1251C54.6254 81.5246 54.099 81.0303 53.476 80.6875C52.8529 80.345 52.1534 80.1654 51.4423 80.1654C50.7312 80.1654 50.0317 80.345 49.4087 80.6875C48.7856 81.0303 48.2592 81.5246 47.8783 82.1251L47.6925 82.4376C47.3118 83.0381 46.7853 83.5327 46.1623 83.8753C45.5392 84.218 44.8396 84.3976 44.1285 84.3974C43.0769 84.3934 42.0667 83.9862 41.3061 83.2598C40.6365 82.6334 40.2045 81.7968 39.5263 81.1776C38.7736 80.5189 37.8049 80.1601 36.8047 80.1696C35.7218 80.1696 34.7009 80.7053 33.9247 81.4296C33.1068 82.1885 32.6633 83.1705 31.6812 83.7725C31.042 84.1677 30.3087 84.3847 29.5573 84.401C28.8059 84.4173 28.064 84.2321 27.4083 83.8648C26.7526 83.4974 26.2073 82.9613 25.8289 82.312C25.4503 81.6627 25.2526 80.924 25.2559 80.1725" stroke="black" stroke-width="0.52992" stroke-miterlimit="10"/>
<path d="M91.8662 40.2988C92.9707 44.5828 93.7541 48.9763 94.6296 53.2588" stroke="black" stroke-width="0.52992" stroke-linecap="round" stroke-linejoin="round"/>
<path d="M1.20117 84.3965V53.0131C1.20117 27.4719 21.9084 6.76465 47.4497 6.76465C59.8567 6.76465 73.5036 13.4362 82.5856 21.9739C82.8477 22.2187 83.1059 22.4654 83.3604 22.7141C83.4396 22.7947 83.5245 22.8754 83.6008 22.9603" stroke="black" stroke-width="0.52992" stroke-linecap="round" stroke-linejoin="round"/>
<path d="M87.1084 27.8096C87.8602 29.1779 88.5385 30.5853 89.1402 32.0257C89.182 32.1323 89.2295 32.2331 89.2713 32.3397C89.4153 32.6867 89.5593 33.0339 89.686 33.3852" stroke="black" stroke-width="0.52992" stroke-linecap="round" stroke-linejoin="round"/>
<path d="M111.255 19.4102C111.255 19.4102 109.425 22.8086 113.798 23.0908C118.171 23.373 121.024 19.894 121.024 19.894" stroke="black" stroke-width="0.52992" stroke-linecap="round" stroke-linejoin="round"/>
<path d="M102.991 48.0754C103.647 48.3548 104.315 48.6298 104.997 48.8876C103.347 48.4811 101.623 48.4886 99.9767 48.9092C99.6973 48.9855 97.4048 49.9518 97.0967 49.9057C97.1413 48.8977 97.5445 45.3164 97.8167 44.7217C98.996 45.2862 102.076 47.6852 102.991 48.0754Z" fill="#2E2E2E"/>
<path d="M129.861 37.1305L128.51 40.8097C128.51 40.8097 125.175 33.1777 117.71 36.2017C117.71 36.2017 116.535 40.719 110.344 39.4993C103.962 38.2436 100.296 36.6697 100.452 35.8115C100.62 34.8884 101.471 33.1561 101.668 33.2872C102.044 32.2411 102.523 31.235 103.097 30.2833C103.349 29.8671 103.365 30.2833 103.378 29.9953C103.576 25.7055 99.7402 24.8113 99.7402 24.8113C102.983 21.7513 107.051 19.8923 111.204 19.1953C111.204 19.1953 109.845 22.0537 112.13 22.7305C114.415 23.4073 117.007 23.547 121.612 19.7468C121.615 19.7555 134.293 22.3244 129.861 37.1305Z" fill="#2E2E2E"/>
<path d="M126.805 43.8447C126.453 45.6577 122.881 63.0414 114.225 66.6399C115.829 58.9647 110.013 52.7007 110.013 52.7007C108.979 51.0116 107.689 49.9834 106.377 49.3887C111.993 51.2809 118.152 51.8871 123.13 47.8739C124.547 46.7193 125.785 45.3615 126.805 43.8447Z" fill="#2E2E2E"/>
<path d="M111.325 54.6861C109.928 52.3821 108.189 49.8895 105.009 48.9708C101.594 47.9801 97.6912 48.87 95.9042 51.4188C94.4483 53.501 93.0976 55.6394 91.6591 57.7389C91.24 58.3567 90.808 58.9745 90.3631 59.5836C89.8043 60.3626 89.2413 61.1373 88.6826 61.9121C88.3312 62.3988 87.9842 62.8855 87.6328 63.3679" stroke="black" stroke-width="0.52992" stroke-miterlimit="10"/>
<path d="M96.8731 50.3626C95.8736 49.8026 94.8339 49.3175 93.7627 48.9111" stroke="black" stroke-width="0.52992" stroke-miterlimit="10"/>
<path d="M64.5615 59.6259C66.7964 57.9454 69.0356 56.265 71.233 54.5298C74.9655 51.5878 78.6102 48.391 83.5162 47.6682C85.8823 47.3318 88.29 47.4323 90.6198 47.9648" stroke="black" stroke-width="0.52992" stroke-miterlimit="10"/>
<path d="M126.835 43.6729C126.835 43.6729 122.603 66.9908 111.204 67.2802" stroke="black" stroke-width="0.52992" stroke-miterlimit="10"/>
<path d="M107.013 63.6299L105.262 66.2449" stroke="black" stroke-width="0.52992" stroke-miterlimit="10"/>
<path d="M80.2942 62.1871C80.2423 62.1784 81.1222 61.6701 82.1906 61.0668C83.2197 60.485 84.41 60.2537 85.582 60.4078C86.754 60.5619 87.8441 61.0928 88.6879 61.9207" stroke="black" stroke-width="0.52992" stroke-miterlimit="10"/>
<path d="M85.585 30.8203C85.8514 31.4222 86.3496 32.4864 86.6218 33.1517" stroke="black" stroke-width="0.52992" stroke-linecap="round" stroke-linejoin="round"/>
<path d="M91.6589 57.746C91.3335 51.6245 90.193 44.3064 89.041 40.332" stroke="black" stroke-width="0.52992" stroke-linecap="round" stroke-linejoin="round"/>
<path d="M100.231 35.8177C101.164 33.6908 102.283 31.6506 103.575 29.7207" stroke="black" stroke-width="0.52992" stroke-linecap="round" stroke-linejoin="round"/>
<path d="M97.7099 44.4746C97.2951 46.6346 96.9683 48.5412 96.7695 50.0748" stroke="black" stroke-width="0.52992" stroke-linecap="round" stroke-linejoin="round"/>
<path d="M113.01 18.9727C112.405 19.0274 111.802 19.1047 111.202 19.2045C107.049 19.9029 102.981 21.7619 99.7385 24.8205C98.9404 25.5716 98.2039 26.3859 97.5368 27.2555C96.7621 28.2549 96.0421 30.029 94.6496 30.2608C93.1002 30.5157 91.843 28.9835 90.9805 27.9251C89.5995 26.2317 88.207 24.5512 86.8995 22.7987C86.3062 22.0024 85.7475 21.0088 84.6978 20.7669C83.851 20.5725 82.8949 21.1816 82.2354 21.6467" stroke="black" stroke-width="0.52992" stroke-linecap="round" stroke-linejoin="round"/>
<path d="M86.5095 28.4248C87.0581 28.2391 87.182 28.8928 87.182 28.8928C87.2144 29.161 87.1745 29.4328 87.0664 29.6802C86.9582 29.9276 86.7858 30.1415 86.5671 30.2997C85.8399 30.8757 84.8492 31.0787 83.9391 31.0471C83.5071 31.0327 82.9498 30.9419 82.6777 30.5747C82.4055 30.2075 82.3897 29.6978 82.4703 29.2499" stroke="black" stroke-width="0.52992" stroke-linecap="round" stroke-linejoin="round"/>
<path d="M80.0137 22.6491C79.732 22.8096 79.4865 23.0262 79.2919 23.2856C79.0975 23.5449 78.9584 23.8414 78.8833 24.1568C78.8124 24.4174 78.8399 24.6949 78.9604 24.9365C79.081 25.1782 79.2862 25.3671 79.537 25.4672C80.8176 26.0603 82.2706 26.1663 83.6237 25.7652C84.3437 25.5507 84.8031 25.0928 85.2985 24.5657C85.4059 24.4502 85.4891 24.3144 85.5431 24.1661C85.5971 24.0179 85.6207 23.8604 85.6128 23.7029C85.6047 23.5453 85.565 23.391 85.4962 23.2491C85.4273 23.1072 85.3307 22.9804 85.2121 22.8766C85.0706 22.7559 84.903 22.6698 84.7226 22.625C84.5422 22.5802 84.3538 22.5782 84.1724 22.6188C84.0343 22.6531 83.9045 22.7148 83.7908 22.8003C83.7088 22.8553 83.6334 22.9195 83.5661 22.9918C83.4367 23.1751 83.2865 23.3429 83.1183 23.4915C82.4933 23.935 81.0202 23.9307 80.8287 23.5304" stroke="black" stroke-width="0.52992" stroke-linecap="round" stroke-linejoin="round"/>
<path d="M85.6014 23.9004C85.9766 24.0247 86.2941 24.2804 86.4957 24.6204C87.0976 25.7393 85.8174 26.8308 84.9016 27.1822C83.8317 27.5911 82.6739 27.5868 81.5507 27.4702C81.0237 27.4169 80.3858 27.427 79.9941 27.0108C79.8409 26.851 79.7311 26.6545 79.6755 26.4403C79.6198 26.226 79.6198 26.0011 79.6758 25.7868C79.6964 25.7116 79.727 25.6395 79.7666 25.5722" stroke="black" stroke-width="0.52992" stroke-linecap="round" stroke-linejoin="round"/>
<path d="M86.5457 25.7178C86.5457 25.7178 87.4442 26.1138 87.355 27.0656C87.2513 28.1701 86.203 28.7331 85.2367 28.9967C84.369 29.2203 83.4717 29.3077 82.577 29.2559C82.3404 29.2511 82.1051 29.2191 81.8758 29.1608C81.1745 28.9635 80.6086 28.2104 80.7814 27.4703C80.7814 27.4458 80.7943 27.4199 80.8015 27.3954" stroke="black" stroke-width="0.52992" stroke-linecap="round" stroke-linejoin="round"/>
<path d="M88.707 31.0332C89.4384 30.786 90.2156 30.7043 90.9822 30.7942C91.7899 30.8648 92.5707 31.1195 93.2646 31.5385C93.9846 32.0094 94.6341 32.6374 95.3411 33.1385C96.843 34.2084 98.4342 35.0955 100.063 35.9523C103.738 37.8833 109.855 39.6054 111.815 39.5406L112.065 39.5292C113.505 39.4486 114.945 39.0468 116.089 38.1555C116.956 37.4703 117.623 36.5639 118.018 35.5318C118.339 34.7339 118.498 33.8801 118.485 33.0204C118.478 32.7483 118.485 32.191 118.228 32.0124" stroke="black" stroke-width="0.52992" stroke-linecap="round" stroke-linejoin="round"/>
<path d="M89.2715 32.3398C90.0333 32.3398 89.9916 33.2875 89.4487 33.5971C89.3595 33.6465 89.2661 33.6874 89.1693 33.7194L89.0771 33.7453" stroke="black" stroke-width="0.52992" stroke-linecap="round" stroke-linejoin="round"/>
<path d="M121.01 19.7559C121.484 19.8826 121.957 20.0266 122.431 20.1879L122.592 20.2397C124.95 21.0346 127.388 22.2715 128.849 24.3667C130.329 26.4994 130.842 29.1375 130.721 31.7021C130.442 37.7386 127.902 43.9983 123.127 47.8546C120.337 50.1053 116.838 51.0082 113.293 50.8123C111.54 50.6981 109.805 50.395 108.117 49.908C106.307 49.404 104.486 48.8021 102.801 47.964C102.265 47.6976 101.74 47.4082 101.23 47.1C99.5149 46.0503 97.9683 44.7557 96.4779 43.4079C95.7781 42.7714 95.061 42.1407 94.3827 41.484C93.8067 40.9296 93.2077 40.3421 92.4344 40.0858C92.1321 39.9867 91.8146 39.9428 91.497 39.9562C90.5106 40.0023 89.5746 40.4011 88.5766 40.2701C85.7355 39.9015 84.7376 37.2259 84.3474 34.729C84.2422 34.0479 84.2034 33.1119 84.9147 32.7303C85.0413 32.6604 85.1738 32.6021 85.3107 32.556C85.5413 32.4857 85.7889 32.4958 86.013 32.5845C86.2372 32.6732 86.4246 32.8352 86.5448 33.0442C86.7275 33.3917 87.0232 33.6667 87.3832 33.8237C87.743 33.9808 88.1456 34.0106 88.5248 33.9082L89.0677 33.7642L89.1598 33.7383" stroke="black" stroke-width="0.52992" stroke-linecap="round" stroke-linejoin="round"/>
<path d="M81.0776 23.7306L81.0142 23.6586C80.8026 23.421 80.5822 23.1848 80.3576 22.9386C74.4536 16.581 63.2432 8.3557 47.2549 7.81858V6.75586" stroke="black" stroke-width="0.52992" stroke-miterlimit="10"/>
<path d="M122.35 7.15972V7.14676C122.203 6.27541 121.779 5.47477 121.14 4.86436C120.152 3.95716 118.745 3.67924 117.481 3.65188C116.978 3.64266 116.479 3.73612 116.014 3.92663C115.549 4.117 115.127 4.40025 114.775 4.75924C114.224 4.09396 114.575 3.22276 114.575 3.22276C115.007 2.2378 115.727 1.86628 116.591 1.86916C118.791 1.87636 121.847 4.3546 122.897 5.2762C123.051 5.41012 123.16 5.51236 123.219 5.5642C123.847 6.1618 122.983 9.48244 122.35 7.15972Z" fill="#3FBDF1"/>
<path d="M116.587 1.86966C117.385 1.22166 118.82 0.513187 120.715 1.45783C122.849 2.52343 122.991 4.32774 122.893 5.2767L116.587 1.86966Z" fill="#3FBDF1"/>
<path d="M117.958 16.48C117.958 16.48 112.486 18.0842 112.989 11.2816C113.112 9.8265 113.343 8.38247 113.681 6.96162C113.717 6.81762 113.75 6.67362 113.786 6.51954C113.945 5.85729 114.282 5.2509 114.76 4.76562" stroke="black" stroke-width="0.52992" stroke-linecap="round" stroke-linejoin="round"/>
<path d="M122.334 7.14746V7.16042C122.698 9.00506 122.131 10.9275 122.092 11.0484" stroke="black" stroke-width="0.52992" stroke-linecap="round" stroke-linejoin="round"/>
<path d="M122.092 11.0667C122.668 10.3078 123.888 11.0105 123.482 11.8731C123.059 12.7731 121.754 13.6342 121.754 13.6342L120.94 20.0537" stroke="black" stroke-width="0.52992" stroke-linecap="round" stroke-linejoin="round"/>
<path d="M122.334 7.14687C121.693 4.84287 118.672 5.80479 116.24 5.45055C115.467 5.33823 115.015 5.07183 114.76 4.75935C115.112 4.4005 115.533 4.11711 115.998 3.92674C116.464 3.73637 116.963 3.64277 117.466 3.65199C118.73 3.67935 120.137 3.95727 121.125 4.86447C121.763 5.47489 122.188 6.27553 122.334 7.14687Z" fill="black"/>
<path d="M122.337 7.15972V7.14676C122.191 6.27541 121.766 5.47477 121.127 4.86436C120.14 3.95716 118.733 3.67924 117.468 3.65188C116.966 3.64266 116.467 3.73612 116.001 3.92663C115.536 4.117 115.115 4.40025 114.763 4.75924C114.211 4.09396 114.562 3.22276 114.562 3.22276C114.994 2.2378 115.714 1.86628 116.578 1.86916C118.779 1.87636 121.834 4.3546 122.884 5.2762C123.038 5.41012 123.148 5.51236 123.207 5.5642C123.835 6.1618 122.971 9.48244 122.337 7.15972Z" stroke="black" stroke-width="0.52992" stroke-linecap="round" stroke-linejoin="round"/>
<path d="M116.574 1.86966C117.372 1.22166 118.808 0.513187 120.703 1.45783C122.837 2.52343 122.978 4.32774 122.88 5.2767" stroke="black" stroke-width="0.52992" stroke-linecap="round" stroke-linejoin="round"/>
<path d="M119.098 12.1106C120.328 12.1106 121.325 11.1131 121.325 9.88295C121.325 8.65262 120.328 7.65527 119.098 7.65527C117.867 7.65527 116.87 8.65262 116.87 9.88295C116.87 11.1131 117.867 12.1106 119.098 12.1106Z" stroke="black" stroke-width="0.52992" stroke-linecap="round" stroke-linejoin="round"/>
<path d="M113.74 11.1264C114.812 11.1264 115.68 10.258 115.68 9.18675C115.68 8.11539 114.812 7.24707 113.74 7.24707C112.669 7.24707 111.801 8.11539 111.801 9.18675C111.801 10.258 112.669 11.1264 113.74 11.1264Z" stroke="white" stroke-width="0.52992" stroke-linecap="round" stroke-linejoin="round"/>
<path d="M113.74 11.4143C114.971 11.4143 115.968 10.417 115.968 9.18666C115.968 7.95633 114.971 6.95898 113.74 6.95898C112.51 6.95898 111.513 7.95633 111.513 9.18666C111.513 10.417 112.51 11.4143 113.74 11.4143Z" stroke="black" stroke-width="0.52992" stroke-linecap="round" stroke-linejoin="round"/>
<path d="M116.905 9.49884L115.959 9.375L115.388 12.0016L116.373 12.0116" stroke="black" stroke-width="0.52992" stroke-linecap="round" stroke-linejoin="round"/>
<path d="M123.002 7.89941C123.234 8.84247 123.192 9.83204 122.881 10.7521C122.881 10.7521 122.047 11.2359 122.296 10.3071C122.546 9.37829 122.44 7.93109 122.44 7.93109L123.002 7.89941Z" fill="black"/>
<path d="M114.226 16.2627L112.806 20.4747" stroke="black" stroke-width="0.52992" stroke-linecap="round" stroke-linejoin="round"/>
<path d="M119.226 12.8964C119.488 12.6213 119.788 13.8885 119.802 14.021C119.821 14.4112 119.58 14.5437 119.226 14.6272C118.248 14.8434 117.224 14.6769 116.365 14.1621C116.221 14.0757 115.933 13.9202 115.926 13.7301C116.942 13.792 118.338 13.6941 119.134 12.9928C119.163 12.9583 119.196 12.928 119.226 12.8964Z" stroke="black" stroke-width="0.52992" stroke-miterlimit="10"/>
<path d="M118.243 9.78376C118.425 9.75899 118.61 9.77181 118.786 9.82134C118.963 9.87088 119.127 9.95612 119.27 10.0718" stroke="black" stroke-width="0.52992" stroke-linecap="round" stroke-linejoin="round"/>
<path d="M114.171 9.19489C114.353 9.17012 114.538 9.18294 114.714 9.23248C114.891 9.28201 115.055 9.36726 115.198 9.48289" stroke="black" stroke-width="0.52992" stroke-linecap="round" stroke-linejoin="round"/>
<path d="M106.377 49.3807C105.91 49.2252 105.454 49.0596 104.996 48.8896C105.47 49.0128 105.932 49.1771 106.377 49.3807Z" fill="#2E2E2E"/>
<path d="M60.1992 58.918L60.5549 58.9727C60.4541 58.9597 60.3303 58.9396 60.1992 58.918Z" fill="#3FBDF1"/>
</svg>
