<svg width="330" height="245" viewBox="0 0 330 245" fill="none" xmlns="http://www.w3.org/2000/svg">
<path d="M75.8169 159.575C88.0076 156.17 99.5277 145.263 99.6552 132.112C99.8812 108.529 87.1511 87.1682 90.5696 63.5343C92.9859 46.7261 100.577 27.3308 113.347 14.6662C120.593 7.47884 129.503 2.45465 140.094 1.31461C163.677 -1.24317 189.046 12.0463 201.561 32.0298C206.299 39.6191 209.021 48.2608 209.021 57.0449V57.1655C209.011 60.9247 208.498 64.6656 207.494 68.2881C207.181 69.4172 206.827 70.5609 206.474 71.7156C206.45 71.7707 206.432 71.8281 206.419 71.8873C206.31 72.2198 206.204 72.5669 206.095 72.8994C204.273 78.775 202.45 84.7456 204.273 90.4677C204.371 90.7819 204.488 91.0926 204.604 91.3958C206.295 95.6637 209.907 99.0253 213.949 101.236C220.428 104.78 227.59 106.56 234.769 108.274C243.855 110.44 252.959 112.53 260.74 117.986C273.564 126.975 280.784 141.985 282.563 157.324C284.341 172.664 281.724 188.635 276.542 203.302" stroke="#CCDDE2" stroke-width="1.71889" stroke-miterlimit="10"/>
<path d="M18.1289 243.981C1.7544 224.378 0.901601 192.354 22.9177 176.781" stroke="#CCDDE2" stroke-width="1.71889" stroke-miterlimit="10"/>
<path d="M171.571 6.62305V34.627" stroke="#CCDDE2" stroke-width="1.71889" stroke-miterlimit="10"/>
<path d="M171.571 45.3301V50.727" stroke="#CCDDE2" stroke-width="1.71889" stroke-miterlimit="10"/>
<path d="M207.494 68.3018C205.46 75.6097 201.969 83.2502 204.28 90.4814C204.374 90.7956 204.495 91.1062 204.611 91.4095H122.568C120.122 91.4095 117.777 90.4354 116.048 88.7015C114.319 86.9681 113.347 84.6168 113.347 82.165V14.6799C120.592 7.49251 129.503 2.46832 140.094 1.32828C163.677 -1.22949 189.046 12.06 201.561 32.0435C208.343 42.8666 210.956 55.8637 207.494 68.3018Z" stroke="#CCDDE2" stroke-width="1.71889" stroke-miterlimit="10"/>
<g opacity="0.67">
<path opacity="0.67" d="M86.1818 119.224C86.1818 119.246 86.1818 119.268 86.1599 119.29C86.0105 119.871 85.8611 120.456 85.7299 121.037C85.6862 121.219 85.6461 121.402 85.6133 121.563C85.4711 122.169 85.3436 122.772 85.2488 123.39C85.2466 123.395 85.2452 123.401 85.2452 123.406C85.2452 123.412 85.2466 123.418 85.2488 123.423C85.1395 124.004 85.0447 124.574 84.9573 125.158C84.9135 125.385 84.8807 125.611 84.8589 125.834C84.7641 126.419 84.6985 126.989 84.6329 127.57C84.2685 130.88 85.1395 134.578 84.1847 137.801C83.5505 139.902 81.8194 141.66 79.9061 143.373C79.6145 143.629 79.312 143.889 79.0241 144.159L78.1203 144.945C77.6793 145.343 77.2383 145.741 76.8192 146.143C76.6807 146.271 76.5386 146.399 76.4111 146.541C76.2835 146.684 76.1414 146.812 76.0029 146.951C74.7018 148.31 73.6704 149.753 73.357 151.412C73.2426 152.023 73.2276 152.649 73.3133 153.265C73.3246 153.397 73.3464 153.527 73.3789 153.656C73.3942 153.787 73.4197 153.916 73.4554 154.043C73.4773 154.127 73.4991 154.215 73.5174 154.299C73.6048 154.624 73.7032 154.946 73.8199 155.271C74.1759 156.178 74.5775 157.067 75.0225 157.934C75.11 158.106 75.1974 158.267 75.2703 158.439C75.7004 159.279 76.1195 160.131 76.4548 160.996C76.5277 161.19 76.5933 161.384 76.6698 161.581C76.7463 161.778 76.7646 161.903 76.8192 162.063L76.8848 162.323C76.9359 162.528 76.9796 162.732 77.0233 162.937C77.0671 163.141 77.078 163.273 77.0998 163.434C77.0998 163.478 77.0998 163.529 77.0998 163.583C77.1618 164.148 77.1359 164.719 77.0233 165.275C76.7208 166.872 75.7551 168.228 74.4722 169.51C73.3716 170.56 72.2043 171.536 70.9772 172.433C70.354 172.908 69.7308 173.38 69.1295 173.866C68.5281 174.352 67.9487 174.838 67.3983 175.327C67.2708 175.459 67.1287 175.587 67.0011 175.715C66.3717 176.322 65.813 176.998 65.3356 177.732C62.9703 181.408 64.0783 185.621 62.8501 189.545C62.6748 190.113 62.4492 190.665 62.1759 191.193C62.0851 191.387 61.9801 191.574 61.8624 191.752C61.7771 191.93 61.6758 192.1 61.5599 192.26C61.4171 192.503 61.2604 192.737 61.0898 192.961C60.9258 193.188 60.7545 193.414 60.5723 193.63C60.459 193.781 60.3372 193.925 60.2079 194.061C60.0876 194.211 59.96 194.35 59.8215 194.492C59.7818 194.536 59.7381 194.575 59.6903 194.609C59.5081 194.814 59.315 195.008 59.1109 195.19C58.7683 195.515 58.382 195.837 58.0175 196.14C57.8353 196.29 57.6531 196.433 57.449 196.583C57.3943 196.627 57.3397 196.659 57.2777 196.71C57.2158 196.762 57.1684 196.787 57.1028 196.831C56.9534 196.937 56.8039 197.047 56.6436 197.142C56.578 197.196 56.5015 197.24 56.4395 197.284L56.137 197.478C56.0277 197.551 55.9111 197.617 55.7944 197.682C55.5575 197.832 55.3097 197.982 55.0655 198.124C54.8833 198.219 54.7011 198.329 54.497 198.424C54.3224 198.528 54.1424 198.622 53.9576 198.705C53.7973 198.793 53.6369 198.866 53.4656 198.943C53.2178 199.06 52.9809 199.169 52.7367 199.275C52.4926 199.381 52.2302 199.491 51.986 199.59L51.3701 199.816C51.1769 199.9 50.9838 199.966 50.7906 200.032L50.6849 200.065C50.3205 200.193 49.9305 200.31 49.5551 200.43C49.4487 200.465 49.3405 200.493 49.2308 200.514C49.1251 200.558 49.0048 200.58 48.8991 200.613C48.6732 200.43 48.4363 200.247 48.1994 200.032C48.1728 200.013 48.1484 199.991 48.1265 199.966C48.1265 199.966 48.1047 199.966 48.1047 199.944C48.1047 199.922 48.0828 199.944 48.0719 199.922C47.9516 199.816 47.8459 199.707 47.7074 199.601C47.2701 199.191 46.8182 198.727 46.3663 198.219L46.0966 197.92C46.0638 197.887 46.031 197.843 45.9982 197.81C45.9563 197.753 45.91 197.699 45.8597 197.649C45.4734 197.207 45.098 196.732 44.7299 196.246C44.5695 196.064 44.4311 195.881 44.2999 195.687C44.224 195.6 44.1559 195.505 44.0958 195.406C43.9354 195.19 43.786 194.975 43.6366 194.759C43.571 194.675 43.5163 194.598 43.4616 194.514L43.2065 194.149C43.1847 194.127 43.1737 194.094 43.1519 194.076L42.5469 193.228C44.2102 190.45 45.5634 187.497 46.5813 184.422C46.6542 184.196 46.7088 183.969 46.7635 183.742C46.8645 183.302 46.9362 182.855 46.9785 182.405V182.35C47.051 181.361 47.0106 180.367 46.8583 179.387C46.7183 178.466 46.5321 177.553 46.3007 176.65C46.1804 176.186 46.0638 175.733 45.9362 175.273L45.5718 173.891C45.2689 172.757 45.0349 171.605 44.872 170.442C44.8538 170.303 44.8429 170.161 44.8319 170.022L44.7991 169.711C44.7991 169.558 44.7773 169.408 44.7663 169.247C44.7554 169.086 44.7663 168.977 44.7663 168.849V168.794C44.7663 168.469 44.7445 168.147 44.7445 167.833C44.7445 167.519 44.7445 167.208 44.7663 166.898C44.7663 166.755 44.7663 166.605 44.7882 166.466C44.7882 166.218 44.8101 165.97 44.8319 165.736C44.8538 165.502 44.8647 165.239 44.883 165.005C44.9012 164.771 44.9267 164.508 44.9595 164.274C44.9923 164.04 45.0142 163.777 45.036 163.543C45.1199 162.813 45.2073 162.056 45.2948 161.311C45.2948 161.267 45.2948 161.212 45.2948 161.172C45.3458 160.73 45.4005 160.277 45.4442 159.835V159.813C45.4879 159.36 45.528 158.917 45.5608 158.464C45.5561 158.429 45.5561 158.394 45.5608 158.358C45.5947 157.949 45.6166 157.54 45.6264 157.131C45.6264 157.054 45.6264 156.977 45.6264 156.904V156.849C45.6264 156.568 45.6264 156.297 45.6264 156.02C46.1512 155.578 46.6906 155.168 47.2482 154.759C48.7155 153.704 50.1164 152.56 51.443 151.332C51.6981 151.094 51.924 150.846 52.15 150.601C54.1399 148.361 55.0437 145.891 55.6013 143.326C56.4723 139.391 56.5379 135.265 58.495 131.502C58.6553 131.191 58.8266 130.888 59.0198 130.588C59.2366 130.229 59.4739 129.883 59.7304 129.55C60.2188 128.907 60.7494 128.296 61.3194 127.723C62.3468 126.712 63.4671 125.799 64.665 124.998C65.4158 124.49 66.2212 124.015 67.0485 123.562C67.8758 123.109 68.7468 122.699 69.6397 122.323C70.5326 121.947 71.4801 121.592 72.435 121.267C72.7593 121.161 73.08 121.051 73.4044 120.956C73.4044 120.956 73.4044 120.956 73.4263 120.956C74.392 120.675 75.3906 120.416 76.4038 120.189C76.7354 120.127 77.078 120.05 77.4242 119.984C80.3066 119.409 83.2437 119.154 86.1818 119.224Z" fill="#3FBDF1"/>
<path opacity="0.67" d="M86.1818 119.224C86.1818 119.246 86.1818 119.268 86.1599 119.29C86.0105 119.871 85.8611 120.456 85.7299 121.037C85.6862 121.219 85.6461 121.402 85.6133 121.563C85.4711 122.169 85.3436 122.772 85.2488 123.39C85.2466 123.395 85.2452 123.401 85.2452 123.406C85.2452 123.412 85.2466 123.418 85.2488 123.423C85.1395 124.004 85.0447 124.574 84.9573 125.158C84.9135 125.385 84.8807 125.611 84.8589 125.834C84.7751 126.419 84.6985 126.989 84.6329 127.57C84.2685 130.88 85.1395 134.578 84.1847 137.801C83.5505 139.902 81.8194 141.66 79.9061 143.373C79.6145 143.629 79.312 143.889 79.0241 144.159L78.1203 144.945C77.6793 145.343 77.2383 145.741 76.8192 146.143C76.6807 146.271 76.5386 146.399 76.4111 146.541C76.2835 146.684 76.1414 146.812 76.0029 146.951C74.7018 148.31 73.6704 149.753 73.357 151.412C73.2426 152.023 73.2276 152.649 73.3133 153.265C73.3246 153.397 73.3464 153.527 73.3789 153.656C73.3942 153.787 73.4197 153.916 73.4554 154.043C73.4773 154.127 73.4991 154.215 73.5174 154.299C73.6048 154.624 73.7032 154.946 73.8199 155.271C74.1759 156.178 74.5775 157.067 75.0225 157.934C75.11 158.106 75.1974 158.267 75.2703 158.439C75.7004 159.279 76.1195 160.131 76.4548 160.996C76.5277 161.19 76.5933 161.384 76.6698 161.581C76.7463 161.778 76.7646 161.903 76.8192 162.063L76.8848 162.323C76.9359 162.528 76.9796 162.732 77.0233 162.937C77.0671 163.141 77.078 163.273 77.0998 163.434C77.0998 163.478 77.0998 163.529 77.0998 163.583C77.1618 164.148 77.1359 164.719 77.0233 165.275C76.7208 166.872 75.7551 168.228 74.4722 169.51C73.3716 170.56 72.2043 171.536 70.9772 172.433C70.354 172.908 69.7308 173.38 69.1295 173.866C68.5281 174.352 67.9487 174.838 67.3983 175.327C67.2708 175.459 67.1287 175.587 67.0011 175.715C66.3717 176.322 65.813 176.998 65.3356 177.732C62.9703 181.408 64.0783 185.621 62.8501 189.545C62.6748 190.113 62.4492 190.665 62.1759 191.193C62.0851 191.387 61.9801 191.574 61.8624 191.752C61.7771 191.93 61.6758 192.1 61.5599 192.26C61.4171 192.503 61.2604 192.737 61.0898 192.961C60.9258 193.188 60.7545 193.414 60.5723 193.63C60.459 193.781 60.3372 193.925 60.2079 194.061C60.0876 194.211 59.96 194.35 59.8215 194.492C59.7818 194.536 59.7381 194.575 59.6903 194.609C59.5081 194.814 59.315 195.008 59.1109 195.19C58.7683 195.515 58.382 195.837 58.0175 196.14C57.8353 196.29 57.6531 196.433 57.449 196.583C57.3943 196.627 57.3397 196.659 57.2777 196.71C57.2158 196.762 57.1684 196.787 57.1028 196.831C56.9534 196.937 56.8039 197.047 56.6436 197.142C56.578 197.196 56.5015 197.24 56.4395 197.284L56.137 197.478C56.0277 197.551 55.9111 197.617 55.7944 197.682C55.5575 197.832 55.3097 197.982 55.0655 198.124C54.8833 198.219 54.7011 198.329 54.497 198.424C54.3997 198.482 54.2984 198.533 54.1945 198.578L53.9576 198.705C53.7973 198.793 53.6369 198.866 53.4656 198.943C53.2178 199.06 52.9809 199.169 52.7367 199.275C52.4926 199.381 52.2302 199.48 51.986 199.579L51.3701 199.805C51.1769 199.878 50.9838 199.944 50.7906 200.01L50.6849 200.043C50.3205 200.171 49.9305 200.288 49.5551 200.408C49.4487 200.443 49.3405 200.471 49.2308 200.492C49.1251 200.536 49.0048 200.558 48.8991 200.591C48.6732 200.408 48.4363 200.225 48.1994 200.01C48.1728 199.991 48.1484 199.969 48.1265 199.944C48.1265 199.944 48.1265 199.944 48.1047 199.944C48.0828 199.944 48.0828 199.944 48.0719 199.922C47.9516 199.816 47.8459 199.707 47.7074 199.601C47.2701 199.191 46.8182 198.727 46.3663 198.219L46.0966 197.92C46.0638 197.887 46.031 197.843 45.9982 197.81C45.9563 197.753 45.91 197.699 45.8597 197.649C45.4734 197.207 45.098 196.732 44.7299 196.246C44.5695 196.064 44.4311 195.881 44.2999 195.687C44.224 195.6 44.1559 195.505 44.0958 195.406C43.9354 195.19 43.786 194.975 43.6366 194.759C43.571 194.675 43.5163 194.598 43.4616 194.514L43.2065 194.149C43.1847 194.127 43.1737 194.094 43.1519 194.076L42.5469 193.228C44.2102 190.45 45.5634 187.497 46.5813 184.422C46.6542 184.196 46.7088 183.969 46.7635 183.742C46.8645 183.302 46.9362 182.855 46.9785 182.405V182.35C47.051 181.361 47.0106 180.367 46.8583 179.387C46.7198 178.484 46.5266 177.56 46.3007 176.65C46.1804 176.186 46.0638 175.733 45.9362 175.273L45.5718 173.891C45.2689 172.757 45.0349 171.605 44.872 170.442C44.8538 170.303 44.8429 170.161 44.8319 170.022L44.7991 169.711C44.7991 169.558 44.7773 169.408 44.7663 169.247C44.7554 169.086 44.7663 168.977 44.7663 168.849V168.794C44.7663 168.469 44.7445 168.147 44.7445 167.833C44.7445 167.519 44.7445 167.208 44.7663 166.898C44.7663 166.755 44.7663 166.605 44.7882 166.466C44.7882 166.218 44.8101 165.97 44.8319 165.736C44.8538 165.502 44.8647 165.239 44.883 165.005C44.9012 164.771 44.9267 164.508 44.9595 164.274C44.9923 164.04 45.0142 163.777 45.036 163.543C45.1089 162.813 45.2073 162.056 45.2948 161.311C45.2948 161.267 45.2948 161.212 45.2948 161.172C45.3458 160.73 45.3895 160.277 45.4442 159.835V159.813C45.4879 159.36 45.528 158.917 45.5608 158.464C45.5561 158.429 45.5561 158.394 45.5608 158.358C45.5827 157.949 45.6155 157.54 45.6264 157.131C45.6264 157.054 45.6264 156.977 45.6264 156.904V156.849C45.6264 156.568 45.6264 156.297 45.6264 156.02C46.1512 155.578 46.6906 155.168 47.2482 154.759C48.7155 153.704 50.1164 152.56 51.443 151.332C51.6981 151.094 51.924 150.846 52.15 150.601C54.1399 148.361 55.0437 145.891 55.6013 143.326C56.4723 139.391 56.5379 135.265 58.495 131.502C58.6553 131.191 58.8266 130.888 59.0198 130.588C59.2366 130.229 59.4739 129.883 59.7304 129.55C60.2188 128.907 60.7494 128.296 61.3194 127.723C62.3468 126.712 63.4671 125.799 64.665 124.998C65.4158 124.49 66.2212 124.015 67.0485 123.562C67.8758 123.109 68.7468 122.699 69.6397 122.323C70.5326 121.947 71.4801 121.592 72.435 121.267C72.7593 121.161 73.08 121.051 73.4044 120.956C73.4044 120.956 73.4044 120.956 73.4263 120.956C74.392 120.675 75.3906 120.416 76.4038 120.189C76.7354 120.127 77.078 120.05 77.4242 119.984C80.3066 119.409 83.2437 119.154 86.1818 119.224Z" fill="#3FBDF1"/>
<path opacity="0.67" d="M55.5648 140.575C55.0072 143.133 54.107 145.606 52.1171 147.85C51.8911 148.098 51.6652 148.343 51.4064 148.581C50.0828 149.81 48.6829 150.955 47.2153 152.008C46.6322 152.439 46.0637 152.87 45.517 153.323C45.1927 152.797 45.3129 151.95 44.8829 151.252C44.5483 150.66 44.2477 150.05 43.9827 149.425C43.9827 149.392 43.8078 148.573 43.775 148.551C42.7279 147.082 41.5872 145.682 40.3601 144.36C38.3302 142.259 35.3454 139.928 35.0975 139.669L35.0757 139.647C35.0757 139.647 35.6843 121.742 45.743 116.079C54.3949 111.186 55.4481 134.034 55.5648 140.575Z" fill="#3FBDF1"/>
<path opacity="0.67" d="M84.1628 137.78C82.6139 142.943 74.3447 146.089 73.3351 151.394C72.4423 156.093 77.9271 160.478 77.0124 165.254C76.0575 170.369 68.1965 173.209 65.3174 177.747C62.9521 181.401 64.06 185.636 62.8319 189.556C61.3741 194.307 56.2208 198.472 49.4932 200.445C49.2782 200.507 49.0522 200.573 48.8372 200.628C46.7963 199.042 44.4639 196.243 42.5469 193.221C44.2091 190.446 45.5623 187.495 46.5813 184.423C48.0391 179.844 45.4879 175.134 44.8903 170.446C44.1942 164.797 46.3007 158.827 45.4843 153.342C47.7183 151.541 50.3095 149.86 52.1172 147.861C57.1575 142.205 55.2223 134.973 58.4585 128.765C62.3945 121.187 74.7856 115.896 86.9654 116.594C85.8123 120.17 85.0236 123.854 84.6111 127.589C84.2466 130.863 85.1176 134.557 84.1628 137.78Z" stroke="black" stroke-width="1.71889" stroke-linecap="round" stroke-linejoin="round"/>
<path opacity="0.67" d="M79.5304 122.506C61.3701 141.079 52.8275 180.239 49.5038 200.441C49.2341 202.148 48.9863 203.708 48.7749 205.115" stroke="black" stroke-width="1.71889" stroke-linecap="round" stroke-linejoin="round"/>
<path opacity="0.67" d="M45.4624 153.338C47.7074 151.511 50.3095 149.838 52.1063 147.824C57.1538 142.164 55.215 134.937 58.4476 128.729C62.3909 121.147 74.7856 115.863 86.9654 116.557C85.8086 120.131 85.0185 123.814 84.6074 127.548C84.243 130.866 85.1103 134.56 84.1591 137.78C82.6066 142.954 74.3374 146.089 73.3315 151.398C72.4423 156.09 77.9199 160.478 77.0124 165.254C76.0503 170.369 68.2001 173.208 65.3101 177.743C62.9485 181.426 64.0564 185.643 62.8355 189.564C61.3522 194.292 56.2208 198.476 49.4895 200.441C49.2745 200.511 49.0449 200.577 48.8299 200.635C46.7854 199.046 44.4566 196.25 42.5469 193.225" stroke="black" stroke-width="1.71889" stroke-linecap="round" stroke-linejoin="round"/>
<path opacity="0.67" d="M79.5304 122.506C61.3701 141.079 52.8275 180.239 49.5038 200.441C49.2341 202.148 48.9863 203.708 48.7749 205.115" stroke="black" stroke-width="1.71889" stroke-linecap="round" stroke-linejoin="round"/>
<path opacity="0.67" d="M66.6001 212.031L61.5197 240.507C61.3783 241.306 60.961 242.03 60.3404 242.551C59.7201 243.072 58.9362 243.357 58.1267 243.357H31.6134C30.7959 243.357 30.0047 243.067 29.3815 242.537C28.758 242.007 28.3425 241.272 28.2095 240.463L23.5264 212.031H66.6001Z" stroke="black" stroke-width="1.71889" stroke-linecap="round" stroke-linejoin="round"/>
<path opacity="0.67" d="M71.4361 208.856C71.3664 209.721 70.9739 210.529 70.3369 211.118C69.7002 211.706 68.8653 212.032 67.9993 212.031H22.2032C21.3457 212.031 20.5192 211.71 19.8843 211.132C19.2498 210.554 18.8525 209.759 18.7701 208.904C18.725 208.424 18.7802 207.94 18.9321 207.484C19.0841 207.027 19.3296 206.607 19.6525 206.251C19.9758 205.894 20.3697 205.609 20.8089 205.415C21.248 205.219 21.7229 205.119 22.2032 205.118H67.9993C68.4757 205.118 68.9469 205.217 69.3835 205.409C69.8197 205.6 70.2119 205.881 70.5348 206.232C70.8577 206.583 71.1044 206.998 71.2597 207.449C71.4149 207.901 71.4747 208.38 71.4361 208.856Z" stroke="black" stroke-width="1.71889" stroke-linecap="round" stroke-linejoin="round"/>
<g opacity="0.36">
<path opacity="0.36" d="M46.9783 182.339V182.361C46.9236 183.057 46.7903 183.745 46.5811 184.411C45.5632 187.486 44.21 190.439 42.5467 193.217L43.1079 194.079L37.2477 201.493C37.1598 201.468 37.0734 201.439 36.9889 201.406C36.8285 201.354 36.6682 201.3 36.5078 201.234C36.2866 201.159 36.0709 201.069 35.8628 200.963L35.2068 198.841C35.0595 198.781 34.9163 198.712 34.7767 198.636C34.4123 198.475 34.0478 198.292 33.7235 198.11C33.3991 197.927 33.0456 197.744 32.7103 197.536C31.4129 196.768 30.2018 195.861 29.0987 194.832C28.8326 194.584 28.5629 194.324 28.3151 194.068C27.6369 193.371 27.0188 192.616 26.4674 191.814C26.3919 191.719 26.3238 191.619 26.2633 191.514C25.6838 190.654 25.1951 189.736 24.8055 188.774C24.6962 188.518 24.6014 188.259 24.514 187.999C24.3846 187.658 24.276 187.309 24.1896 186.954C23.0088 182.416 24.073 177.523 21.8171 173.266C21.0601 171.924 20.1191 170.694 19.0218 169.612C18.8796 169.463 18.7412 169.32 18.5917 169.181C18.2273 168.816 17.8628 168.48 17.4984 168.136C16.4051 167.102 15.2388 166.075 14.1965 165.008C12.4035 163.181 10.9384 161.194 10.5521 158.797C10.5302 158.68 10.5193 158.552 10.5084 158.431C10.9821 153.842 14.6375 149.508 14.1236 144.937C14.1152 144.822 14.1005 144.707 14.0799 144.594C13.1105 138.451 5.1656 134.816 3.68231 128.816C3.29531 127.016 3.1507 125.173 3.25227 123.335C3.27413 121.665 3.37253 119.973 3.31787 118.344C3.31787 117.883 3.296 117.43 3.25227 116.977C2.8712 112.671 2.11761 108.407 1 104.232C1.14942 104.232 1.31342 104.21 1.46284 104.21C13.0084 103.585 24.6597 109.665 28.4026 118.329C31.5076 125.52 30.2248 133.102 35.0828 139.646L35.1047 139.668C36.3074 141.283 38.4977 142.796 40.0539 144.228C41.3389 145.399 42.4978 146.7 43.5124 148.113C43.5452 148.134 45.0577 149.004 43.9826 149.165C44.1721 149.395 44.3441 149.639 44.4964 149.896C44.6896 150.21 44.132 150.992 44.2778 151.288C44.2778 151.288 44.8609 150.795 44.8609 150.805C45.4732 152.055 45.28 153.853 45.4841 155.157C45.5778 155.783 45.635 156.414 45.6554 157.046C45.5169 160.901 44.624 164.892 44.7734 168.761V168.816C44.7155 169.962 44.7545 171.111 44.89 172.251C45.3128 175.652 46.7414 179.01 46.9783 182.339Z" fill="#3FBDF1"/>
<path opacity="0.36" d="M44.7734 168.783C44.624 164.913 45.5023 160.923 45.6553 157.068C45.8266 160.883 44.9009 164.87 44.7734 168.783Z" fill="#3FBDF1"/>
<path opacity="0.36" d="M46.5813 186.249C45.6818 188.969 44.5185 191.594 43.1081 194.087L42.5469 193.228C44.2102 190.45 45.5634 187.497 46.5813 184.422C46.7905 183.756 46.9239 183.068 46.9785 182.372C47.0951 183.678 46.9603 184.994 46.5813 186.249Z" fill="#3FBDF1"/>
<path opacity="0.36" d="M37.6995 205.111L35.8772 200.975L35.2212 198.852V198.83L8.17578 111.135C25.1261 132.065 33.3626 175.576 36.7483 199.48C36.843 200.138 36.9305 200.785 37.0143 201.41C37.1346 202.25 37.2403 203.072 37.3387 203.858C37.4444 204.965 37.5938 204.154 37.6995 205.111Z" fill="#3FBDF1"/>
</g>
<path opacity="0.67" d="M46.9783 182.339C46.9248 183.039 46.7914 183.731 46.5811 184.4C45.561 187.481 44.2082 190.442 42.5467 193.228C41.9782 194.197 41.3878 195.125 40.7864 195.987C40.4621 196.44 40.1414 196.882 39.8279 197.302C39.6239 197.58 39.4088 197.84 39.1938 198.099C38.9788 198.358 38.7638 198.603 38.5597 198.83C38.4649 198.961 38.3447 199.078 38.239 199.195C38.0349 199.4 37.8308 199.604 37.634 199.787C37.419 199.71 37.2039 199.648 36.9889 199.561C36.8971 199.537 36.8078 199.504 36.7229 199.462C36.4313 199.367 36.1398 199.246 35.8628 199.129L35.7207 199.064C35.5494 199.002 35.3781 198.925 35.2068 198.848C35.0596 198.788 34.9163 198.719 34.7767 198.643C34.4123 198.483 34.0479 198.3 33.7235 198.117C33.3991 197.935 33.0456 197.752 32.7103 197.544C31.4129 196.776 30.2019 195.869 29.0987 194.84C28.8327 194.591 28.563 194.332 28.3151 194.076C27.6369 193.378 27.0188 192.624 26.4674 191.821C26.392 191.727 26.3238 191.627 26.2633 191.522C25.6839 190.661 25.1951 189.743 24.8055 188.781C24.6962 188.526 24.6015 188.266 24.514 188.007C24.3846 187.665 24.276 187.317 24.1896 186.962C23.0088 182.423 24.073 177.531 21.8171 173.274C21.0602 171.931 20.1192 170.701 19.0218 169.62C18.8797 169.47 18.7412 169.328 18.5918 169.189C17.1704 167.775 15.5924 166.43 14.2184 165.016C12.4254 163.189 10.9603 161.201 10.574 158.804C10.5521 158.687 10.5412 158.559 10.5303 158.439C10.0273 153.795 13.6718 149.45 14.1455 144.945C14.2261 144.215 14.2113 143.478 14.1018 142.752C13.1324 136.61 5.1875 132.978 3.70421 126.975C3.42498 125.776 3.28073 124.551 3.27417 123.321C3.22315 121.673 3.3179 119.992 3.33977 118.329C3.38387 117.258 3.36196 116.185 3.27417 115.117C2.94621 111.442 2.34316 107.796 1.47017 104.21C1.33168 103.607 1.16768 102.994 1.00732 102.383C8.91941 101.835 16.9372 104.462 22.4622 108.935C23.1911 109.532 23.8689 110.147 24.4958 110.78C26.138 112.424 27.4645 114.356 28.4099 116.48C31.515 123.668 29.6454 132.054 34.5034 138.598C35.3679 139.721 36.3289 140.767 37.3752 141.722C37.7943 142.12 38.2135 142.508 38.6435 142.91C39.5036 143.695 40.3637 144.481 41.1582 145.288C42.1495 146.261 43.0296 147.342 43.7822 148.511C43.9097 148.727 44.0373 148.953 44.1466 149.18C44.2341 149.344 44.3179 149.516 44.3944 149.688C44.471 149.859 44.5767 150.075 44.6532 150.28C44.7297 150.484 44.7917 150.645 44.8573 150.809C44.8573 150.831 44.8573 150.853 44.8791 150.871C44.9411 151.069 45.0067 151.262 45.0614 151.456C45.116 151.65 45.178 151.876 45.2327 152.092C45.2873 152.307 45.3165 152.457 45.3493 152.629C45.3821 152.801 45.4477 153.093 45.4805 153.32C45.651 154.555 45.7083 155.804 45.6518 157.05C45.5242 160.909 44.6204 164.895 44.7698 168.776C44.7698 169.335 44.8245 169.872 44.8864 170.424C45.3967 174.418 47.31 178.43 46.9783 182.339Z" stroke="black" stroke-width="1.71889" stroke-linecap="round" stroke-linejoin="round"/>
<path opacity="0.67" d="M8.14307 109.267C25.5781 130.781 33.7817 176.134 36.9888 199.556C37.2621 201.584 37.51 203.448 37.7177 205.114" stroke="black" stroke-width="1.71889" stroke-linecap="round" stroke-linejoin="round"/>
<path opacity="0.67" d="M84.1626 137.787C82.6137 142.946 74.3445 146.096 73.335 151.398C72.4421 156.097 77.927 160.485 77.0122 165.257C76.0574 170.373 68.1963 173.212 65.3172 177.75C62.9519 181.426 64.0599 185.639 62.8317 189.563C61.4468 194.025 56.7928 198 50.6337 200.083C50.2693 200.211 49.8793 200.328 49.5039 200.448C49.2889 200.514 49.063 200.576 48.8479 200.631C47.0002 199.199 44.9119 196.773 43.1189 194.091L42.5467 193.228C41.9782 194.197 41.3878 195.125 40.7864 195.987C40.4621 196.44 40.1414 196.882 39.8279 197.302C39.6239 197.58 39.4088 197.84 39.1938 198.099C38.9788 198.358 38.7638 198.603 38.5597 198.83C38.4649 198.961 38.3447 199.078 38.239 199.195C38.0349 199.411 37.8308 199.615 37.634 199.798C37.419 199.721 37.2039 199.659 36.9889 199.572L36.7229 199.473C36.4299 199.375 36.1427 199.261 35.8628 199.129L35.7207 199.064C35.5403 198.997 35.365 198.918 35.1959 198.826C35.0574 198.775 34.9152 198.709 34.7767 198.643C34.4123 198.483 34.0479 198.3 33.7235 198.117C33.3991 197.935 33.0456 197.752 32.7103 197.544C31.4129 196.776 30.2019 195.869 29.0987 194.84C28.8327 194.591 28.563 194.332 28.3151 194.076C27.6369 193.378 27.0188 192.624 26.4674 191.821C26.392 191.727 26.3238 191.627 26.2633 191.522C25.6839 190.661 25.1951 189.743 24.8055 188.781C24.6962 188.526 24.6015 188.266 24.514 188.007C24.3846 187.665 24.276 187.317 24.1896 186.962C23.0088 182.423 24.073 177.531 21.8171 173.274C21.0602 171.931 20.1192 170.701 19.0218 169.62C18.8797 169.47 18.7412 169.328 18.5918 169.189C17.1704 167.786 15.5924 166.441 14.2184 165.016C12.4254 163.189 10.9603 161.201 10.574 158.804C10.5521 158.687 10.5412 158.559 10.5303 158.439C10.0273 153.795 13.6718 149.45 14.1455 144.945C14.2261 144.215 14.2113 143.478 14.1018 142.752C13.1324 136.61 5.1875 132.978 3.70421 126.975C3.42498 125.776 3.28073 124.551 3.27417 123.321C3.22315 121.673 3.3179 119.992 3.33977 118.329C3.38387 117.258 3.36196 116.185 3.27417 115.117C2.94621 111.442 2.34316 107.796 1.47017 104.21C1.33168 103.607 1.16768 102.994 1.00732 102.383C8.91941 101.835 16.9372 104.462 22.4622 108.935C23.1747 109.51 23.8536 110.126 24.4958 110.78C26.138 112.424 27.4645 114.356 28.4099 116.48C31.515 123.668 29.6454 132.054 34.5034 138.598C35.3679 139.721 36.3289 140.767 37.3752 141.722C37.7943 142.12 38.2135 142.519 38.6435 142.91C39.5036 143.695 40.3637 144.481 41.1582 145.288C42.1495 146.261 43.0296 147.342 43.7822 148.511C43.9097 148.727 44.0373 148.953 44.1466 149.18C44.2341 149.344 44.3179 149.516 44.3944 149.688C44.471 149.859 44.5767 150.075 44.6532 150.28C44.7297 150.484 44.7917 150.645 44.8573 150.809C44.8573 150.831 44.8573 150.853 44.8791 150.871C44.9411 151.069 45.0067 151.262 45.0614 151.456C45.116 151.65 45.178 151.876 45.2327 152.092C45.2873 152.307 45.3165 152.457 45.3493 152.629C45.3821 152.801 45.4477 153.093 45.4805 153.32C47.7145 151.518 50.3057 149.837 52.1134 147.839C57.1536 142.179 55.2184 134.948 58.4547 128.739C62.3907 121.161 74.7818 115.87 86.9615 116.572C85.8088 120.146 85.0202 123.829 84.6072 127.563C84.2464 130.866 85.1175 134.564 84.1626 137.787Z" stroke="black" stroke-width="1.71889" stroke-linecap="round" stroke-linejoin="round"/>
<path opacity="0.67" d="M34.4922 138.606C34.4922 138.606 35.6912 119.908 45.7499 114.226C55.8085 108.545 55.5899 140.411 55.5899 140.411" stroke="black" stroke-width="1.71889" stroke-linecap="round" stroke-linejoin="round"/>
<path opacity="0.67" d="M45.4625 153.339C45.4625 153.339 43.407 142.643 47.0114 132.146" stroke="black" stroke-width="1.71889" stroke-linecap="round" stroke-linejoin="round"/>
</g>
<path d="M258.397 235.931L258.385 235.943" stroke="#CCDDE2" stroke-width="1.71889" stroke-miterlimit="10"/>
<path d="M155.889 52.4113C155.889 52.4113 164.092 47.1094 160.626 41.4713C157.161 35.8332 155.889 52.4113 155.889 52.4113Z" fill="#3FBDF1"/>
<path d="M240.648 86.4957C236.056 88.8562 231.11 88.6881 226.372 86.883C222.072 85.2351 218.234 82.5275 214.783 79.5203L191.459 61.8022C186.422 58.7424 181.901 54.9003 178.065 50.4201C172.573 43.9636 163.714 42.5531 161.618 42.3047L160.113 39.4071C162.919 38.2634 165.853 36.7872 168.859 36.3889C174.869 35.5704 181.178 38.1245 185.555 42.1439C187.982 44.3838 190.103 46.9598 192.519 49.2143C198.562 54.8597 207.163 56.8877 215.115 58.6196C219.124 59.4929 223.541 59.7706 227.615 60.1908C231.665 60.5939 235.612 61.7072 239.277 63.4794C241.686 64.6012 243.235 66.7899 245.109 68.9238C246.543 70.9032 247.406 73.241 247.601 75.68C247.882 80.4448 244.711 84.391 240.648 86.4957Z" fill="#3FBDF1"/>
<path d="M155.889 52.4116C154.782 53.0565 153.474 53.2637 152.222 52.9926H152.19C151.825 52.8866 151.461 52.7989 151.147 52.7332C151.008 52.7021 150.871 52.6593 150.739 52.6053C147.073 51.2679 144.934 51.7868 145.637 55.7111C146.453 60.3334 140.433 60.9363 136.468 60.2238C129.47 57.0668 127.553 44.7492 133.104 37.16C133.242 36.9663 133.403 36.7617 133.563 36.557C133.723 36.3524 133.898 36.1588 134.069 35.9651C134.483 35.5138 134.926 35.0893 135.392 34.6935C135.553 34.551 135.713 34.4122 135.884 34.2843C136.056 34.1564 136.296 33.97 136.5 33.8202C136.698 33.6627 136.907 33.5188 137.124 33.3891C139 32.1504 141.108 31.3081 143.32 30.9135C145.532 30.5189 147.801 30.5806 149.988 31.0944L150.101 31.1273C150.863 31.4134 151.605 31.7477 152.324 32.1284C152.531 32.2322 152.732 32.347 152.926 32.4719C153.011 32.5139 153.093 32.56 153.174 32.6108C153.367 32.7314 153.56 32.8483 153.753 32.9762C154.139 33.2246 154.526 33.4914 154.894 33.7837C156.234 34.813 157.421 36.0283 158.418 37.3938C158.588 37.6189 158.746 37.8531 158.892 38.0954C159.009 38.2569 159.116 38.425 159.212 38.5996C159.362 38.8371 159.504 39.0746 159.632 39.3304C159.759 39.5862 159.945 39.9224 160.084 40.2256C160.193 40.4631 160.299 40.7006 160.397 40.9564C160.47 41.1391 160.546 41.3218 160.612 41.4936C160.83 42.0665 161.009 42.6537 161.148 43.2511C161.193 43.3954 161.225 43.5434 161.246 43.6932C161.296 43.8657 161.335 44.0415 161.363 44.2194C161.396 44.3912 161.428 44.5848 161.461 44.7602L155.889 52.4116Z" fill="#3FBDF1"/>
<path d="M158.845 37.8018C161.647 36.6544 164.581 35.1819 167.591 34.7763C173.594 33.9651 179.913 36.5156 184.279 40.5349C186.717 42.7785 188.831 45.3509 191.251 47.6127C197.297 53.2434 205.133 56.3383 213.107 58.0813C217.11 58.9246 221.157 59.5443 225.228 59.9375C229.456 60.3796 233.279 60.5075 237.193 62.3381C242.295 64.7059 247.212 69.7849 247.587 75.6678C247.889 80.4399 244.719 84.3825 240.663 86.4762C236.067 88.8367 231.114 88.6869 226.369 86.8599C222.069 85.212 218.231 82.508 214.776 79.4899" stroke="black" stroke-width="1.71889" stroke-miterlimit="10"/>
<path d="M130.793 36.4792C130.936 36.2856 131.096 36.0809 131.256 35.8763C131.417 35.6717 131.592 35.478 131.763 35.2844C132.326 34.6771 132.935 34.1151 133.585 33.6036C133.789 33.4391 133.993 33.2893 134.197 33.1395L134.329 33.0408C134.5 32.9239 134.66 32.8033 134.831 32.7083C139.551 29.5842 145.142 29.2919 149.989 31.0823C150.2 31.1488 150.409 31.2267 150.612 31.3162C151.196 31.5508 151.767 31.8179 152.321 32.1164C152.529 32.2194 152.731 32.3338 152.926 32.4599C153.011 32.5015 153.094 32.5479 153.174 32.5987C153.378 32.7193 153.571 32.8362 153.753 32.9641C154.146 33.2133 154.526 33.4826 154.891 33.7716C156.232 34.7999 157.42 36.0155 158.418 37.3818C158.589 37.6068 158.747 37.8411 158.892 38.0833C159.009 38.2445 159.116 38.4129 159.213 38.5876C159.366 38.8251 159.504 39.0626 159.632 39.3184C159.759 39.5741 159.945 39.9103 160.084 40.2136C160.193 40.4511 160.299 40.6886 160.397 40.9444C160.47 41.1271 160.547 41.3098 160.612 41.4815C160.83 42.0544 161.009 42.6416 161.148 43.2391C161.193 43.3834 161.226 43.5314 161.246 43.6812C161.295 43.854 161.334 44.0298 161.363 44.2074C161.396 44.3791 161.429 44.5728 161.461 44.7481C161.494 44.9235 161.512 45.1355 161.534 45.3401" stroke="black" stroke-width="1.71889" stroke-miterlimit="10"/>
<path d="M182.533 236.437H210.555L210.92 243.902H174.202C174.202 243.902 167.711 239.462 175.124 236.437H182.533Z" fill="#3FBDF1"/>
<path d="M148.235 97.8703C148.235 97.8703 167.766 84.4748 191.458 108.891C191.458 108.891 188.262 128.195 178.054 136.321C178.054 136.321 238.016 127.482 244.321 149.705C244.321 149.705 246.406 110.973 213.668 78.391C180.93 45.8086 161.993 56.9239 155.881 74.0062C149.77 91.0885 150.389 84.1752 148.235 97.8703Z" fill="#2E2E2E"/>
<path d="M277.653 235.826V203.331L288.536 203.696V243.89H270.146C270.146 243.89 267.66 240.145 271.523 238.932C275.387 237.719 277.653 239.597 277.653 235.826Z" fill="#3FBDF1"/>
<path d="M112.451 200.831C113.584 200.831 114.503 199.91 114.503 198.774C114.503 197.638 113.584 196.717 112.451 196.717C111.318 196.717 110.399 197.638 110.399 198.774C110.399 199.91 111.318 200.831 112.451 200.831Z" fill="#3FBDF1"/>
<path d="M185.223 58.6055C220.141 74.9387 244.332 110.455 244.332 151.632C244.363 172.671 237.913 193.207 225.862 210.431C223.865 213.289 221.725 216.044 219.452 218.686" stroke="black" stroke-width="1.71889" stroke-linecap="round" stroke-linejoin="round"/>
<path d="M206.517 134.785C206.517 134.785 138.793 131.076 139.095 165.72C139.213 172.437 141.81 178.872 146.384 183.781L184.869 225.802C187.118 228.25 188.375 230.22 189.05 231.762C189.269 232.271 189.359 232.827 189.311 233.38C189.262 233.933 189.077 234.465 188.773 234.928C188.468 235.391 188.053 235.771 187.564 236.033C187.076 236.295 186.531 236.43 185.977 236.428H175.128C174.139 236.432 173.192 236.827 172.493 237.528C171.794 238.229 171.4 239.178 171.396 240.169C171.396 240.66 171.493 241.146 171.681 241.599C171.869 242.051 172.144 242.463 172.491 242.809C172.838 243.155 173.249 243.429 173.701 243.616C174.154 243.803 174.638 243.898 175.128 243.896H210.92C210.588 217.168 200.311 198.437 191.688 187.388C188.998 183.918 186.021 180.681 182.788 177.712" stroke="black" stroke-width="1.71889" stroke-linecap="round" stroke-linejoin="round"/>
<path d="M225.862 210.43C225.862 210.43 252.729 201.401 288.547 203.7V243.893H271.833C271.174 243.893 270.542 243.631 270.076 243.163C269.61 242.696 269.348 242.062 269.348 241.401C269.348 240.792 269.57 240.204 269.973 239.749C270.376 239.293 270.931 239.001 271.534 238.928L275.357 238.442C275.995 238.361 276.581 238.05 277.006 237.567C277.431 237.084 277.665 236.462 277.664 235.818C277.664 235.434 277.581 235.054 277.419 234.706C277.258 234.357 277.024 234.048 276.731 233.8C276.439 233.552 276.096 233.37 275.727 233.268C275.357 233.166 274.97 233.146 274.592 233.209L210.92 243.901" stroke="black" stroke-width="1.71889" stroke-linecap="round" stroke-linejoin="round"/>
<path d="M191.681 187.403C193.733 183.234 195.552 179.829 196.714 177.728" stroke="black" stroke-width="1.71889" stroke-linecap="round" stroke-linejoin="round"/>
<path d="M179.031 236.436C177.613 232.025 178 226.172 179.395 219.839" stroke="black" stroke-width="1.71889" stroke-linecap="round" stroke-linejoin="round"/>
<path d="M114.401 198.766C114.402 199.037 114.35 199.304 114.248 199.554C114.146 199.804 113.996 200.032 113.805 200.223C113.616 200.415 113.39 200.567 113.141 200.67C112.892 200.774 112.625 200.827 112.356 200.827C112.024 200.832 111.696 200.755 111.401 200.601C111.454 200.924 111.48 201.252 111.478 201.58V203.111C111.479 204.668 110.863 206.161 109.766 207.263C108.669 208.365 107.181 208.985 105.628 208.987H102.199L102.166 223.665C102.028 233.549 96.8489 233.749 96.8489 233.749V239.073H97.4393C97.7604 239.073 98.0782 239.137 98.3737 239.263C98.6693 239.388 98.9364 239.572 99.1595 239.804C99.5064 240.15 99.7415 240.593 99.8341 241.075C99.9266 241.557 99.8727 242.055 99.6788 242.505C99.4849 242.956 99.1606 243.338 98.7473 243.601C98.3344 243.864 97.8519 243.996 97.3628 243.981C96.1423 243.94 94.9287 243.778 93.7402 243.495C93.2653 243.833 92.6928 244.003 92.1111 243.981C88.4047 243.842 81.6953 242.428 77.8796 234.517C75.3868 236.263 74.7417 237.287 71.4617 237.287C67.9576 237.289 64.5555 236.105 61.8076 233.925V239.077H62.4126C62.7336 239.083 63.0507 239.152 63.3452 239.28C63.6396 239.409 63.906 239.594 64.1287 239.826C64.3518 240.058 64.5271 240.331 64.6448 240.631C64.7625 240.931 64.8201 241.251 64.8142 241.573C64.8084 241.895 64.7395 242.212 64.6112 242.508C64.483 242.803 64.2982 243.07 64.0671 243.294C63.8361 243.517 63.5631 243.693 63.2643 243.811C62.9654 243.929 62.6462 243.986 62.3251 243.981C60.922 243.942 59.5287 243.736 58.1741 243.367V243.345C58.431 243.116 58.6362 242.834 58.7758 242.519C58.915 242.204 58.986 241.863 58.9831 241.518C58.989 241.436 58.989 241.354 58.9831 241.273L58.185 243.33C57.7367 243.742 57.1496 243.97 56.5414 243.966H56.4648C50.6337 243.805 34.9626 240.228 39.5765 212.257C42.8565 192.449 60.7142 194.086 69.1839 202.026C71.418 204.138 72.0011 206.648 71.5164 208.935H76.0537V201.353C76.0548 197.043 77.763 192.91 80.8028 189.862C83.8426 186.814 87.9652 185.102 92.2642 185.101H95.0704C96.2541 185.102 97.4258 185.336 98.5188 185.792C99.6121 186.246 100.605 186.913 101.441 187.753C102.277 188.592 102.941 189.589 103.393 190.686C103.845 191.782 104.077 192.958 104.076 194.144C105.381 194.151 106.662 194.5 107.791 195.155C108.921 195.811 109.86 196.751 110.516 197.882C110.719 197.465 111.056 197.128 111.474 196.927C111.891 196.726 112.364 196.672 112.816 196.775C113.268 196.877 113.672 197.129 113.963 197.491C114.254 197.853 114.415 198.302 114.419 198.766H114.401Z" fill="white"/>
<path d="M58.9756 241.544C58.9785 241.889 58.9078 242.23 58.7682 242.545C58.6286 242.86 58.4234 243.142 58.1665 243.371L58.9646 241.313C58.9734 241.39 58.977 241.467 58.9756 241.544Z" fill="white"/>
<path d="M58.9756 241.544C58.9785 241.889 58.9078 242.23 58.7682 242.545C58.6286 242.86 58.4234 243.142 58.1665 243.371L58.9646 241.313C58.9734 241.39 58.977 241.467 58.9756 241.544Z" fill="white"/>
<path d="M60.8052 223.665C62.6274 231.93 55.9399 233.765 55.9399 233.765V239.088H56.5303C57.1786 239.09 57.8 239.348 58.2585 239.808C58.7169 240.267 58.9746 240.89 58.9757 241.54C58.9753 241.869 58.9094 242.195 58.7811 242.497C58.6532 242.8 58.4658 243.074 58.2304 243.303C57.995 243.532 57.7162 243.711 57.4104 243.83C57.1046 243.949 56.7781 244.006 56.4501 243.996C50.5971 243.828 34.9479 240.254 39.5654 212.283C42.8454 192.467 60.7032 194.108 69.1619 202.052C76.4909 208.961 66.0313 220.19 58.542 213.452C57.5347 212.535 56.5933 211.547 55.7249 210.496" stroke="black" stroke-width="1.71889" stroke-linecap="round" stroke-linejoin="round"/>
<path d="M61.7963 233.933V239.088H62.3867C62.7093 239.087 63.0293 239.149 63.3277 239.271C63.6262 239.395 63.8974 239.575 64.1255 239.804C64.3536 240.033 64.534 240.305 64.6569 240.604C64.7793 240.903 64.8413 241.224 64.8394 241.547C64.8391 241.876 64.7728 242.202 64.6445 242.504C64.5162 242.806 64.3285 243.08 64.0923 243.308C63.8562 243.536 63.577 243.714 63.2705 243.832C62.9644 243.949 62.6378 244.004 62.3102 243.992C60.9071 243.952 59.5135 243.744 58.1592 243.374" stroke="black" stroke-width="1.71889" stroke-linecap="round" stroke-linejoin="round"/>
<path d="M93.7437 243.503C94.9296 243.793 96.1424 243.955 97.3626 243.989C97.6895 244.002 98.0157 243.947 98.3211 243.83C98.6268 243.713 98.9056 243.535 99.1407 243.307C99.3758 243.079 99.5627 242.806 99.6899 242.503C99.8171 242.201 99.882 241.876 99.8809 241.548C99.8747 240.895 99.613 240.27 99.152 239.809C98.9275 239.577 98.6593 239.393 98.3623 239.267C98.0656 239.142 97.7467 239.077 97.4245 239.078H96.8487V233.769C96.8487 233.769 102.031 233.55 102.17 223.662L102.202 208.98" stroke="black" stroke-width="1.71889" stroke-linecap="round" stroke-linejoin="round"/>
<path d="M76.0353 208.98H71.4907" stroke="black" stroke-width="1.71889" stroke-linecap="round" stroke-linejoin="round"/>
<path d="M96.5793 223.665C98.4161 231.923 91.714 231.557 91.714 231.557V239.081H92.3044C92.9568 239.088 93.5803 239.351 94.0428 239.811C94.3424 240.116 94.5589 240.493 94.6704 240.906C94.7823 241.319 94.7855 241.754 94.6806 242.168C94.5217 242.722 94.1795 243.204 93.7104 243.536C93.2414 243.868 92.6736 244.03 92.1003 243.995C88.3903 243.856 81.6809 242.45 77.8578 234.535C75.365 236.285 74.7272 237.312 71.4436 237.312C69.1239 237.313 66.8334 236.791 64.7415 235.786C62.6492 234.781 60.8084 233.319 59.355 231.506" stroke="black" stroke-width="1.71889" stroke-linecap="round" stroke-linejoin="round"/>
<path d="M96.896 208.981H105.643C107.191 208.975 108.674 208.354 109.767 207.254C110.86 206.154 111.474 204.665 111.474 203.112V201.596C111.475 201.266 111.451 200.936 111.401 200.609" stroke="black" stroke-width="1.71889" stroke-linecap="round" stroke-linejoin="round"/>
<path d="M110.501 197.891C110.17 197.317 109.766 196.789 109.298 196.319C108.611 195.629 107.794 195.082 106.894 194.708C105.995 194.335 105.031 194.144 104.058 194.145C104.058 191.749 103.109 189.451 101.419 187.756C99.7302 186.061 97.4386 185.107 95.0486 185.105H92.2424C87.9437 185.107 83.8215 186.819 80.7821 189.867C77.743 192.915 76.0355 197.048 76.0355 201.358V211.462C76.0122 212.573 76.2108 213.679 76.619 214.713C77.0275 215.747 77.6376 216.689 78.4135 217.483C79.1898 218.278 80.1162 218.909 81.1388 219.34C82.1611 219.771 83.2592 219.993 84.3686 219.993C85.4779 219.993 86.576 219.771 87.5983 219.34C88.6209 218.909 89.5473 218.278 90.3236 217.483C91.0995 216.689 91.7096 215.747 92.1181 214.713C92.5263 213.679 92.7249 212.573 92.7016 211.462V198.512" stroke="black" stroke-width="1.71889" stroke-linecap="round" stroke-linejoin="round"/>
<path d="M111.401 200.597C111.694 200.753 112.021 200.834 112.352 200.831C112.721 200.833 113.083 200.735 113.4 200.548C113.718 200.361 113.98 200.092 114.158 199.769C114.336 199.446 114.424 199.08 114.413 198.711C114.402 198.342 114.292 197.983 114.094 197.671C113.897 197.359 113.619 197.107 113.291 196.939C112.962 196.772 112.595 196.697 112.228 196.721C111.86 196.745 111.506 196.868 111.202 197.077C110.898 197.286 110.656 197.573 110.501 197.908" stroke="black" stroke-width="1.71889" stroke-linecap="round" stroke-linejoin="round"/>
<path d="M97.793 195.694C97.793 195.694 98.5219 193.684 101.518 194.115" stroke="black" stroke-width="1.71889" stroke-linecap="round" stroke-linejoin="round"/>
<path d="M79.5086 186.614C79.5086 186.614 79.0057 191.109 81.9249 190.323C84.8441 189.537 84.8805 187.305 85.3543 189.227C85.8281 191.149 88.5432 192.515 90.3654 190.254C92.1876 187.992 91.1162 191.171 92.1475 191.777C93.1789 192.384 95.8722 192.632 96.9546 190.55C98.037 188.467 98.8643 188.328 99.5348 190.122C100.205 191.916 106.375 187.59 106.372 187.108C106.368 186.625 110.293 184.787 110.293 184.787L108.628 178.63C108.628 178.63 106.255 177.194 105.672 177.059C105.089 176.924 103.97 176.968 103.387 176.654C102.804 176.339 96.4115 174.691 96.4115 174.691C96.4115 174.691 79.6835 178.981 79.5086 186.614Z" fill="white"/>
<path d="M85.9555 186.249C85.8826 186.443 85.8061 186.647 85.7296 186.841C85.7234 186.875 85.7124 186.909 85.6968 186.94C85.3775 187.659 85.2591 188.453 85.3542 189.235C85.5036 190.042 86.1086 191.248 86.9468 191.452C89.3959 192.07 90.5913 190.356 91.3967 188.405C91.8887 187.218 92.2568 185.946 92.6868 185.051C93.2342 183.915 94.001 182.901 94.9427 182.065" stroke="black" stroke-width="1.71889" stroke-linecap="round" stroke-linejoin="round"/>
<path d="M86.076 185.882C86.0432 186.003 85.9994 186.109 85.9557 186.248C85.8916 186.449 85.8161 186.647 85.7298 186.84C85.7236 186.874 85.7126 186.907 85.697 186.938C84.9899 188.586 83.7727 190.074 81.9249 190.333C79.8403 190.611 78.5283 187.282 80.4417 183.876C80.4391 183.869 80.4391 183.862 80.4417 183.854" stroke="black" stroke-width="1.71889" stroke-linecap="round" stroke-linejoin="round"/>
<path d="M91.3823 188.397C91.3823 188.397 90.7919 192.782 94.1448 192.416C98.0371 191.996 96.8636 187.48 101.853 183.738" stroke="black" stroke-width="1.71889" stroke-linecap="round" stroke-linejoin="round"/>
<path d="M98.4595 188.138C99.0171 189.464 100.18 190.272 101.63 190.1C103.693 189.84 104.855 188.05 106.251 186.735C106.295 186.705 106.328 186.661 106.372 186.629C107.182 185.889 108.146 185.34 109.195 185.022C110.243 184.703 111.349 184.623 112.432 184.787C112.432 184.787 124.805 188.105 142.124 177.728" stroke="black" stroke-width="1.71889" stroke-linecap="round" stroke-linejoin="round"/>
<path d="M179.771 136.07C188.511 123.297 193.181 108.168 193.164 92.6787" stroke="black" stroke-width="1.71889" stroke-linecap="round" stroke-linejoin="round"/>
<path d="M86.0757 185.883C86.0757 185.883 87.333 183.073 89.1151 181.747" stroke="black" stroke-width="1.71889" stroke-linecap="round" stroke-linejoin="round"/>
<path d="M161.454 44.7373L185.219 58.6224C153.877 49.0307 146.759 99.0827 145.13 121.24C145.13 121.24 143.673 152.829 112.589 167.357L108.055 169.433C104.11 171.219 100.01 172.641 95.8064 173.682C82.3912 177.051 80.4487 183.866 80.4487 183.866" stroke="black" stroke-width="1.71889" stroke-linecap="round" stroke-linejoin="round"/>
<path d="M158.615 69.2236L155.743 64.9229" stroke="black" stroke-width="1.71889" stroke-linecap="round" stroke-linejoin="round"/>
<path d="M136.449 60.2115L141.945 65.5353C142.019 65.608 142.108 65.6643 142.206 65.6997C142.303 65.7355 142.407 65.7498 142.511 65.7418C142.614 65.7337 142.715 65.7038 142.806 65.6537C142.897 65.6036 142.976 65.5346 143.038 65.4513L143.683 64.5853C143.782 64.5853 156.636 71.5278 158.086 59.4697" stroke="black" stroke-width="1.71889" stroke-linecap="round" stroke-linejoin="round"/>
<path d="M161.141 42.2354C161.141 42.2354 171.782 43.0465 178.054 50.4093C181.891 54.8887 186.413 58.7283 191.451 61.7841" stroke="black" stroke-width="1.71889" stroke-miterlimit="10"/>
<path d="M134.82 32.709C124.663 39.0194 125.826 55.8751 134.222 59.5839C137.426 61.0016 146.614 61.3488 145.619 55.6961C144.919 51.779 147.076 51.2602 150.721 52.5939C152.991 53.416 155.481 53.2918 157.281 51.5415C157.637 51.1955 157.954 50.8118 158.228 50.3978" stroke="black" stroke-width="1.71889" stroke-miterlimit="10"/>
<path d="M329 243.895C327.251 243.895 14.062 243.895 14.062 243.895" stroke="black" stroke-width="1.71889" stroke-linecap="round" stroke-linejoin="round"/>
<path d="M244.314 152.051C244.314 158.858 241.617 165.386 236.816 170.199C232.016 175.012 225.505 177.716 218.715 177.716H173.018" stroke="black" stroke-width="1.71889" stroke-linecap="round" stroke-linejoin="round"/>
<path d="M174.647 214.658C174.647 214.658 171.196 226.746 173.018 230.348C174.84 233.951 177.81 231.105 178.12 228.138" stroke="black" stroke-width="1.71889" stroke-linecap="round" stroke-linejoin="round"/>
</svg>
