<svg width="234" height="197" viewBox="0 0 234 197" fill="none" xmlns="http://www.w3.org/2000/svg">
<path d="M100.778 5.02721C100.765 5.00459 100.754 4.98093 100.744 4.95701L100.76 4.94141C100.768 4.96949 100.774 4.99809 100.778 5.02721Z" fill="#3FBDF1"/>
<path d="M100.841 5.34008C100.817 5.25506 100.799 5.16796 100.789 5.08008C100.831 5.1599 100.849 5.25012 100.841 5.34008Z" fill="#3FBDF1"/>
<path d="M112.519 94.8661C112.454 95.0143 112.4 95.1599 112.335 95.3133C107.535 107 104.186 120.983 103.409 137.717C90.0841 105.076 67.9789 89.2761 48.2891 81.6893C48.6427 70.7823 50.1585 51.8153 56.3491 40.1621C56.3491 40.1621 66.8323 42.6139 80.0273 52.9515C90.4377 61.1077 102.551 74.1883 112.519 94.8661Z" fill="#3FBDF1"/>
<path d="M114.485 94.6892L114.035 94.5878C114.1 94.4318 114.157 94.2836 114.22 94.1328C114.308 94.3148 114.399 94.5202 114.485 94.6892Z" fill="#3FBDF1"/>
<path d="M114.485 94.6892L114.035 94.5878C114.1 94.4318 114.157 94.2836 114.22 94.1328C114.308 94.3148 114.399 94.5202 114.485 94.6892Z" fill="#3FBDF1"/>
<path d="M105.87 169.61C105.742 169.61 105.61 169.61 105.485 169.61C55.7677 169.61 14.5837 131.933 7.20481 82.7101C6.70821 78.5085 6.63281 75.9995 6.63281 75.9995C6.63281 75.9995 24.5729 74.1795 45.3729 82.3669C63.8199 89.6287 84.5211 104.748 96.9985 135.979V136.002C97.0739 136.19 97.1493 136.374 97.2169 136.569C100.945 146.02 103.914 156.938 105.854 169.54C105.862 169.563 105.87 169.587 105.87 169.61Z" fill="#3FBDF1"/>
<path d="M221.604 77.5078C216.853 133.26 171.626 177.036 116.48 177.259C116.512 174.727 117.305 146.109 134.579 120.163C142.3 108.455 152.673 98.7326 164.856 91.7844C165.202 91.5842 165.537 91.3944 165.896 91.2046C166.32 90.9628 166.754 90.7314 167.196 90.5C167.308 90.435 167.427 90.3752 167.55 90.3102C167.973 90.0866 168.397 89.863 168.831 89.6472C169.055 89.5328 169.279 89.4158 169.513 89.3092C169.975 89.07 170.449 88.836 170.922 88.6124C171.395 88.3888 171.811 88.1912 172.261 87.9858L172.419 87.9104C172.757 87.7518 173.093 87.6036 173.436 87.4554C173.862 87.2552 174.286 87.0732 174.718 86.8912C175.976 86.3452 177.274 85.8252 178.597 85.3312L179.055 85.157C179.614 84.9412 180.175 84.7358 180.745 84.5356C192.185 80.4796 205.692 77.903 221.604 77.5078Z" fill="#3FBDF1"/>
<path d="M146.549 51.6434C135.283 60.1766 122.593 73.6264 114.221 94.1326C104.26 73.0466 92.1806 59.7034 81.791 51.386C87.927 39.946 101.834 16.6942 114.486 5.81836C114.486 5.81836 133.64 24.7386 146.549 51.6434Z" fill="#3FBDF1"/>
<path d="M179.609 82.3601C179.052 82.5551 178.501 82.7579 177.95 82.9685L177.503 83.1401C176.203 83.6263 174.934 84.1385 173.699 84.6741C173.275 84.8535 172.859 85.0303 172.443 85.2253C172.105 85.3735 171.775 85.5191 171.445 85.6725L171.286 85.7453C170.847 85.9481 170.407 86.1509 169.986 86.3641C169.565 86.5773 169.058 86.8087 168.6 87.0453C168.374 87.1493 168.153 87.2637 167.935 87.3781C167.508 87.5887 167.092 87.8071 166.676 88.0281C166.559 88.0931 166.44 88.1477 166.33 88.2127C165.907 88.4415 165.483 88.6677 165.064 88.9043C164.718 89.0915 164.388 89.2761 164.05 89.4711C152.095 96.2862 141.915 105.824 134.335 117.309C117.393 142.758 116.613 170.833 116.582 173.316L116.543 173.243C114.515 160.066 111.413 148.652 107.513 138.772L107.82 137.766L107.287 138.18C107.287 138.18 107.287 138.18 107.287 138.164C108.049 121.425 111.325 107.429 116.026 95.7475L116.465 95.8437L116.205 95.3003C124.419 75.1841 136.867 61.9917 147.925 53.6223C160.949 43.7683 172.05 40.5781 172.05 40.5781C177.973 47.8997 179.325 70.2961 179.609 82.3601Z" fill="#3FBDF1"/>
<path d="M104.607 140.631V140.605C104.607 140.605 104.607 140.621 104.607 140.631Z" stroke="#CCDDE2" stroke-width="1.0322" stroke-miterlimit="10"/>
<path d="M114.218 94.3875C114.151 94.5461 114.091 94.7021 114.023 94.8685C108.956 107.468 105.422 122.561 104.598 140.613C90.5321 105.401 67.1919 88.3529 46.3945 80.1707C46.7663 68.4031 48.3679 47.9437 54.9095 35.3701C54.9095 35.3701 65.9777 38.0143 79.9111 49.1683C90.9039 57.9667 103.693 72.0795 114.218 94.3875Z" stroke="#CCDDE2" stroke-width="1.0322" stroke-miterlimit="10"/>
<path d="M114.499 94.9743L114.023 94.8677C114.091 94.7013 114.151 94.5453 114.218 94.3867C114.312 94.5791 114.4 94.7793 114.499 94.9743Z" stroke="#CCDDE2" stroke-width="1.0322" stroke-miterlimit="10"/>
<path d="M104.607 140.631V140.605C104.607 140.605 104.607 140.621 104.607 140.631Z" stroke="#CCDDE2" stroke-width="1.0322" stroke-miterlimit="10"/>
<path d="M114.499 94.9743L114.023 94.8677C114.091 94.7013 114.151 94.5453 114.218 94.3867C114.312 94.5791 114.4 94.7793 114.499 94.9743Z" stroke="#CCDDE2" stroke-width="1.0322" stroke-miterlimit="10"/>
<path opacity="0.9" d="M28.4731 136.936C27.5553 135.815 26.6531 134.669 25.7847 133.504C14.0948 117.952 6.39431 99.7721 3.35707 80.555C2.60047 75.8464 2.71747 72.9916 2.71747 72.9916C2.71747 72.9916 22.9325 70.9428 46.3975 80.1702C67.1975 88.355 90.5299 105.39 104.598 140.612V140.641C104.684 140.852 104.773 141.062 104.843 141.281C109.055 151.941 112.398 164.244 114.588 178.461C114.588 178.487 114.588 178.513 114.588 178.541C114.439 178.541 114.299 178.541 114.151 178.541C85.1427 178.5 58.6877 166.93 38.7405 148.028C36.6605 146.059 34.6351 144.003 32.7007 141.873" stroke="#CCDDE2" stroke-width="1.0322" stroke-miterlimit="10"/>
<path d="M104.607 140.631V140.605C104.607 140.605 104.607 140.621 104.607 140.631Z" stroke="#CCDDE2" stroke-width="1.0322" stroke-miterlimit="10"/>
<path opacity="0.9" d="M225.842 73C220.816 131.981 172.976 178.284 114.635 178.521C114.669 175.843 115.508 145.569 133.779 118.12C141.95 105.736 152.924 95.4513 165.813 88.1008C166.18 87.8902 166.536 87.69 166.908 87.4898C167.358 87.2298 167.815 86.9906 168.273 86.7436C168.39 86.6734 168.517 86.6136 168.645 86.5434C169.094 86.3068 169.544 86.0702 170.002 85.844C170.238 85.7192 170.475 85.584 170.722 85.4826C171.213 85.2226 171.713 84.986 172.214 84.7494C172.716 84.5128 173.153 84.3022 173.629 84.0838L173.798 84.0032C174.154 83.8368 174.51 83.6808 174.874 83.5222C175.324 83.3116 175.771 83.1192 176.229 82.9268C177.56 82.3496 178.933 81.7984 180.332 81.2732L180.815 81.0886C181.408 80.8624 182.001 80.6414 182.604 80.4334C194.723 76.133 209.012 73.4186 225.842 73Z" stroke="#CCDDE2" stroke-width="1.0322" stroke-miterlimit="10"/>
<path d="M148.415 49.4418C136.499 58.4664 123.073 72.6936 114.217 94.388C103.692 72.08 90.903 57.9672 79.9102 49.1688C86.4102 37.0606 101.116 12.4698 114.49 0.964844C114.498 0.964844 134.744 20.9796 148.415 49.4418Z" stroke="#CCDDE2" stroke-width="1.0322" stroke-miterlimit="10"/>
<path d="M36.2082 113.874C36.2108 113.857 36.2108 113.839 36.2082 113.822C36.2082 113.803 36.2082 113.785 36.2082 113.751C36.204 113.722 36.204 113.692 36.2082 113.663C36.2155 113.725 36.2277 113.787 36.2446 113.848C36.2407 113.854 36.2355 113.86 36.2293 113.865C36.2228 113.869 36.2157 113.872 36.2082 113.874Z" fill="white"/>
<path d="M36.3037 130.684C35.9025 131.978 35.3901 133.235 34.7723 134.441C34.5955 134.781 34.4213 135.114 34.2289 135.447C33.5722 136.68 32.7662 137.827 31.8291 138.863C31.6627 138.809 31.4963 138.738 31.3481 138.679C31.3143 138.679 31.2857 138.653 31.2597 138.642C28.2307 137.321 25.9557 134.844 25.2797 132.059C24.6765 129.607 25.2199 126.955 24.0551 124.654C22.6199 121.82 18.7511 120.047 18.2675 116.844C17.8307 113.849 20.5269 111.1 20.0875 108.168C19.5883 104.847 15.5089 102.879 14.7549 99.6396C14.2739 97.6272 14.7029 95.3054 14.5287 93.2306C14.3275 90.9114 13.9344 88.613 13.3535 86.3588C13.6343 86.3406 13.9151 86.3328 14.1959 86.3224C19.9159 86.2262 25.5761 89.4424 27.4325 93.9742C28.9301 97.635 28.1683 101.863 30.1547 105.295C30.2751 105.516 30.4095 105.73 30.5577 105.934C30.8182 106.296 31.0988 106.643 31.3975 106.974L32.0293 107.632C32.1333 107.736 32.2477 107.832 32.3517 107.947C32.4557 108.061 32.5701 108.157 32.6767 108.272C33.6647 109.215 34.6735 110.17 35.3287 111.301C35.3893 111.399 35.4421 111.501 35.4873 111.607C35.5487 111.71 35.6007 111.818 35.6433 111.93C35.6997 112.044 35.7502 112.161 35.7941 112.281C35.8461 112.411 35.8903 112.541 35.9319 112.684C35.9943 112.894 36.0567 113.095 36.0983 113.305C36.0983 113.357 36.0983 113.401 36.1165 113.446C36.1347 113.49 36.1165 113.479 36.1165 113.498C36.1204 113.515 36.1204 113.532 36.1165 113.55C36.1202 113.58 36.1264 113.609 36.1347 113.638V113.656C36.1358 113.689 36.141 113.721 36.1503 113.752C36.1503 113.786 36.1503 113.804 36.1503 113.823C36.1529 113.84 36.1529 113.857 36.1503 113.875V113.893L35.4769 123.664C35.9085 126.027 36.9875 128.383 36.3037 130.684Z" fill="white"/>
<path d="M41.3903 106.966C41.8297 104.847 41.8635 102.624 42.8619 100.601C44.7183 96.873 50.1419 94.1664 55.8281 93.9922H55.9321C56.4521 93.9922 56.9721 93.9922 57.4921 94.0182C56.9038 95.9565 56.5026 97.9468 56.2935 99.9618C56.1011 101.756 56.5535 103.763 56.0569 105.487C55.2587 108.287 51.0129 109.987 50.4981 112.85C50.0405 115.388 52.8511 117.761 52.3883 120.343C51.8891 123.11 47.8617 124.641 46.3745 127.103C45.1733 129.092 45.7349 131.375 45.1135 133.486C44.3855 135.894 41.9935 138.039 38.8449 139.167C38.6421 139.237 38.4601 139.308 38.2573 139.37C38.1507 139.396 38.0285 139.44 37.9245 139.466C37.8881 139.44 37.8543 139.404 37.8101 139.37C36.7935 138.504 35.6547 137.043 34.7109 135.47L34.7811 134.472C35.3989 133.266 35.9114 132.009 36.3125 130.715C36.9963 128.414 35.9173 126.058 35.5325 123.695L36.2059 113.924L36.4165 113.75C36.4935 113.693 36.5663 113.631 36.6349 113.565C37.6749 112.725 38.7981 111.919 39.6015 110.965C40.5999 109.792 41.0653 108.505 41.3617 107.156" fill="white"/>
<path d="M41.3633 107.107C41.3633 107.063 41.3815 107.021 41.3893 106.967L41.3633 107.107Z" fill="white"/>
<path d="M41.3896 106.959C41.3896 107.014 41.3714 107.055 41.3636 107.1C41.0672 108.449 40.6018 109.736 39.6034 110.909C38.8 111.863 37.6794 112.669 36.6368 113.509C36.5684 113.575 36.4954 113.636 36.4184 113.693L36.2078 113.875C36.2114 113.864 36.2114 113.852 36.2078 113.841C36.1997 113.811 36.1904 113.782 36.1792 113.753C36.175 113.724 36.175 113.694 36.1792 113.665V113.646C36.1709 113.617 36.1649 113.588 36.161 113.558C36.1649 113.541 36.1649 113.523 36.161 113.506C36.1649 113.498 36.167 113.489 36.167 113.48C36.167 113.471 36.1649 113.462 36.161 113.454C36.1545 113.406 36.1449 113.36 36.1324 113.314C36.0908 113.103 36.0284 112.903 35.966 112.692C35.9244 112.56 35.8802 112.419 35.8282 112.289C35.7843 112.17 35.7338 112.052 35.6774 111.938C35.6405 111.824 35.588 111.715 35.5214 111.616C35.4764 111.51 35.4234 111.407 35.3628 111.309C34.7076 110.178 33.6988 109.229 32.7108 108.28C32.6042 108.166 32.4924 108.051 32.3858 107.955C32.2792 107.859 32.1674 107.744 32.0634 107.64L31.4316 106.983C31.1329 106.652 30.8526 106.304 30.5918 105.943C30.5918 105.943 31.1742 95.8208 36.3482 92.758C41.2336 89.8408 41.3896 105.251 41.3896 106.959Z" fill="white"/>
<path d="M41.3633 107.107C41.3633 107.063 41.3815 107.021 41.3893 106.967L41.3633 107.107Z" fill="white"/>
<path d="M36.2004 113.841V113.882C36.203 113.865 36.203 113.848 36.2004 113.83C36.2004 113.812 36.2004 113.794 36.2004 113.76C36.1962 113.731 36.1962 113.701 36.2004 113.672C36.1965 113.728 36.1965 113.785 36.2004 113.841Z" fill="white"/>
<path d="M53.7104 97.2314C44.3842 107.267 40.0006 128.431 38.2924 139.351C38.152 140.274 38.0324 141.117 37.918 141.876" fill="white"/>
<path d="M54.5706 148.025L50.2806 173.339C50.1789 174.031 49.8362 174.664 49.3131 175.128C48.7897 175.591 48.1195 175.854 47.4206 175.871H24.993C24.2884 175.853 23.6132 175.585 23.0887 175.113C22.5646 174.642 22.2255 173.999 22.133 173.3L18.1758 148.025H54.5706Z" fill="white"/>
<path d="M58.6447 145.202C58.6057 145.952 58.2851 146.659 57.7472 147.182C57.2093 147.706 56.4935 148.007 55.7431 148.026H17.0629C16.3198 148.008 15.6106 147.713 15.0742 147.198C14.5375 146.684 14.2131 145.988 14.1639 145.246C14.0001 143.442 15.3443 141.866 17.0629 141.866H55.7431C57.4435 141.879 58.7825 143.4 58.6447 145.202Z" fill="white"/>
<path d="M36.2259 113.893C36.2253 113.836 36.2157 113.78 36.1973 113.727L36.2259 113.893Z" fill="white"/>
<path d="M17.0586 90.0762C26.0104 101.703 30.2224 126.216 31.8786 138.87C32.019 139.968 32.1386 140.974 32.2452 141.873" fill="white"/>
<path d="M37.0144 102.432C35.8938 105.882 35.8392 109.366 35.9744 111.573C36.0103 112.286 36.0857 112.996 36.2006 113.7" fill="white"/>
<path d="M36.2082 113.874C36.2108 113.857 36.2108 113.839 36.2082 113.822C36.2082 113.803 36.2082 113.785 36.2082 113.751C36.204 113.722 36.204 113.692 36.2082 113.663C36.2155 113.725 36.2277 113.787 36.2446 113.848C36.2407 113.854 36.2355 113.86 36.2293 113.865C36.2228 113.869 36.2157 113.872 36.2082 113.874Z" stroke="#CCDDE2" stroke-width="1.0322" stroke-miterlimit="10"/>
<path d="M36.3037 130.684C35.9025 131.978 35.3901 133.235 34.7723 134.441C34.5955 134.781 34.4213 135.114 34.2289 135.447C33.5722 136.68 32.7662 137.827 31.8291 138.863C31.6627 138.809 31.4963 138.738 31.3481 138.679C31.3143 138.679 31.2857 138.653 31.2597 138.642C28.2307 137.321 25.9557 134.844 25.2797 132.059C24.6765 129.607 25.2199 126.955 24.0551 124.654C22.6199 121.82 18.7511 120.047 18.2675 116.844C17.8307 113.849 20.5269 111.1 20.0875 108.168C19.5883 104.847 15.5089 102.879 14.7549 99.6396C14.2739 97.6272 14.7029 95.3054 14.5287 93.2306C14.3275 90.9114 13.9344 88.613 13.3535 86.3588C13.6343 86.3406 13.9151 86.3328 14.1959 86.3224C19.9159 86.2262 25.5761 89.4424 27.4325 93.9742C28.9301 97.635 28.1683 101.863 30.1547 105.295C30.2751 105.516 30.4095 105.73 30.5577 105.934C30.8182 106.296 31.0988 106.643 31.3975 106.974L32.0293 107.632C32.1333 107.736 32.2477 107.832 32.3517 107.947C32.4557 108.061 32.5701 108.157 32.6767 108.272C33.6647 109.215 34.6735 110.17 35.3287 111.301C35.3893 111.399 35.4421 111.501 35.4873 111.607C35.5487 111.71 35.6007 111.818 35.6433 111.93C35.6997 112.044 35.7502 112.161 35.7941 112.281C35.8461 112.411 35.8903 112.541 35.9319 112.684C35.9943 112.894 36.0567 113.095 36.0983 113.305C36.0983 113.357 36.0983 113.401 36.1165 113.446C36.1347 113.49 36.1165 113.479 36.1165 113.498C36.1204 113.515 36.1204 113.532 36.1165 113.55C36.1202 113.58 36.1264 113.609 36.1347 113.638V113.656C36.1358 113.689 36.141 113.721 36.1503 113.752C36.1503 113.786 36.1503 113.804 36.1503 113.823C36.1529 113.84 36.1529 113.857 36.1503 113.875V113.893L35.4769 123.664C35.9085 126.027 36.9875 128.383 36.3037 130.684Z" stroke="#CCDDE2" stroke-width="1.0322" stroke-miterlimit="10"/>
<path d="M41.3903 106.966C41.8297 104.847 41.8635 102.624 42.8619 100.601C44.7183 96.873 50.1419 94.1664 55.8281 93.9922H55.9321C56.4521 93.9922 56.9721 93.9922 57.4921 94.0182C56.9038 95.9565 56.5026 97.9468 56.2935 99.9618C56.1011 101.756 56.5535 103.763 56.0569 105.487C55.2587 108.287 51.0129 109.987 50.4981 112.85C50.0405 115.388 52.8511 117.761 52.3883 120.343C51.8891 123.11 47.8617 124.641 46.3745 127.103C45.1733 129.092 45.7349 131.375 45.1135 133.486C44.3855 135.894 41.9935 138.039 38.8449 139.167C38.6421 139.237 38.4601 139.308 38.2573 139.37C38.1507 139.396 38.0285 139.44 37.9245 139.466C37.8881 139.44 37.8543 139.404 37.8101 139.37C36.7935 138.504 35.6547 137.043 34.7109 135.47L34.7811 134.472C35.3989 133.266 35.9114 132.009 36.3125 130.715C36.9963 128.414 35.9173 126.058 35.5325 123.695L36.2059 113.924L36.4165 113.75C36.4935 113.693 36.5663 113.631 36.6349 113.565C37.6749 112.725 38.7981 111.919 39.6015 110.965C40.5999 109.792 41.0653 108.505 41.3617 107.156" stroke="#CCDDE2" stroke-width="1.0322" stroke-miterlimit="10"/>
<path d="M41.3633 107.107C41.3633 107.063 41.3815 107.021 41.3893 106.967" stroke="#CCDDE2" stroke-width="1.0322" stroke-miterlimit="10"/>
<path d="M41.3896 106.959C41.3896 107.014 41.3714 107.055 41.3636 107.1C41.0672 108.449 40.6018 109.736 39.6034 110.909C38.8 111.863 37.6794 112.669 36.6368 113.509C36.5684 113.575 36.4954 113.636 36.4184 113.693L36.2078 113.875C36.2114 113.864 36.2114 113.852 36.2078 113.841C36.1997 113.811 36.1904 113.782 36.1792 113.753C36.175 113.724 36.175 113.694 36.1792 113.665V113.646C36.1709 113.617 36.1649 113.588 36.161 113.558C36.1649 113.541 36.1649 113.523 36.161 113.506C36.1649 113.498 36.167 113.489 36.167 113.48C36.167 113.471 36.1649 113.462 36.161 113.454C36.1545 113.406 36.1449 113.36 36.1324 113.314C36.0908 113.103 36.0284 112.903 35.966 112.692C35.9244 112.56 35.8802 112.419 35.8282 112.289C35.7843 112.17 35.7338 112.052 35.6774 111.938C35.6405 111.824 35.588 111.715 35.5214 111.616C35.4764 111.51 35.4234 111.407 35.3628 111.309C34.7076 110.178 33.6988 109.229 32.7108 108.28C32.6042 108.166 32.4924 108.051 32.3858 107.955C32.2792 107.859 32.1674 107.744 32.0634 107.64L31.4316 106.983C31.1329 106.652 30.8526 106.304 30.5918 105.943C30.5918 105.943 31.1742 95.8208 36.3482 92.758C41.2336 89.8408 41.3896 105.251 41.3896 106.959Z" stroke="#CCDDE2" stroke-width="1.0322" stroke-miterlimit="10"/>
<path d="M41.3633 107.107C41.3633 107.063 41.3815 107.021 41.3893 106.967" stroke="#CCDDE2" stroke-width="1.0322" stroke-miterlimit="10"/>
<path d="M36.2004 113.841V113.882C36.203 113.865 36.203 113.848 36.2004 113.83C36.2004 113.812 36.2004 113.794 36.2004 113.76C36.1962 113.731 36.1962 113.701 36.2004 113.672C36.1965 113.728 36.1965 113.785 36.2004 113.841Z" stroke="#CCDDE2" stroke-width="1.0322" stroke-miterlimit="10"/>
<path d="M53.7104 97.2314C44.3842 107.267 40.0006 128.431 38.2924 139.351C38.152 140.274 38.0324 141.117 37.918 141.876" stroke="#CCDDE2" stroke-width="1.0322" stroke-miterlimit="10"/>
<path d="M54.5706 148.025L50.2806 173.339C50.1789 174.031 49.8362 174.664 49.3131 175.128C48.7897 175.591 48.1195 175.854 47.4206 175.871H24.993C24.2884 175.853 23.6132 175.585 23.0887 175.113C22.5646 174.642 22.2255 173.999 22.133 173.3L18.1758 148.025H54.5706Z" stroke="#CCDDE2" stroke-width="1.0322" stroke-miterlimit="10"/>
<path d="M58.6447 145.202C58.6057 145.952 58.2851 146.659 57.7472 147.182C57.2093 147.706 56.4935 148.007 55.7431 148.026H17.0629C16.3198 148.008 15.6106 147.713 15.0742 147.198C14.5375 146.684 14.2131 145.988 14.1639 145.246C14.0001 143.442 15.3443 141.866 17.0629 141.866H55.7431C57.4435 141.879 58.7825 143.4 58.6447 145.202Z" stroke="#CCDDE2" stroke-width="1.0322" stroke-miterlimit="10"/>
<path d="M36.2259 113.893C36.2253 113.836 36.2157 113.78 36.1973 113.727L36.2259 113.893Z" stroke="#CCDDE2" stroke-width="1.0322" stroke-miterlimit="10"/>
<path d="M17.0586 90.0762C26.0104 101.703 30.2224 126.216 31.8786 138.87C32.019 139.968 32.1386 140.974 32.2452 141.873" stroke="#CCDDE2" stroke-width="1.0322" stroke-miterlimit="10"/>
<path d="M37.0144 102.432C35.8938 105.882 35.8392 109.366 35.9744 111.573C36.0103 112.286 36.0857 112.996 36.2006 113.7" stroke="#CCDDE2" stroke-width="1.0322" stroke-miterlimit="10"/>
<path d="M182.602 80.4327C181.999 80.6407 181.406 80.8617 180.813 81.0879L180.33 81.2725C178.931 81.7925 177.558 82.3489 176.227 82.9261C175.769 83.1185 175.322 83.3109 174.872 83.5215C174.508 83.6801 174.152 83.8361 173.796 84.0024L173.627 84.083C173.151 84.3014 172.678 84.5198 172.213 84.7486C171.747 84.9774 171.212 85.2297 170.72 85.4819C170.46 85.5963 170.237 85.7185 170 85.8433C169.542 86.0695 169.093 86.3061 168.643 86.5427C168.515 86.6129 168.383 86.6727 168.271 86.7429C167.813 86.9899 167.356 87.2343 166.906 87.4891C166.534 87.6893 166.178 87.8895 165.811 88.1001C152.923 95.4505 141.948 105.735 133.777 118.12C115.507 145.568 114.667 175.84 114.633 178.52L114.589 178.443C112.402 164.234 109.056 151.922 104.852 141.262L105.182 140.178L104.607 140.625C104.607 140.625 104.607 140.625 104.607 140.607C105.432 122.555 108.965 107.462 114.032 94.8627L114.508 94.9692C114.415 94.7742 114.321 94.574 114.227 94.3816C123.083 72.6872 136.509 58.4601 148.425 49.4355C162.465 38.8067 174.443 35.3643 174.443 35.3643C180.839 43.2683 182.295 67.4223 182.602 80.4327Z" stroke="#CCDDE2" stroke-width="1.0322" stroke-miterlimit="10"/>
<path d="M183.453 173.819C181.588 173.445 179.761 172.998 177.972 172.478C170.635 170.333 162.112 166.672 159.19 158.976C158.458 156.988 158.228 154.85 158.519 152.751C158.809 150.653 159.612 148.658 160.856 146.943C162.174 145.115 164.028 143.74 166.16 143.009C170.801 141.509 175.936 143.847 179.379 147.305C182.821 150.763 185.036 155.214 187.732 159.28C185.294 153.82 182.818 148.202 182.483 142.232C182.223 137.578 183.487 132.531 186.695 129.034C189.649 125.816 196.554 123.296 200.621 125.654C203.304 127.214 204.375 130.532 204.835 133.6C206.099 141.995 204.476 150.526 202.862 158.862C203.946 154.405 205.111 149.907 207.321 145.888C209.531 141.868 212.919 138.316 217.258 136.827C220.297 135.787 223.906 135.898 226.452 137.867C228.825 139.687 229.886 142.788 230.214 145.768C230.76 150.765 229.585 155.833 227.562 160.432C220.014 177.6 199.081 176.939 183.453 173.819Z" fill="white"/>
<path d="M200.482 165.32C200.482 165.32 212.117 168.552 216.225 152.38L200.482 165.32Z" fill="white"/>
<path d="M195.307 137.717C192.072 145.049 195.307 167.047 195.307 167.047V137.717Z" fill="white"/>
<path d="M184.525 164.821C184.039 164.738 179.372 164.085 175.394 162.258C172.313 160.843 169.643 158.722 169.643 155.617" fill="white"/>
<path d="M176.327 155.62C176.327 155.62 171.779 160.922 175.393 162.261L176.327 155.62Z" fill="white"/>
<path d="M173.309 167.083C173.956 166.184 177.323 167.988 179.523 163.742L173.309 167.083Z" fill="white"/>
<path d="M193.87 147.423C192.72 146.559 189.71 147.423 189.268 140.52L193.87 147.423Z" fill="white"/>
<path d="M194.371 153.891C194.371 153.891 199.405 152.071 199.405 148.132L194.371 153.891Z" fill="white"/>
<path d="M205.189 165.414C205.189 165.414 207.815 158.636 208.894 155.617L205.189 165.414Z" fill="white"/>
<path d="M213.344 158.937C213.344 158.937 216.227 161.223 219.677 157.557L213.344 158.937Z" fill="white"/>
<path d="M213.344 155.62C213.344 155.62 211.482 154.812 212.346 150.16L213.344 155.62Z" fill="white"/>
<path d="M183.453 173.819C181.57 173.559 179.758 173 177.972 172.478C170.635 170.333 162.112 166.672 159.19 158.976C158.458 156.988 158.228 154.85 158.519 152.751C158.809 150.653 159.612 148.658 160.856 146.943C162.174 145.115 164.028 143.74 166.16 143.009C170.801 141.509 175.936 143.847 179.379 147.305C182.821 150.763 185.036 155.214 187.732 159.28C185.294 153.82 182.818 148.202 182.483 142.232C182.223 137.578 183.487 132.531 186.695 129.034C189.649 125.816 196.554 123.296 200.621 125.654C203.304 127.214 204.375 130.532 204.835 133.6C206.099 141.995 204.476 150.526 202.862 158.862C203.946 154.405 205.111 149.907 207.321 145.888C209.531 141.868 212.919 138.316 217.258 136.827C220.297 135.787 223.906 135.898 226.452 137.867C228.825 139.687 229.886 142.788 230.214 145.768C230.76 150.765 229.655 155.866 227.562 160.432C219.892 177.147 198.798 175.884 183.453 173.819Z" stroke="#CCDDE2" stroke-width="1.0322" stroke-miterlimit="10"/>
<path d="M200.482 165.32C200.482 165.32 212.117 168.552 216.225 152.38" stroke="#CCDDE2" stroke-width="1.0322" stroke-miterlimit="10"/>
<path d="M195.307 137.717C192.072 145.049 195.307 167.047 195.307 167.047" stroke="#CCDDE2" stroke-width="1.0322" stroke-miterlimit="10"/>
<path d="M184.525 164.821C184.039 164.738 179.372 164.085 175.394 162.258C172.313 160.843 169.643 158.722 169.643 155.617" stroke="#CCDDE2" stroke-width="1.0322" stroke-miterlimit="10"/>
<path d="M176.327 155.62C176.327 155.62 171.779 160.922 175.393 162.261" stroke="#CCDDE2" stroke-width="1.0322" stroke-miterlimit="10"/>
<path d="M173.309 167.083C173.956 166.184 177.323 167.988 179.523 163.742" stroke="#CCDDE2" stroke-width="1.0322" stroke-miterlimit="10"/>
<path d="M193.87 147.423C192.72 146.559 189.71 147.423 189.268 140.52" stroke="#CCDDE2" stroke-width="1.0322" stroke-miterlimit="10"/>
<path d="M194.371 153.891C194.371 153.891 199.405 152.071 199.405 148.132" stroke="#CCDDE2" stroke-width="1.0322" stroke-miterlimit="10"/>
<path d="M205.189 165.414C205.189 165.414 207.815 158.636 208.894 155.617" stroke="#CCDDE2" stroke-width="1.0322" stroke-miterlimit="10"/>
<path d="M213.344 158.937C213.344 158.937 216.227 161.223 219.677 157.557" stroke="#CCDDE2" stroke-width="1.0322" stroke-miterlimit="10"/>
<path d="M213.344 155.62C213.344 155.62 211.482 154.812 212.346 150.16" stroke="#CCDDE2" stroke-width="1.0322" stroke-miterlimit="10"/>
<path d="M214.137 115.172C216.461 117.175 218.536 119.451 220.317 121.95C223.59 126.425 225.442 131.78 225.631 137.321" stroke="#CCDDE2" stroke-width="1.0322" stroke-miterlimit="10"/>
<path d="M133.051 23.5089C137.731 20.6905 142.611 18.1867 147.801 16.4187C160.741 11.9987 175.168 12.9789 185.42 22.6795C194.307 31.0801 198.508 43.5601 199.366 55.5201C199.366 55.6943 199.395 55.8789 199.403 56.0635C199.795 62.2255 199.473 69.0297 199.429 75.8391" stroke="#CCDDE2" stroke-width="1.0322" stroke-miterlimit="10"/>
<path d="M31.0393 75.4619C32.2119 67.9765 30.7793 60.9357 29.9993 53.2319C27.9921 33.1599 34.3751 9.14373 57.4969 6.14073C70.0601 4.50273 80.2573 9.19573 88.7515 18.1969C90.6599 20.2171 92.5683 22.5909 94.5885 24.8841" stroke="#CCDDE2" stroke-width="1.0322" stroke-miterlimit="10"/>
<path d="M22.0225 141.752C22.0225 141.752 4.5115 134.04 6.26389 119.55C6.75269 115.46 8.6793 111.802 11.1129 108.44" stroke="#CCDDE2" stroke-width="1.0322" stroke-miterlimit="10"/>
<path d="M180.18 151.413C179.514 150.932 178.821 150.477 178.1 150.045C170.908 145.789 161.109 144.138 152.893 143.644C152.391 143.607 151.897 143.581 151.408 143.561C150.761 143.532 150.127 143.363 149.552 143.064C148.956 142.763 148.438 142.328 148.039 141.793C147.636 140.209 147.151 138.647 146.588 137.113L145.433 131.913C145.003 130.409 144.665 128.879 144.422 127.334C143.226 119.516 142.342 109.8 142.03 106.162C142.068 106.178 142.107 106.19 142.147 106.196L145.717 107.34C145.73 107.339 145.743 107.339 145.756 107.34L147.022 107.712C151.931 109.105 157.081 110.151 162.196 110.262C167.016 110.364 172.304 109.573 176.423 106.906C176.769 106.687 177.106 106.453 177.432 106.204C180.609 103.812 182.816 100.141 184.067 96.4148C186.368 89.5235 186.865 82.1575 185.51 75.0194C185.126 73.0541 184.586 71.1223 183.895 69.2422C182.075 64.2372 179.447 59.5468 177.19 54.6822C176.67 53.5486 175.926 52.3604 175.835 51.102C175.726 49.6018 176.496 48.1588 176.737 46.7002C177.019 44.9476 177.15 43.1739 177.127 41.3988C177.124 39.2934 176.721 37.2077 175.939 35.2524C175.266 33.6093 174.07 30.8533 171.946 30.9546C171.264 28.7759 170.126 26.2538 168.121 25.9704C167.601 25.8906 167.07 26.0196 166.644 26.3292C166.497 26.1184 166.339 25.9161 166.168 25.7234C165.331 24.7822 163.748 23.9346 162.476 24.4234C159.954 25.4218 161.109 28.8928 162.359 31.5266C161.716 31.3881 161.055 31.3444 160.399 31.3966C158.93 31.5266 157.23 32.1194 156.66 33.5338C156.351 34.3138 156.46 35.7204 157.25 36.1624C158.254 36.7111 159.486 36.3471 160.49 36.8619C161.611 37.4391 162.05 38.986 161.886 40.156C161.855 40.6147 161.672 41.0499 161.366 41.3936C159.593 43.1668 158.376 38.2736 157.703 37.4676C156.788 36.3678 155.446 36.568 154.492 37.4962C152.607 39.3162 153.426 42.9823 154.216 45.1819C155.074 47.5895 156.19 50.1218 157.971 51.9964C160.932 55.1034 161.257 60.0564 162.04 64.063C162.362 65.7192 162.671 67.391 162.921 69.0602C163.415 72.2998 163.701 75.5602 163.441 78.831C163.375 79.7288 163.125 80.6035 162.705 81.3998C162.285 82.1962 161.705 82.8969 161.001 83.4585C160.298 84.0201 159.485 84.4301 158.616 84.6628C157.746 84.8955 156.838 84.946 155.948 84.811C153.829 84.4886 151.348 84.1038 148.707 83.6904C148.707 83.6904 148.728 83.6696 148.741 83.6644C145.14 82.4398 141.955 82.289 138.785 82.1226C129.844 80.7394 121.815 79.4394 121.815 79.4394C121.632 79.4056 121.467 79.3094 121.348 79.167C121.228 79.0247 121.162 78.8453 121.16 78.6594L121.051 68.7326C121.662 69.4814 122.988 69.5854 123.799 69.1512C124.121 68.9869 124.386 68.7287 124.56 68.411C124.733 68.093 124.806 67.7303 124.769 67.3702C125.295 67.3658 125.812 67.233 126.274 66.9828C126.411 66.9061 126.543 66.8193 126.667 66.7228C126.923 66.4927 127.13 66.2127 127.275 65.8997C127.419 65.5866 127.498 65.2473 127.506 64.9028C127.518 64.7125 127.508 64.5217 127.478 64.3334C127.478 64.2632 127.457 64.1956 127.444 64.1202C127.415 63.9746 127.382 63.8316 127.34 63.6782C127.319 63.5898 127.293 63.5014 127.265 63.4182C127.197 63.1582 127.122 62.8982 127.064 62.6382C127.095 62.6421 127.125 62.6421 127.155 62.6382C127.412 62.6237 127.667 62.5873 127.917 62.529C128.155 62.4724 128.388 62.3938 128.611 62.295C128.737 62.2394 128.86 62.177 128.978 62.1078C128.999 62.1008 129.017 62.0891 129.033 62.0741C129.234 61.9508 129.424 61.8107 129.602 61.6554C129.662 61.606 129.72 61.553 129.774 61.4968C129.875 61.4014 129.972 61.3008 130.062 61.1952C130.179 61.0593 130.287 60.9168 130.387 60.7688C130.436 60.7059 130.48 60.6391 130.517 60.5686C130.878 59.9899 131.142 59.3557 131.297 58.6914C131.31 58.629 131.326 58.5667 131.339 58.5069C131.859 56.0317 131.079 53.2055 128.905 52.2824C128.471 52.0978 126.932 51.9184 126.932 51.2658C126.933 51.2193 126.94 51.1728 126.953 51.128C126.95 51.1187 126.95 51.1088 126.953 51.0994C126.994 51.0025 127.053 50.9143 127.127 50.8394C127.161 50.7978 127.207 50.7563 127.249 50.7146C127.34 50.6341 127.441 50.5586 127.538 50.4806C127.636 50.4154 127.731 50.3444 127.821 50.2674C127.859 50.2357 127.896 50.2017 127.93 50.166C127.998 50.0906 128.068 50.0152 128.13 49.9398C128.192 49.8655 128.25 49.7872 128.302 49.7058C128.357 49.6226 128.411 49.5394 128.461 49.4458C128.515 49.3639 128.561 49.2768 128.598 49.1858C128.677 49.0317 128.741 48.8707 128.791 48.7048C128.879 48.4324 128.934 48.1505 128.955 47.865C128.955 47.7636 128.955 47.6596 128.955 47.5556C128.955 45.2728 127.093 42.9094 124.74 42.6598C124.36 42.6182 123.975 42.6635 123.614 42.7924C123.437 42.8538 123.264 42.925 123.094 43.0056L122.834 43.1278C122.657 43.211 122.478 43.2994 122.293 43.3878C122.138 43.4619 121.969 43.5043 121.797 43.5126C121.757 43.5113 121.718 43.5061 121.68 43.497L121.604 43.4762C121.55 43.4643 121.5 43.4362 121.461 43.3956C121.416 43.3624 121.378 43.32 121.35 43.2708C121.326 43.2233 121.31 43.1723 121.3 43.12C121.298 43.1169 121.297 43.1133 121.297 43.1096C121.297 43.106 121.298 43.1024 121.3 43.0992C121.287 43.0387 121.281 42.9768 121.282 42.9146C121.282 42.7862 121.3 42.6583 121.337 42.535C121.41 42.2665 121.447 41.9893 121.446 41.7108C121.446 41.61 121.439 41.5093 121.425 41.4092C121.412 41.2704 121.391 41.1323 121.363 40.9958C121.108 39.9902 120.503 39.108 119.657 38.5076C117.273 36.8228 112.803 36.815 111.571 39.9376C111.545 39.9844 111.532 40.0338 111.511 40.0806C111.353 39.896 111.194 39.7036 111.035 39.5112C110.926 39.4408 110.811 39.3781 110.692 39.3241C109.041 38.6039 106.678 38.9132 105.474 40.3224C104.476 41.4924 104.148 43.2994 105.035 44.6254C104.538 43.9832 103.863 43.5007 103.095 43.237C103.187 43.4942 103.309 43.7396 103.459 43.9676C103.389 43.872 103.313 43.7799 103.233 43.692C103.17 43.6218 103.108 43.5595 103.046 43.4996C102.983 43.4398 102.895 43.354 102.819 43.2916C102.744 43.2292 102.661 43.1616 102.58 43.0992C101.033 41.9656 98.7557 41.8486 97.3127 43.2656C96.1843 44.3732 95.9503 45.9046 96.3507 47.3892C96.7511 48.8738 97.7105 49.906 98.4307 51.1852C95.9893 51.7988 94.0367 54.5054 94.8063 57.043C94.967 57.568 95.2485 58.0479 95.6284 58.4444C96.008 58.8407 96.4755 59.1428 96.9929 59.3258C97.1783 59.3724 97.3668 59.4046 97.5571 59.422C97.6208 59.4285 97.6821 59.448 97.7378 59.4795C97.7937 59.511 97.8423 59.5533 97.8808 59.6043C97.9193 59.6553 97.9468 59.7138 97.9619 59.7759C97.977 59.838 97.9791 59.9025 97.9679 59.9654C97.9291 60.136 97.9091 60.3105 97.9081 60.4854C97.9096 60.9043 98.0191 61.3159 98.2258 61.6801C98.4325 62.0444 98.7297 62.3494 99.0885 62.5654C99.1418 62.5951 99.1883 62.6356 99.2255 62.684C99.2627 62.7324 99.2895 62.788 99.3043 62.847C99.3191 62.9063 99.3217 62.9679 99.3118 63.028C99.3022 63.0883 99.2801 63.1458 99.2471 63.1972C98.8857 63.7113 98.6733 64.3152 98.6332 64.9426C98.5934 65.5697 98.7276 66.1956 99.0209 66.7514C99.8243 68.3608 101.792 69.757 103.649 69.2058C104.246 69.0249 104.763 68.6437 105.113 68.1269C105.15 68.0878 105.182 68.0442 105.209 67.9968C105.216 67.9813 105.225 67.9672 105.237 67.9552C105.505 67.5561 105.682 67.1037 105.757 66.6292C106.215 67.3544 106.727 68.0436 107.289 68.691L107.627 69.068L106.6 75.4016L106.449 76.543C106.393 76.938 106.197 77.2996 105.896 77.5612C105.595 77.823 105.21 77.9673 104.811 77.9678C104.585 77.9678 104.351 77.9678 104.125 77.9678C103.664 77.9678 103.209 77.9808 102.757 77.9938C101.382 78.0276 100.011 78.09 98.6439 78.1732C97.6039 78.2408 96.5873 78.3162 95.5655 78.4072C95.0455 78.4488 94.5463 78.4956 94.0315 78.5502C93.5167 78.6048 93.0071 78.6542 92.4975 78.7088C91.5017 78.8206 90.4981 78.935 89.4997 79.0676C88.2959 79.2262 87.0999 79.39 85.8961 79.5616C84.0137 79.8372 82.1365 80.1388 80.2515 80.4638C78.4159 80.781 76.5881 81.1112 74.7525 81.4466C72.1733 81.9224 69.5681 82.3202 66.9525 82.7466C66.2656 82.8577 65.563 82.8207 64.8917 82.6385C64.2204 82.4562 63.5954 82.1328 63.059 81.6897C62.5226 81.247 62.0868 80.6945 61.7808 80.0697C61.4748 79.4449 61.3055 78.7621 61.2845 78.0666C60.9907 69.4866 65.8501 53.8372 65.8501 53.8372C65.9619 52.6204 67.4101 51.7572 68.2577 51.0656C70.6835 49.1494 72.1161 45.7174 72.9533 42.8288C73.5461 40.767 74.1077 37.8238 72.3631 36.1338C71.4063 35.2056 70.0647 35.0054 69.1521 36.1052C68.4787 36.9164 67.2619 41.8044 65.4861 40.0312C65.1808 39.6875 64.9978 39.2523 64.9661 38.7936C64.8127 37.6262 65.2261 36.0792 66.3597 35.4994C67.3633 34.9794 68.5957 35.3486 69.5993 34.8C70.3793 34.358 70.4989 32.9436 70.1895 32.1714C69.6201 30.757 67.9223 30.1642 66.4507 30.0342C65.7944 29.982 65.134 30.0257 64.4903 30.1642C65.7409 27.5304 66.8979 24.0594 64.3733 23.0636C63.1019 22.5618 61.5133 23.4068 60.6813 24.348C60.5123 24.541 60.3542 24.7432 60.2081 24.9538C59.7809 24.6452 59.2497 24.5163 58.7287 24.595C56.7137 24.8784 55.5879 27.4005 54.9067 29.5819C52.8033 29.4779 51.6125 32.1818 50.9313 33.8224C50.1593 35.7121 49.7493 37.7302 49.7223 39.7712C49.6573 41.9425 49.8107 44.1151 50.1799 46.2556C50.3515 47.1786 50.6609 48.0574 50.8819 48.9597C51.1237 49.9424 50.8611 50.9174 50.5049 51.8404C49.1087 55.3738 47.1405 58.681 45.6637 62.1884C44.0623 65.9005 42.7787 69.7412 41.8261 73.67C39.9905 81.4258 39.6135 89.6496 41.7585 97.3846C45.8145 112.002 66.3649 107.202 78.1377 103.105C83.0595 101.394 86.4577 99.7974 86.4577 99.7974C86.4577 99.7974 86.4837 100.931 86.4837 102.85V103.11C86.4707 105.71 86.2445 126.453 82.7501 141.683L82.6331 141.884C82.6617 141.863 82.7163 141.863 82.7501 142.047C82.5582 142.463 82.2509 142.815 81.8645 143.061C81.4782 143.308 81.0294 143.438 80.5713 143.436C72.2045 143.402 36.9719 144.59 43.6513 167.356C44.9019 171.633 48.1675 174.376 52.7513 175.998C56.3913 177.298 60.8659 177.862 65.8215 177.904H65.8553C56.1677 179.74 53.9135 194.151 64.7217 196.33C68.8817 197.167 72.1759 194.474 75.9147 193.325C78.0514 192.693 80.2762 192.41 82.5031 192.487C83.9562 192.522 85.4055 192.658 86.8399 192.893C102.547 195.465 118.485 196.331 134.378 195.477C145.124 194.887 156.078 193.538 166.275 189.942C173.961 187.228 182.395 182.477 186.181 175.122C187.522 172.533 188.215 169.658 188.201 166.742C188.19 159.813 184.987 154.884 180.18 151.413Z" fill="white"/>
<path d="M18.0488 175.608L17.6562 175.236" stroke="#CCDDE2" stroke-width="1.0322" stroke-miterlimit="10"/>
<path d="M146.595 136.734L145.438 131.521C145.008 130.017 144.671 128.487 144.43 126.942C143.234 119.124 142.35 109.41 142.035 105.773L145.763 106.961L144.463 104.067C144.463 104.067 140.181 89.6555 148.748 83.3089C142.552 81.2003 137.589 82.2845 131.791 80.9507C129.558 80.4307 127.199 79.9757 124.594 79.5493L122.709 79.2191C122.634 84.3411 119.069 85.5033 116.136 86.0597C108.916 87.4429 103.916 82.1753 104.124 77.5889C96.1086 77.6799 88.1864 78.7381 80.2538 80.0849C81.2782 83.0905 83.4362 92.0969 77.3652 102.746L78.1452 102.72C83.067 101.007 86.4652 99.4133 86.4652 99.4133C86.4652 99.4133 86.4938 100.547 86.4938 102.466V102.726C86.4808 105.31 86.2546 126.068 82.7602 141.297C82.5002 141.793 82.703 141.182 82.7602 141.733C82.5481 142.157 82.4025 142.61 82.3286 143.078L82.4976 142.404C81.5564 143.754 83.912 145.389 87.3154 146.213C96.2126 148.387 145.256 152.193 148.025 143.078C148.188 142.534 148.194 141.955 148.041 141.408C147.639 139.827 147.156 138.266 146.595 136.734Z" fill="#353642"/>
<path d="M82.501 192.095C80.2767 192.02 78.0547 192.304 75.9204 192.935C72.179 194.081 68.8796 196.778 64.7248 195.938C53.9166 193.759 56.1734 179.347 65.861 177.512C66.7892 177.491 67.7174 177.486 68.6378 177.486H68.7002C73.1618 177.486 77.509 177.603 81.0762 176.37C80.7408 176.68 72.049 184.389 82.501 192.095Z" fill="#3FBDF1"/>
<path d="M122.702 79.209V79.222C122.627 84.344 119.062 85.5062 116.13 86.0626C108.909 87.4458 103.91 82.1782 104.118 77.5918" stroke="black" stroke-width="1.0322" stroke-miterlimit="10"/>
<path d="M65.8688 177.513C56.1812 179.348 53.9244 193.76 64.7326 195.939C68.8926 196.779 72.1868 194.082 75.9282 192.936C78.0641 192.305 80.2879 192.021 82.514 192.096C83.964 192.136 85.4096 192.276 86.8404 192.515C102.546 195.091 118.485 195.963 134.379 195.115C145.125 194.522 156.076 193.175 166.273 189.579C173.961 186.862 182.393 182.112 186.179 174.759C187.521 172.17 188.214 169.294 188.199 166.377C188.199 159.44 184.988 154.51 180.191 151.037C179.523 150.556 178.828 150.103 178.111 149.669C170.919 145.413 161.122 143.762 152.906 143.268C152.405 143.234 151.908 143.206 151.422 143.185C150.774 143.158 150.141 142.99 149.565 142.691C148.968 142.392 148.45 141.956 148.052 141.419C147.665 140.911 147.393 140.325 147.254 139.701L146.601 136.737L145.444 131.524L144.43 126.943C143.234 119.124 142.35 109.411 142.036 105.773" stroke="black" stroke-width="1.0322" stroke-miterlimit="10"/>
<path d="M156.304 170.52C153.098 177.85 145.171 175.341 136.461 170.065C131.055 166.792 126.443 166.327 123.721 166.425C127.558 166.082 130.912 164.899 131.856 160.56C132.618 157.034 130.632 153.8 127.194 152.76C135.457 152.396 143.936 153.02 150.659 158.22C150.665 158.22 159.515 163.183 156.304 170.52Z" fill="#3FBDF1"/>
<path d="M127.14 62.2287C127.111 62.2326 127.081 62.2326 127.052 62.2287C127.132 62.6343 127.286 63.0685 127.387 63.5001C127.469 63.8264 127.504 64.1624 127.491 64.4985C127.382 66.0715 126.267 66.9243 124.753 66.9659C124.792 67.3268 124.72 67.6911 124.547 68.0104C124.375 68.3296 124.109 68.5891 123.786 68.7547C122.975 69.1811 121.646 69.0849 121.035 68.3335C120.313 67.4625 120.671 66.3809 121.111 65.4267C121.269 65.0913 121.428 64.7741 121.558 64.4855C121.717 64.1267 121.854 63.7705 121.977 63.4065C122.409 62.0595 122.745 60.683 122.98 59.2881C123.268 57.8789 123.458 56.4515 123.55 55.0163C123.453 54.6679 123.516 54.1635 123.378 53.7995C123.178 53.2377 122.816 52.7476 122.338 52.3903C121.35 51.6623 120.034 51.7091 118.984 51.0643C118.033 50.4721 117.283 49.6068 116.831 48.5813C116.743 48.3681 116.66 48.0925 116.535 47.8533C116.479 47.7233 116.395 47.6079 116.288 47.5153C115.815 47.1175 115.539 47.8195 115.248 48.0925C114.949 48.3681 114.596 48.5772 114.21 48.7054C113.824 48.8335 113.416 48.878 113.012 48.8361C112.706 48.7958 112.409 48.708 112.13 48.5761C111.926 48.4649 111.735 48.3307 111.561 48.1757C111.355 47.9748 111.114 47.812 110.851 47.6947C110.357 47.5101 110.331 48.3265 110.261 48.6099C110.214 48.8549 110.112 49.086 109.963 49.2859C109.814 49.4859 109.622 49.6494 109.4 49.7643C109.133 49.8956 108.84 49.9658 108.542 49.9697C108.196 49.9838 107.849 49.937 107.518 49.8319C107.199 49.737 106.895 49.5961 106.616 49.4133C106.566 49.3795 106.507 49.3606 106.447 49.3585C106.387 49.3564 106.327 49.3712 106.275 49.4011C106.223 49.4313 106.18 49.4755 106.152 49.5285C106.123 49.5816 106.11 49.6416 106.114 49.7019C106.21 52.3903 103.696 53.3263 102.664 53.6019C102.317 58.0388 103.401 62.4703 105.758 66.2457C105.671 66.792 105.448 67.3078 105.11 67.7459C103.413 68.1723 101.452 67.7095 100.716 66.2457C99.9365 64.6857 100.043 62.5251 101.255 61.4123C100.415 61.2823 100.181 60.0421 100.662 59.3141C100.703 59.2439 100.722 59.2023 100.696 59.1347C100.592 58.8513 99.3567 58.6147 99.0187 58.5107C98.5364 58.3386 98.1009 58.0563 97.747 57.686C97.3931 57.3158 97.1305 56.8683 96.9803 56.3787C96.2653 54.0205 98.0801 51.5037 100.347 50.9343C99.6739 49.7435 98.7873 48.7815 98.4103 47.4061C98.0333 46.0307 98.2465 44.6007 99.2969 43.5607C99.724 43.1544 100.246 42.8611 100.816 42.7077C101.385 42.5543 101.983 42.5454 102.557 42.6819C102.892 42.925 103.188 43.2168 103.436 43.5477C103.283 43.3221 103.161 43.0771 103.072 42.8197C103.841 43.0808 104.516 43.5639 105.012 44.2081C104.125 42.8821 104.455 41.0725 105.451 39.9025C106.655 38.4933 109.021 38.1839 110.669 38.9067C110.789 38.9603 110.904 39.0222 111.015 39.0913C111.171 39.2863 111.33 39.4787 111.488 39.6633C111.506 39.6134 111.526 39.5648 111.551 39.5177C111.885 39.8617 112.202 40.2226 112.5 40.5993C113.571 37.5521 117.827 37.5443 120.076 39.1329C120.606 39.5107 121.039 40.0076 121.342 40.5837C121.456 41.09 121.447 41.6162 121.314 42.1177C121.176 42.5987 121.285 42.9627 121.594 43.0667C121.827 43.1234 122.073 43.0917 122.283 42.9783C123.108 42.6065 123.789 42.1515 124.746 42.2555C127.866 42.5857 130.141 46.6417 128.292 49.2885C128.182 49.4529 128.058 49.607 127.92 49.7487C127.66 50.0087 127.075 50.3129 126.945 50.6847C126.942 50.6938 126.942 50.704 126.945 50.7133C126.711 51.4933 128.438 51.6675 128.898 51.8677C132.975 53.5863 132.114 61.9687 127.14 62.2287Z" fill="#3FBDF1"/>
<path d="M56.264 41.0876C55.2942 39.0232 56.004 36.1294 57.109 33.9428C57.954 32.245 57.2806 29.5228 55.1226 29.2186C52.8814 28.917 51.6282 31.7432 50.9288 33.4488C50.1553 35.339 49.7442 37.3579 49.7172 39.4002C49.6597 41.572 49.8191 43.7443 50.193 45.8846C50.3646 46.805 50.674 47.6864 50.8924 48.586C51.1342 49.5688 50.8716 50.5464 50.5154 51.4668C49.1192 55.0002 47.1536 58.3074 45.6742 61.8148C44.0752 65.5273 42.7924 69.3681 41.8392 73.2964C40.0036 81.0522 39.624 89.276 41.769 97.011C45.825 111.628 66.378 106.829 78.1482 102.731C83.07 101.018 86.4682 99.4238 86.4682 99.4238C86.4682 99.4238 86.4968 100.557 86.4968 102.476C86.4968 102.565 86.4968 102.656 86.4968 102.736C86.5124 110.45 86.203 129.833 82.8802 141.349C82.7364 141.845 82.4343 142.281 82.0199 142.591C81.6054 142.9 81.1015 143.066 80.5844 143.062C72.2176 143.028 36.9876 144.217 43.6644 166.969C45.9212 174.655 54.6598 177.419 65.8242 177.515H65.8736C66.781 177.515 67.7092 177.515 68.6504 177.489H68.7128C72.8601 177.345 76.9961 176.971 81.1018 176.368C95.6462 174.319 111.121 169.946 121.118 166.795C121.695 166.643 122.284 166.545 122.879 166.501C123.126 166.473 123.399 166.452 123.705 166.439H123.731C126.448 166.33 131.061 166.795 136.471 170.079C145.181 175.354 153.111 177.863 156.315 170.534C159.518 163.204 150.665 158.22 150.665 158.22C143.941 153.02 135.463 152.404 127.2 152.76C124.649 152.872 122.112 153.085 119.66 153.28C109.847 154.062 100.033 154.842 90.2174 155.62L77.3578 156.66" stroke="black" stroke-width="1.0322" stroke-miterlimit="10"/>
<path d="M59.7617 39.7094C59.7617 39.7094 58.3603 36.8777 60.0945 32.4499C60.8095 30.6299 61.6337 28.428 61.2957 26.4338C61.1899 25.6954 60.7976 25.0285 60.2037 24.5771C59.7768 24.2683 59.2451 24.1401 58.7243 24.2209C56.7119 24.5017 55.5835 27.0266 54.9023 29.2054" stroke="black" stroke-width="1.0322" stroke-miterlimit="10"/>
<path d="M62.688 38.0663C62.688 38.0663 61.3569 35.8121 63.1717 32.3463C63.4759 31.7691 63.9907 30.8461 64.4717 29.7957C65.7249 27.1619 66.8793 23.6909 64.3547 22.6925C63.0833 22.1907 61.4947 23.0357 60.6627 23.9795C60.4937 24.1714 60.3356 24.3729 60.1895 24.5827" stroke="black" stroke-width="1.0322" stroke-miterlimit="10"/>
<path d="M64.4801 29.78C65.1236 29.6404 65.7843 29.5965 66.4405 29.65C67.9121 29.78 69.6099 30.3702 70.1819 31.7872C70.4913 32.5672 70.3795 33.9738 69.5891 34.4132C68.5855 34.9644 67.3557 34.6004 66.3521 35.1152C65.2315 35.6924 64.7921 37.2394 64.9559 38.4094C64.9876 38.8681 65.1704 39.3033 65.4759 39.647C67.2491 41.4202 68.4659 36.527 69.1393 35.721C70.0545 34.6212 71.3935 34.8188 72.3503 35.747C74.0975 37.437 73.5333 40.3776 72.9379 42.442C72.1033 45.3306 70.6707 48.7626 68.2579 50.6762C67.3947 51.3574 65.9595 52.2362 65.8503 53.453C65.8503 53.453 60.9909 69.092 61.2821 77.6798C61.3032 78.3751 61.4722 79.0576 61.7782 79.6824C62.084 80.3069 62.5195 80.8591 63.0558 81.3019C63.592 81.7449 64.2165 82.0684 64.8875 82.2509C65.5586 82.4332 66.2608 82.4703 66.9475 82.3598C69.5475 81.936 72.1631 81.5382 74.7475 81.0598C76.5831 80.7244 78.4109 80.3942 80.2465 80.077C88.4079 78.6886 96.5563 77.6096 104.806 77.5732C105.205 77.574 105.59 77.4305 105.891 77.1689C106.192 76.9076 106.389 76.546 106.444 76.151L106.6 75.02L107.627 68.6734" stroke="black" stroke-width="1.0322" stroke-miterlimit="10"/>
<path d="M170.584 42.463C171.554 40.3986 170.844 37.5048 169.739 35.3182C168.886 33.6204 169.568 30.8982 171.726 30.594C171.801 30.594 171.876 30.581 171.947 30.581C174.071 30.477 175.267 33.2356 175.94 34.8788C176.723 36.8337 177.127 38.9194 177.131 41.0252C177.151 42.8005 177.02 44.5739 176.738 46.3266C176.499 47.7826 175.727 49.2282 175.839 50.7258C175.927 51.9842 176.671 53.175 177.193 54.3086C179.448 59.1628 182.087 63.8506 183.896 68.8686C184.586 70.7479 185.126 72.6786 185.511 74.6432C186.87 81.7791 186.377 89.1444 184.081 96.036C182.828 99.7644 180.623 103.436 177.446 105.828C177.116 106.076 176.779 106.31 176.434 106.53C172.316 109.197 167.027 109.988 162.21 109.884C157.093 109.774 151.945 108.729 147.033 107.333C146.175 107.087 145.321 106.827 144.47 106.553C143.575 106.27 142.689 105.981 141.802 105.679C140.874 105.357 139.946 105.032 139.025 104.689" stroke="black" stroke-width="1.0322" stroke-miterlimit="10"/>
<path d="M171.946 30.5811C171.265 28.4023 170.126 25.8777 168.124 25.5969C167.603 25.516 167.072 25.6442 166.645 25.9531C166.051 26.4045 165.659 27.0714 165.553 27.8095C165.215 29.8037 166.039 32.0033 166.754 33.8259C168.488 38.2459 167.084 41.0877 167.084 41.0877" stroke="black" stroke-width="1.0322" stroke-miterlimit="10"/>
<path d="M166.645 25.9529C166.499 25.7397 166.336 25.5421 166.172 25.3471C165.332 24.4059 163.751 23.5609 162.477 24.0627C159.955 25.0585 161.11 28.5321 162.363 31.1659C162.857 32.2059 163.372 33.1393 163.663 33.7165C165.483 37.1875 164.144 39.4365 164.144 39.4365" stroke="black" stroke-width="1.0322" stroke-miterlimit="10"/>
<path d="M162.362 31.166C161.718 31.0266 161.058 30.9819 160.401 31.0334C158.93 31.166 157.232 31.7562 156.66 33.1732C156.35 33.9532 156.462 35.3598 157.253 35.7992C158.256 36.3504 159.486 35.9838 160.49 36.5012C161.61 37.0784 162.05 38.6254 161.886 39.7954C161.854 40.254 161.671 40.6893 161.366 41.033C159.593 42.8062 158.376 37.913 157.702 37.107C156.787 36.0046 155.448 36.2048 154.491 37.133C152.606 38.953 153.425 42.619 154.216 44.8212C155.076 47.2262 156.189 49.7612 157.97 51.6332C160.934 54.7532 161.257 59.6932 162.042 63.6998C162.364 65.3586 162.674 67.0278 162.921 68.6996C163.415 71.9366 163.701 75.1996 163.441 78.4704C163.374 79.3682 163.123 80.2428 162.703 81.0392C162.283 81.8356 161.703 82.5365 160.999 83.0979C160.295 83.6595 159.483 84.0695 158.613 84.3022C157.743 84.5349 156.835 84.5853 155.945 84.4504C144.318 82.6694 121.815 79.0528 121.815 79.0528C121.63 79.0211 121.463 78.9254 121.343 78.7829C121.222 78.6402 121.155 78.4597 121.154 78.2728L121.045 68.3434" stroke="black" stroke-width="1.0322" stroke-miterlimit="10"/>
<path d="M102.652 53.5938C102.177 58.708 103.952 64.4904 107.28 68.302C113.489 75.4026 118.72 68.302 118.72 68.302" stroke="black" stroke-width="1.0322" stroke-miterlimit="10"/>
<path d="M123.616 55.1802C123.434 54.8422 123.541 54.2312 123.385 53.8022C123.183 53.2401 122.822 52.7495 122.345 52.3904C121.352 51.665 120.039 51.7092 118.991 51.0696C118.039 50.4742 117.287 49.6076 116.833 48.5814C116.687 48.2538 116.573 47.7546 116.295 47.518C115.819 47.1202 115.543 47.8196 115.255 48.0952C114.843 48.479 114.325 48.7301 113.769 48.8164C113.212 48.9025 112.643 48.8198 112.135 48.5788C111.667 48.3474 111.342 47.882 110.853 47.6974C110.364 47.5128 110.333 48.3266 110.26 48.6126C110.213 48.8573 110.112 49.0881 109.964 49.2886C109.816 49.4888 109.625 49.6531 109.405 49.7696C108.544 50.1934 107.369 49.9152 106.62 49.4134C106.57 49.3786 106.511 49.3591 106.45 49.3565C106.389 49.3541 106.328 49.3689 106.276 49.3994C106.223 49.43 106.18 49.4748 106.151 49.5288C106.123 49.5827 106.111 49.6438 106.116 49.7046C106.233 53.0846 102.229 53.6904 102.229 53.6904" stroke="black" stroke-width="1.0322" stroke-miterlimit="10"/>
<path d="M108.302 61.032C110.304 61.032 111.927 59.4093 111.927 57.4076C111.927 55.4059 110.304 53.7832 108.302 53.7832C106.3 53.7832 104.678 55.4059 104.678 57.4076C104.678 59.4093 106.3 61.032 108.302 61.032Z" stroke="black" stroke-width="1.0322" stroke-miterlimit="10"/>
<path d="M117.697 60.7088C119.698 60.7088 121.321 59.0861 121.321 57.0844C121.321 55.0826 119.698 53.46 117.697 53.46C115.695 53.46 114.072 55.0826 114.072 57.0844C114.072 59.0861 115.695 60.7088 117.697 60.7088Z" stroke="black" stroke-width="1.0322" stroke-miterlimit="10"/>
<path d="M106.787 57.7715C106.787 57.7715 108.248 59.4485 109.751 57.7715" stroke="black" stroke-width="1.0322" stroke-miterlimit="10"/>
<path d="M116.221 57.7715C116.221 57.7715 117.682 59.4485 119.187 57.7715" stroke="black" stroke-width="1.0322" stroke-miterlimit="10"/>
<path d="M113.435 65.7661C114.14 65.7661 114.711 65.1946 114.711 64.4895C114.711 63.7844 114.14 63.2129 113.435 63.2129C112.73 63.2129 112.158 63.7844 112.158 64.4895C112.158 65.1946 112.73 65.7661 113.435 65.7661Z" stroke="black" stroke-width="1.0322" stroke-miterlimit="10"/>
<path d="M111.928 57.4076C111.928 57.4076 112.749 56.0686 114.073 57.0852" stroke="black" stroke-width="1.0322" stroke-miterlimit="10"/>
<path d="M110.262 52.0282C110.262 52.0282 106.5 49.1526 103.346 51.8644" stroke="black" stroke-width="1.0322" stroke-miterlimit="10"/>
<path d="M121.27 50.5201C121.27 50.5201 116.801 48.9602 114.643 52.5092" stroke="black" stroke-width="1.0322" stroke-miterlimit="10"/>
<path d="M105.637 66.12C105.629 66.7227 105.431 67.3072 105.071 67.7913C104.712 68.2752 104.21 68.6337 103.635 68.8162C101.779 69.3648 99.8132 67.9712 99.0072 66.3618C98.7134 65.8057 98.5793 65.1791 98.6199 64.5512C98.6602 63.9235 98.8734 63.3191 99.2361 62.805C99.2686 62.7536 99.2901 62.6961 99.2995 62.636C99.3089 62.576 99.306 62.5146 99.2909 62.4558C99.2758 62.3968 99.2488 62.3417 99.2116 62.2936C99.1747 62.2455 99.1282 62.2055 99.0749 62.1758C98.714 61.9587 98.4155 61.6519 98.2088 61.2851C98.0018 60.9182 97.8937 60.504 97.8944 60.0828C97.8955 59.9081 97.9145 59.7337 97.9517 59.5628C97.9636 59.4997 97.9621 59.4347 97.9475 59.3723C97.9329 59.3096 97.9054 59.2508 97.8666 59.1993C97.8279 59.1481 97.779 59.1052 97.7231 59.0738C97.667 59.0423 97.6048 59.0231 97.5409 59.0168C97.3516 58.9997 97.1639 58.9685 96.9793 58.9232C96.4621 58.7397 95.9949 58.4378 95.615 58.0413C95.2354 57.6451 94.9539 57.1651 94.7927 56.6404C94.0127 54.1028 95.9757 51.3936 98.4171 50.7826C97.6891 49.5034 96.7245 48.4712 96.3371 46.9866C95.9497 45.502 96.1733 43.968 97.2991 42.8604C99.0541 41.1418 102.031 41.6774 103.445 43.5624C102.491 42.1324 102.847 40.1824 103.921 38.9292C105.221 37.416 107.756 37.0858 109.532 37.8554C110.377 38.2272 110.92 38.9968 111.498 39.6754C112.652 36.4098 117.218 36.389 119.646 38.0998C120.91 39.002 121.726 40.6374 121.323 42.1298C121.11 42.8864 121.502 43.3388 122.293 42.9904C123.083 42.642 123.798 42.1636 124.755 42.2676C128.067 42.6186 130.42 47.1556 127.93 49.7608C127.67 50.0364 127.085 50.325 126.955 50.6968C126.671 51.4768 128.431 51.6796 128.899 51.8798C133.013 53.6062 132.11 62.077 127.079 62.2486C127.23 62.9688 127.573 63.767 127.519 64.5106C127.41 66.0836 126.294 66.9364 124.781 66.9858C124.818 67.3457 124.746 67.7084 124.573 68.0261C124.4 68.3438 124.136 68.6022 123.814 68.7668C123.003 69.1984 121.674 69.097 121.063 68.3456C120.085 67.1652 121.089 65.6182 121.583 64.4898C122.311 62.8388 122.67 61.0578 123 59.2898C123.302 57.825 123.497 56.3399 123.582 54.8464V54.784" stroke="black" stroke-width="1.0322" stroke-miterlimit="10"/>
<path d="M0 175.608H52.8398" stroke="black" stroke-width="1.0322" stroke-miterlimit="10"/>
<path d="M185.801 175.608H234" stroke="black" stroke-width="1.0322" stroke-miterlimit="10"/>
</svg>
