<svg width="120" height="120" viewBox="0 0 120 120" fill="none" xmlns="http://www.w3.org/2000/svg">
<g clip-path="url(#clip0_668_9345)">
<path d="M0 60C0 26.8629 26.8629 0 60 0C93.1371 0 120 26.8629 120 60C120 93.1371 93.1371 120 60 120C26.8629 120 0 93.1371 0 60Z" fill="#8E8E8E"/>
<circle cx="60" cy="117" r="38" fill="#D9D9D9"/>
<circle cx="60.5" cy="59.5" r="28.5" fill="#D9D9D9"/>
</g>
<defs>
<clipPath id="clip0_668_9345">
<path d="M0 60C0 26.8629 26.8629 0 60 0C93.1371 0 120 26.8629 120 60C120 93.1371 93.1371 120 60 120C26.8629 120 0 93.1371 0 60Z" fill="white"/>
</clipPath>
</defs>
</svg>
