<svg width="352" height="245" viewBox="0 0 352 245" fill="none" xmlns="http://www.w3.org/2000/svg">
<path d="M321.362 25.9355H251.167C247.593 25.9355 244.695 28.8365 244.695 32.415V132.92C244.695 136.499 247.593 139.4 251.167 139.4H321.362C324.936 139.4 327.833 136.499 327.833 132.92V32.415C327.833 28.8365 324.936 25.9355 321.362 25.9355Z" stroke="#CCDDE2" stroke-width="1.8837" stroke-miterlimit="10"/>
<path d="M318.333 37.625H255.048C253.261 37.625 251.812 39.0755 251.812 40.8647V54.3415C251.812 56.1307 253.261 57.5812 255.048 57.5812H318.333C320.12 57.5812 321.569 56.1307 321.569 54.3415V40.8647C321.569 39.0755 320.12 37.625 318.333 37.625Z" stroke="#CCDDE2" stroke-width="1.8837" stroke-miterlimit="10"/>
<path d="M286.265 46.0309C287.403 46.0309 288.326 45.1068 288.326 43.9671C288.326 42.8273 287.403 41.9033 286.265 41.9033C285.126 41.9033 284.204 42.8273 284.204 43.9671C284.204 45.1068 285.126 46.0309 286.265 46.0309Z" fill="#D7E8F0"/>
<path d="M280.505 53.3059C280.505 51.7764 281.112 50.3096 282.192 49.2282C283.272 48.1465 284.737 47.5391 286.264 47.5391C287.792 47.5391 289.257 48.1465 290.337 49.2282C291.417 50.3096 292.024 51.7764 292.024 53.3059H280.505Z" fill="#D7E8F0"/>
<path d="M286.685 78.9707C284.489 78.9715 282.342 79.6241 280.517 80.846C278.692 82.0679 277.269 83.8046 276.429 85.836C275.59 87.8675 275.37 90.1026 275.799 92.259C276.228 94.4151 277.286 96.3955 278.839 97.95C280.392 99.5044 282.37 100.563 284.524 100.991C286.678 101.42 288.91 101.2 290.938 100.358C292.967 99.5165 294.7 98.0917 295.92 96.2635C297.14 94.4353 297.791 92.2863 297.791 90.0878C297.791 88.6276 297.504 87.1814 296.946 85.8325C296.387 84.4833 295.57 83.2575 294.538 82.2252C293.507 81.193 292.282 80.3741 290.935 79.8157C289.587 79.2573 288.143 78.9699 286.685 78.9707ZM286.685 98.522C286.268 98.5013 285.874 98.321 285.587 98.0185C285.299 97.7159 285.138 97.3141 285.138 96.8963C285.138 96.4781 285.299 96.0762 285.587 95.7737C285.874 95.4711 286.268 95.2908 286.685 95.2706C287.101 95.2908 287.495 95.4711 287.782 95.7737C288.07 96.0762 288.231 96.4781 288.231 96.8963C288.231 97.3141 288.07 97.7159 287.782 98.0185C287.495 98.321 287.101 98.5013 286.685 98.522ZM288.734 86.0187C288.392 88.429 288.104 90.96 287.385 93.3041C287.213 93.8688 286.156 93.8688 285.985 93.3041C285.478 91.5418 285.088 89.7479 284.818 87.9345C284.596 86.6144 283.826 84.4767 284.561 83.1956C285.211 82.0274 287.038 81.9106 288.1 82.5103C289.403 83.2462 288.89 84.8194 288.734 86.0187Z" fill="#D7E8F0"/>
<path d="M165.198 48.462C161.305 47.2996 157.155 47.3195 153.274 48.5184C149.392 49.7178 145.953 52.0424 143.391 55.1988C140.829 58.3552 139.259 62.2012 138.881 66.2509C138.502 70.3001 139.331 74.3712 141.263 77.9489C143.195 81.5266 146.144 84.4505 149.735 86.3504C153.327 88.2502 157.401 89.041 161.441 88.6228C165.482 88.2043 169.308 86.5957 172.435 84C175.562 81.4047 177.851 77.9388 179.011 74.041C179.782 71.4531 180.036 68.7387 179.759 66.0527C179.482 63.3666 178.679 60.7616 177.396 58.3863C176.113 56.0111 174.376 53.9122 172.283 52.2094C170.19 50.5063 167.782 49.233 165.198 48.462ZM154.88 83.1177C154.139 82.8723 153.521 82.3475 153.16 81.6539C152.798 80.9608 152.721 80.1536 152.944 79.404C153.167 78.6545 153.673 78.0217 154.355 77.6397C155.037 77.2577 155.84 77.1569 156.595 77.3586C156.983 77.4622 157.347 77.6428 157.664 77.8893C157.981 78.1362 158.245 78.4442 158.441 78.795C158.637 79.1459 158.761 79.5329 158.805 79.9324C158.85 80.332 158.813 80.7365 158.698 81.122C158.584 81.5071 158.393 81.8658 158.137 82.1761C157.882 82.4861 157.567 82.7419 157.21 82.928C156.855 83.1141 156.465 83.2267 156.065 83.2594C155.664 83.2917 155.262 83.2438 154.88 83.1177ZM165.108 62.0361C163.23 66.1286 161.379 70.4625 158.886 74.2357C158.287 75.1468 156.409 74.5861 156.405 73.4958C156.437 70.1074 156.696 66.7251 157.182 63.3717C157.486 60.9224 157.249 56.7248 159.228 54.8402C160.986 53.1541 164.284 53.8784 165.859 55.4982C167.753 57.4763 166.018 59.9957 165.108 62.0361Z" fill="#3FBDF1"/>
<path d="M107.836 93.9928C106.411 95.444 105.449 97.2854 105.07 99.2842C104.691 101.283 104.912 103.349 105.706 105.222C106.5 107.095 107.83 108.69 109.53 109.806C111.229 110.921 113.22 111.508 115.252 111.49C117.284 111.473 119.265 110.853 120.945 109.708C122.625 108.563 123.928 106.946 124.689 105.06C125.451 103.173 125.637 101.103 125.224 99.1113C124.811 97.1192 123.817 95.2949 122.369 93.8682C120.424 91.9555 117.802 90.894 115.076 90.9174C112.351 90.9407 109.747 92.047 107.836 93.9928ZM120.724 106.675C120.585 106.816 120.421 106.928 120.239 107.005C120.058 107.083 119.863 107.123 119.666 107.125C119.469 107.127 119.273 107.09 119.09 107.016C118.907 106.942 118.741 106.833 118.6 106.695C118.459 106.556 118.347 106.392 118.27 106.21C118.193 106.028 118.153 105.833 118.151 105.636C118.149 105.438 118.186 105.242 118.26 105.059C118.333 104.876 118.443 104.71 118.581 104.569C118.86 104.284 119.24 104.122 119.639 104.118C120.037 104.115 120.42 104.27 120.704 104.549C120.988 104.828 121.15 105.21 121.154 105.608C121.157 106.007 121.002 106.391 120.724 106.675ZM113.813 97.2169C115.178 99.0081 116.66 100.842 117.737 102.836C117.997 103.315 117.313 104.004 116.831 103.763C115.345 102.951 113.916 102.04 112.553 101.037C111.538 100.332 109.632 99.452 109.263 98.132C108.928 96.9638 110.041 95.6633 111.106 95.3556C112.417 94.974 113.121 96.333 113.813 97.2169Z" fill="#3FBDF1"/>
<path d="M258.789 66.4912H313.028" stroke="#CCDDE2" stroke-width="1.8837" stroke-miterlimit="10"/>
<path d="M258.789 71.8359H313.028" stroke="#CCDDE2" stroke-width="1.8837" stroke-miterlimit="10"/>
<path d="M258.789 106.258H313.028" stroke="#CCDDE2" stroke-width="1.8837" stroke-miterlimit="10"/>
<path d="M271.385 111.317H300.428" stroke="#CCDDE2" stroke-width="1.8837" stroke-miterlimit="10"/>
<path d="M327.837 99.2412C332.621 105.261 337.171 112.722 341.285 121.915C366.338 177.933 335.024 206.362 335.024 206.362" stroke="#9F9F9F" stroke-width="1.8837" stroke-miterlimit="10"/>
<path d="M66.1694 143.661C66.1694 143.661 28.9949 101.439 75.3513 80.5326C121.708 59.6263 130.886 56.7215 127.541 34.9741C124.197 13.2266 150.486 -8.91797 191.829 5.7153C233.173 20.3486 234.001 47.9251 231.069 69.2442C229.404 81.3971 236.292 84.3175 244.68 83.7062" stroke="#9F9F9F" stroke-width="1.8837" stroke-miterlimit="10"/>
<path d="M325.216 224.583C325.122 226.914 324.519 229.196 323.451 231.269C323.409 231.372 323.359 231.472 323.303 231.569C321.428 234.94 318.806 237.837 315.638 240.034L315.525 240.112C312.665 242.027 309.448 243.345 306.067 243.986H342.055C342.055 243.986 337.241 175.239 292.992 141.791C250.171 109.425 210.08 125.024 207.536 126.067C208.324 128.295 208.677 130.653 208.575 133.014C208.575 133.014 211.795 134.692 212.332 140.701C212.868 146.709 213.988 163.414 203.22 166.56C203.22 166.56 193.552 166.322 190.997 162.608C188.442 158.893 187.827 159.648 186.824 160.591C186.046 161.303 181.352 163.85 179.186 165.018C179.46 165.031 179.732 165.069 179.999 165.131C179.999 165.131 181.239 175.613 196.418 192.042C196.932 192.584 197.418 193.153 197.872 193.747C200.164 195.754 202.74 197.802 205.6 199.892L222.921 212.582C223.312 212.915 223.776 213.151 224.275 213.271C225.244 213.516 226.257 213.525 227.23 213.298C229.245 212.909 243 211.503 251.902 210.615C252.104 210.615 252.318 210.577 252.516 210.553L253.683 210.44C253.87 210.44 254.072 210.401 254.235 210.39L255.285 210.288C255.798 210.238 256.261 210.187 256.689 210.152L257.856 210.039C258.886 209.938 259.497 209.876 259.547 209.876C261.668 209.815 263.782 209.61 265.875 209.26C267.878 208.871 269.705 208.244 270.18 207.204C270.27 206.985 270.303 206.746 270.277 206.511C270.17 205.85 269.894 205.227 269.476 204.705C267.648 202.247 263.401 200.141 263.09 199.989C263.081 199.986 263.072 199.986 263.063 199.989L262.977 199.927L237.699 180.263H237.672C237.672 180.263 241.479 139.595 276.173 149.602C276.173 149.602 276.336 149.715 276.635 149.964C277.989 151.008 282.247 154.465 288.508 160.925C288.672 161.101 288.847 161.276 289.022 161.463C289.687 162.14 290.34 162.845 290.99 163.534C295.384 168.238 300.584 174.231 306.32 181.703L306.359 181.742C312.931 190.309 317.668 198.159 320.748 205.106V205.129C324.081 212.679 325.485 219.147 325.208 224.306C325.217 224.398 325.22 224.491 325.216 224.583ZM220.576 154.684C219.549 142.834 225.309 138.543 225.632 138.306C217.442 153.142 232.632 175.882 233.165 176.762C232.729 176.396 221.603 166.529 220.576 154.684Z" fill="#353642"/>
<path d="M198.821 152.359C198.395 152.672 197.951 152.961 197.491 153.223L194.824 148.55C200.976 145.4 202.703 139.847 199.996 136.798C199.239 135.964 198.263 135.36 197.18 135.054C194.458 134.229 192.572 135.443 191.292 137.075C190.248 138.493 189.483 140.097 189.037 141.802L187.738 126.803L187.637 125.635C187.637 125.635 184.806 124.229 177.137 125.483C169.468 126.737 168.056 130.977 164.762 129.096C161.468 127.216 159.601 127.367 159.601 127.367C158.664 130.814 156.156 130.814 156.156 130.814C155.562 130.742 154.978 130.599 154.417 130.389C150.859 127.114 149.895 121.433 149.895 121.433C153.628 120.97 153.916 117.372 153.488 114.424C155.557 115.655 158.474 115.74 162.569 113.108C174.317 105.585 186.365 109.658 190.6 110.285C192.49 110.561 194.559 109.896 196.274 109.117C196.496 109.514 196.804 109.856 197.176 110.118C200.035 112.112 202.393 114.743 204.064 117.804C215.089 138.438 203.002 149.395 198.821 152.359Z" fill="#3FBDF1"/>
<path d="M154.81 243.994H159.244C161.14 243.992 162.958 243.237 164.299 241.894C165.639 240.552 166.394 238.732 166.396 236.833V231.864C166.396 231.412 166.307 230.963 166.133 230.545C165.96 230.126 165.706 229.746 165.386 229.426C165.066 229.106 164.686 228.853 164.268 228.68C163.85 228.506 163.402 228.418 162.95 228.418H136.435C136.436 229.476 136.229 230.523 135.825 231.5C135.421 232.478 134.829 233.366 134.081 234.113C133.334 234.861 132.447 235.453 131.471 235.858C130.495 236.261 129.449 236.469 128.393 236.467H32.5806C32.5817 238.463 33.3739 240.377 34.7837 241.788C36.193 243.2 38.1044 243.993 40.0979 243.994H169.989C170.159 243.994 170.327 243.961 170.484 243.897C170.64 243.832 170.783 243.737 170.903 243.616C171.023 243.496 171.118 243.353 171.183 243.196C171.247 243.04 171.28 242.871 171.28 242.701V234.637C171.28 233.07 171.902 231.568 173.008 230.46C174.114 229.352 175.615 228.73 177.18 228.73C178.744 228.73 180.245 229.352 181.351 230.46C182.458 231.568 183.079 233.07 183.079 234.637V242.701C183.079 242.871 183.111 243.039 183.176 243.196C183.241 243.352 183.335 243.495 183.455 243.615C183.574 243.735 183.717 243.83 183.873 243.895C184.029 243.96 184.197 243.994 184.366 243.994H342.056C342.056 243.994 337.241 175.232 292.993 141.787C250.171 109.421 210.08 125.02 207.537 126.063L207.412 126.11" stroke="black" stroke-width="1.8837" stroke-miterlimit="10"/>
<path d="M163.199 142.892C163.197 143.325 163.068 143.747 162.827 144.106C162.586 144.464 162.245 144.744 161.845 144.908C161.446 145.073 161.007 145.115 160.584 145.03C160.16 144.945 159.772 144.737 159.467 144.431C159.161 144.125 158.954 143.735 158.87 143.311C158.785 142.887 158.828 142.448 158.994 142.048C159.159 141.649 159.438 141.307 159.797 141.067C160.156 140.826 160.578 140.697 161.009 140.696C161.179 140.697 161.347 140.718 161.511 140.759C161.285 140.83 161.087 140.972 160.947 141.164C160.807 141.356 160.732 141.588 160.733 141.826C160.732 141.975 160.761 142.123 160.817 142.261C160.873 142.399 160.956 142.524 161.061 142.63C161.165 142.736 161.29 142.821 161.427 142.878C161.565 142.936 161.712 142.966 161.861 142.966C162.133 142.961 162.395 142.861 162.601 142.682C162.807 142.503 162.945 142.258 162.989 141.989C163.123 142.272 163.195 142.58 163.199 142.892Z" fill="black"/>
<path d="M178.37 143.504C178.37 143.938 178.242 144.364 178.002 144.725C177.761 145.087 177.419 145.369 177.018 145.536C176.618 145.703 176.177 145.747 175.751 145.662C175.325 145.578 174.934 145.369 174.626 145.062C174.32 144.755 174.11 144.364 174.025 143.938C173.94 143.512 173.984 143.07 174.149 142.668C174.315 142.267 174.597 141.924 174.957 141.682C175.318 141.44 175.742 141.312 176.176 141.312C176.281 141.311 176.385 141.323 176.487 141.347C176.293 141.436 176.129 141.579 176.014 141.76C175.899 141.94 175.837 142.149 175.838 142.363C175.825 142.663 175.93 142.955 176.132 143.176C176.335 143.398 176.616 143.53 176.915 143.543C177.214 143.556 177.506 143.45 177.728 143.248C177.948 143.046 178.08 142.764 178.093 142.464C178.273 142.782 178.368 143.139 178.37 143.504Z" fill="black"/>
<path d="M195.866 106.033C195.613 107.739 195.928 109.234 197.18 110.122C200.039 112.116 202.397 114.747 204.067 117.808C217.22 142.414 197.491 153.243 197.491 153.243L194.823 148.57C202.504 144.645 203.29 136.959 197.18 135.074C191.07 133.189 189.037 141.822 189.037 141.822L187.637 125.643C187.637 125.643 184.805 124.237 177.136 125.491C169.467 126.745 168.056 130.985 164.762 129.105C161.468 127.224 159.601 127.376 159.601 127.376C158.664 130.822 156.155 130.822 156.155 130.822C148.805 129.883 147.079 119.701 147.079 119.701C150.808 119.234 151.096 115.636 150.672 112.692C152.737 113.922 155.658 114.012 159.753 111.376C171.501 103.853 183.549 107.93 187.78 108.556C190.705 108.981 194.061 107.19 195.866 106.033Z" stroke="black" stroke-width="1.8837" stroke-linecap="round" stroke-linejoin="round"/>
<path d="M202.648 228.053L205.553 226.885L207.731 232.768L207.389 243.446L204.445 243.979L193.272 243.496C193.272 243.496 194.05 236.986 196.426 233.89C198.802 230.794 202.648 228.053 202.648 228.053Z" fill="#3FBDF1"/>
<path d="M151.777 134.42C151.777 134.42 154.752 129.074 161.013 129.631" stroke="black" stroke-width="1.8837" stroke-miterlimit="10"/>
<path d="M173.275 129.63C173.275 129.63 180.431 128.021 182.935 132.005" stroke="black" stroke-width="1.8837" stroke-miterlimit="10"/>
<path d="M184.362 153.835C184.362 153.835 180.084 151.354 176.954 155.525" stroke="black" stroke-width="1.8837" stroke-miterlimit="10"/>
<path d="M157.33 130.487C157.33 130.487 154.285 166.354 176.993 165.692C180.882 165.579 184.747 163.021 188.442 158.905" stroke="black" stroke-width="1.8837" stroke-miterlimit="10"/>
<path d="M197.491 162.167L188.442 158.904C188.442 158.904 190.686 166.084 201.8 166.633C212.915 167.182 216.645 141.642 208.478 131.366" stroke="black" stroke-width="1.8837" stroke-linejoin="round"/>
<path d="M232.873 234.118C232.873 234.118 224.578 240.858 230.213 243.993" stroke="black" stroke-width="1.8837" stroke-miterlimit="10"/>
<path d="M226.456 227.846C226.456 227.846 212.067 236 224.422 243.994" stroke="black" stroke-width="1.8837" stroke-miterlimit="10"/>
<path d="M221.603 221.577C221.603 221.577 202.504 230.533 217.22 243.994" stroke="black" stroke-width="1.8837" stroke-miterlimit="10"/>
<path d="M301.917 243.993C301.917 243.993 325.088 243.993 325.399 221.576C325.71 199.159 280.47 142.869 251.194 135.038C221.918 127.208 220.662 148.667 220.662 149.547C220.662 150.427 218.943 159.671 226.456 169.534C232.258 177.159 257.887 196.192 269.258 204.463C269.676 204.767 269.991 205.191 270.162 205.679C270.333 206.167 270.352 206.696 270.215 207.194C270.079 207.693 269.794 208.139 269.399 208.472C269.003 208.804 268.516 209.009 268.002 209.057L217.71 213.894H217.679C217.204 213.979 199.455 217.258 194.049 222.826C194.049 222.826 191.02 225.073 192.587 228.523C194.154 231.973 198.969 230.836 199.101 230.707" stroke="black" stroke-width="1.8837" stroke-miterlimit="10"/>
<path opacity="0.26" d="M176.18 147.576C179.638 147.576 182.441 144.77 182.441 141.307C182.441 137.845 179.638 135.038 176.18 135.038C172.722 135.038 169.918 137.845 169.918 141.307C169.918 144.77 172.722 147.576 176.18 147.576Z" fill="white"/>
<path opacity="0.26" d="M160.29 146.957C163.748 146.957 166.551 144.151 166.551 140.688C166.551 137.226 163.748 134.419 160.29 134.419C156.832 134.419 154.029 137.226 154.029 140.688C154.029 144.151 156.832 146.957 160.29 146.957Z" fill="white"/>
<path d="M214.412 227.064C212.211 226.448 208.613 225.895 204.907 227.087C203.095 227.671 201.423 228.625 199.995 229.887C199.684 230.159 199.385 230.436 199.097 230.712C198.477 231.321 197.891 231.964 197.343 232.64C197.271 232.729 197.169 232.788 197.055 232.807C195.675 232.998 186.586 234.439 186.633 239.037C186.676 243.169 191.195 243.846 192.75 243.955C192.815 243.961 192.879 243.954 192.94 243.934C193.001 243.913 193.058 243.88 193.105 243.837C193.153 243.794 193.192 243.741 193.218 243.682C193.245 243.624 193.259 243.56 193.26 243.496C193.26 242.024 193.594 237.41 197.23 232.768" stroke="black" stroke-width="1.8837" stroke-miterlimit="10"/>
<path d="M132.526 194.606C133.592 203.208 126.914 207.098 119.615 207.674" stroke="black" stroke-width="1.8837" stroke-miterlimit="10"/>
<path d="M109.006 205.881C106.223 204.376 103.968 202.05 102.548 199.22C101.127 196.39 100.61 193.191 101.065 190.056C102.232 181.782 109.232 175.435 116.084 171.408C130.473 162.955 162.899 169.072 168.348 170.318C172.524 171.276 176.017 168.005 177.432 166.424C177.493 166.357 177.57 166.308 177.657 166.285C177.744 166.261 177.836 166.262 177.921 166.289C178.007 166.315 178.084 166.366 178.142 166.435C178.2 166.504 178.237 166.588 178.249 166.677C181.24 184.2 215.972 207.984 224.006 213.307" stroke="black" stroke-width="1.8837" stroke-miterlimit="10"/>
<path d="M141.288 188.658L129.788 195.804C129.103 196.231 128.336 196.51 127.537 196.622C126.737 196.734 125.923 196.677 125.147 196.454C124.371 196.232 123.65 195.849 123.03 195.331C122.411 194.812 121.907 194.169 121.551 193.444C120.91 192.141 120.783 190.644 121.195 189.251C121.607 187.857 122.529 186.671 123.776 185.929L141.276 175.489" stroke="black" stroke-width="1.8837" stroke-miterlimit="10"/>
<path d="M176.18 147.576C179.638 147.576 182.441 144.77 182.441 141.307C182.441 137.845 179.638 135.038 176.18 135.038C172.722 135.038 169.918 137.845 169.918 141.307C169.918 144.77 172.722 147.576 176.18 147.576Z" stroke="black" stroke-width="1.8837" stroke-miterlimit="10"/>
<path d="M160.289 146.019C163.23 146.019 165.613 143.632 165.613 140.688C165.613 137.744 163.23 135.357 160.289 135.357C157.349 135.357 154.965 137.744 154.965 140.688C154.965 143.632 157.349 146.019 160.289 146.019Z" stroke="white" stroke-width="1.8837" stroke-miterlimit="10"/>
<path d="M160.29 146.957C163.748 146.957 166.551 144.151 166.551 140.688C166.551 137.226 163.748 134.419 160.29 134.419C156.832 134.419 154.029 137.226 154.029 140.688C154.029 144.151 156.832 146.957 160.29 146.957Z" stroke="black" stroke-width="1.8837" stroke-miterlimit="10"/>
<path d="M169.95 140.689H166.551" stroke="black" stroke-width="1.8837" stroke-miterlimit="10"/>
<path d="M169.95 149.548H167.71C167.569 149.548 167.43 149.517 167.302 149.457C167.175 149.397 167.062 149.31 166.972 149.201C166.882 149.092 166.817 148.966 166.782 148.829C166.747 148.692 166.742 148.55 166.769 148.411L168.251 140.689" stroke="black" stroke-width="1.8837" stroke-miterlimit="10"/>
<path d="M125.005 170.944C125.005 170.944 117.021 172.669 114.205 184.74C112.494 192.069 110.145 201.418 108.566 207.633C108.364 208.43 108.346 209.263 108.514 210.068C108.682 210.873 109.031 211.629 109.535 212.279C110.04 212.928 110.685 213.454 111.423 213.815C112.161 214.177 112.971 214.365 113.793 214.365C115.02 214.365 116.21 213.947 117.167 213.179C118.125 212.411 118.792 211.339 119.059 210.14L122.399 195.133" stroke="black" stroke-width="1.8837" stroke-miterlimit="10"/>
<path d="M132.305 199.16C132.305 199.16 140.685 194.145 157.194 199.16C173.703 204.176 192.681 207.579 198.942 194.277" stroke="black" stroke-width="1.8837" stroke-miterlimit="10"/>
<path d="M204.912 227.086C204.912 227.086 210.745 233.752 207.198 243.993" stroke="black" stroke-width="1.8837" stroke-miterlimit="10"/>
<path d="M12.1478 144.188H104.316C107.285 144.185 110.169 145.181 112.503 147.017C114.837 148.854 116.486 151.424 117.185 154.313L131.858 215.159C132.254 216.8 132.272 218.511 131.912 220.161C131.553 221.811 130.824 223.358 129.78 224.685C128.736 226.012 127.406 227.085 125.888 227.822C124.371 228.56 122.706 228.943 121.019 228.943H29.0881C26.1251 228.946 23.2469 227.952 20.9155 226.121C18.5842 224.29 16.9345 221.728 16.2312 218.846L1.321 158.012C0.918377 156.368 0.894188 154.654 1.25022 153C1.60626 151.346 2.33322 149.795 3.37612 148.463C4.41906 147.131 5.75067 146.055 7.27028 145.314C8.78993 144.574 10.4578 144.189 12.1478 144.188Z" fill="#3FBDF1"/>
<path d="M15.5033 146.807H101.978C104.764 146.81 107.468 147.749 109.657 149.474C111.846 151.199 113.395 153.609 114.053 156.319L127.828 213.4C128.2 214.94 128.218 216.544 127.88 218.093C127.543 219.641 126.86 221.092 125.881 222.337C124.902 223.582 123.654 224.588 122.23 225.28C120.806 225.972 119.245 226.332 117.662 226.332H31.3975C28.6204 226.326 25.9249 225.39 23.7405 223.673C21.5557 221.957 20.0074 219.557 19.3417 216.858L5.3415 159.773C4.96345 158.231 4.94066 156.623 5.27488 155.071C5.60906 153.519 6.29149 152.063 7.2705 150.813C8.2495 149.564 9.49945 148.554 10.9258 147.86C12.3521 147.166 13.9175 146.805 15.5033 146.807Z" fill="#3FBDF1"/>
<path d="M12.1478 144.188H104.316C107.285 144.185 110.169 145.181 112.503 147.017C114.837 148.854 116.486 151.424 117.185 154.313L131.858 215.159C132.254 216.8 132.272 218.511 131.912 220.161C131.553 221.811 130.824 223.358 129.78 224.685C128.736 226.012 127.406 227.085 125.888 227.822C124.371 228.56 122.706 228.943 121.019 228.943H29.0881C26.1251 228.946 23.2469 227.952 20.9155 226.121C18.5842 224.29 16.9345 221.728 16.2313 218.846L1.321 158.012C0.918377 156.368 0.894188 154.654 1.25022 153C1.60626 151.346 2.33322 149.795 3.37612 148.463C4.41906 147.131 5.75067 146.055 7.27028 145.314C8.78993 144.574 10.4578 144.189 12.1478 144.188Z" stroke="black" stroke-width="1.8837" stroke-miterlimit="10"/>
<path d="M55.3151 184.716L49.82 159.067C49.706 158.525 49.4089 158.038 48.9792 157.689C48.5494 157.339 48.0132 157.148 47.4594 157.147H20.2678C19.902 157.149 19.5413 157.233 19.2128 157.394C18.8844 157.555 18.5968 157.789 18.372 158.078C18.1472 158.367 17.991 158.703 17.9151 159.061C17.8394 159.42 17.8459 159.791 17.9344 160.146L24.2929 186.095C24.3718 186.456 24.5402 186.792 24.7829 187.072C25.0007 187.349 25.2779 187.573 25.5945 187.728C25.9111 187.882 26.2587 187.963 26.6107 187.964H26.6612L52.9778 187.652C53.3332 187.647 53.6829 187.563 54.0021 187.407C54.3214 187.251 54.6026 187.027 54.8251 186.749C55.0518 186.467 55.2132 186.139 55.2979 185.788C55.3827 185.436 55.3886 185.07 55.3151 184.716ZM19.7506 159.686C19.7309 159.61 19.729 159.529 19.7452 159.452C19.7614 159.374 19.7951 159.301 19.8439 159.239C19.8938 159.173 19.958 159.12 20.0315 159.084C20.1049 159.048 20.1858 159.029 20.2678 159.028H47.4594C47.5819 159.028 47.7009 159.069 47.7958 159.147C47.891 159.224 47.956 159.332 47.9805 159.453L52.165 178.988C38.192 165.48 36.6092 180.978 36.6092 180.978C28.7224 176.866 26.4435 181.368 25.7823 184.331L19.7506 159.686Z" fill="#D7E8F0"/>
<path d="M27.6024 168.997C29.1191 168.526 29.8385 166.513 29.2163 164.5C28.594 162.487 26.8557 161.241 25.3273 161.712C23.799 162.183 23.0912 164.196 23.7173 166.205C24.3434 168.215 26.0896 169.469 27.6024 168.997Z" fill="#D7E8F0"/>
<path d="M34.2604 168.538H43.1817C44.2901 168.538 45.4023 168.538 46.5107 168.538H46.6701C46.982 168.547 47.2923 168.488 47.5801 168.367C47.7788 168.268 47.948 168.118 48.0697 167.933C48.1918 167.747 48.2622 167.533 48.2743 167.311C48.286 167.089 48.2389 166.868 48.1374 166.67C48.0359 166.473 47.8838 166.306 47.6968 166.186C47.4872 166.091 47.2962 165.959 47.1329 165.797C47.0248 165.626 46.9505 165.435 46.9151 165.236C46.709 164.672 46.3112 164.199 45.7912 163.9C45.4128 163.646 44.9873 163.47 44.5393 163.384C44.0917 163.297 43.6313 163.302 43.1856 163.398C42.7458 163.509 42.3433 163.735 42.0189 164.052C41.7428 164.325 41.6884 164.691 41.4745 164.995C41.3345 165.193 41.245 165.131 41.0545 165.022C40.8639 164.913 40.7589 164.831 40.6033 164.753C40.2965 164.589 39.978 164.447 39.6505 164.329C38.9836 164.081 38.2723 163.977 37.5622 164.021C36.3138 164.118 35.0694 164.862 34.6338 166.038C34.2414 166.044 33.8634 166.189 33.5686 166.448C33.2734 166.707 33.0802 167.063 33.0238 167.452C32.9981 167.601 33.0078 167.756 33.0522 167.901C33.0969 168.047 33.175 168.179 33.2804 168.289C33.5639 168.493 33.9139 168.582 34.2604 168.538Z" fill="#D7E8F0"/>
<path d="M98.2183 167.984L97.5027 165.037C97.0228 163.055 95.8915 161.293 94.2901 160.033C92.689 158.772 90.7115 158.088 88.6748 158.09H78.8474C77.7262 158.089 76.6198 158.346 75.6142 158.843C74.6089 159.34 73.7315 160.062 73.0502 160.955C72.3692 161.846 71.9029 162.884 71.6875 163.985C71.472 165.087 71.5136 166.224 71.8084 167.307L72.6212 170.301C73.1404 172.228 74.2795 173.929 75.8619 175.142C77.4447 176.355 79.3822 177.011 81.3752 177.01H91.1443C92.2476 177.01 93.3365 176.758 94.3286 176.274C95.3206 175.79 96.1902 175.087 96.8712 174.218C97.5525 173.349 98.0277 172.336 98.2611 171.256C98.4944 170.177 98.4796 169.058 98.2183 167.984ZM87.4109 168.712L84.0547 170.78C83.9256 170.862 83.779 170.914 83.6266 170.93C83.4741 170.946 83.3201 170.926 83.1766 170.872C83.0331 170.819 82.904 170.733 82.799 170.621C82.6944 170.509 82.617 170.374 82.573 170.227L81.3091 166.092C81.2562 165.908 81.2562 165.713 81.3095 165.53C81.3628 165.347 81.467 165.182 81.6097 165.056C81.7529 164.929 81.929 164.846 82.1173 164.816C82.3059 164.785 82.4988 164.81 82.6742 164.885L87.3292 166.945C87.4957 167.02 87.6384 167.139 87.7419 167.29C87.8449 167.44 87.9048 167.616 87.9149 167.799C87.925 167.982 87.8846 168.163 87.7986 168.324C87.7123 168.485 87.5836 168.62 87.4265 168.712H87.4109Z" fill="white"/>
<path d="M96.0245 194.462H78.8314C78.0443 194.461 77.2747 194.23 76.6159 193.799C75.9571 193.368 75.4379 192.754 75.1214 192.032C75.0234 191.81 74.9705 191.57 74.9658 191.327C74.9701 190.858 75.1587 190.409 75.4916 190.078C75.8245 189.747 76.2741 189.561 76.7431 189.56H95.0212C94.1617 191.016 94.5972 193.029 96.0245 194.462Z" fill="#D7E8F0"/>
<path d="M107.163 192.694C107.162 193.163 106.975 193.612 106.645 193.943C106.314 194.275 105.865 194.461 105.397 194.462H96.025C94.5977 193.029 94.1622 191.016 95.0216 189.56H103.274C104.06 189.56 104.828 189.789 105.487 190.218C106.146 190.647 106.666 191.258 106.984 191.978C107.092 192.202 107.152 192.446 107.163 192.694Z" fill="#3FBDF1"/>
<path d="M102.842 194.463C102.794 194.557 102.738 194.647 102.675 194.732C101.446 196.41 98.7861 196.566 96.7211 195.055C96.4745 194.876 96.2416 194.678 96.025 194.463C94.5977 193.03 94.1622 191.017 95.0216 189.561C95.0698 189.468 95.1258 189.38 95.1888 189.296C96.4061 187.606 99.0778 187.458 101.131 188.957C101.38 189.141 101.615 189.343 101.835 189.561C103.274 190.994 103.69 193.007 102.842 194.463Z" fill="white"/>
<path d="M111.468 203.521C111.464 203.991 111.275 204.44 110.942 204.771C110.609 205.102 110.16 205.288 109.691 205.289H41.5483C42.4194 203.825 41.9839 201.82 40.5527 200.391H107.602C108.389 200.39 109.158 200.62 109.816 201.051C110.475 201.481 110.993 202.095 111.308 202.817C111.409 203.038 111.464 203.278 111.468 203.521Z" fill="#3FBDF1"/>
<path d="M41.5486 205.269H33.059C32.273 205.269 31.5042 205.04 30.8454 204.611C30.187 204.182 29.667 203.57 29.3489 202.851C29.249 202.625 29.1961 202.381 29.1934 202.134C29.193 201.902 29.2381 201.672 29.3268 201.458C29.4154 201.243 29.5453 201.048 29.7094 200.885C29.8735 200.72 30.0684 200.591 30.283 200.502C30.4973 200.414 30.7272 200.369 30.9589 200.37H40.553C41.9841 201.799 42.4197 203.805 41.5486 205.269Z" fill="#D7E8F0"/>
<path d="M41.5481 205.269C41.5081 205.365 41.456 205.455 41.3926 205.538C40.1753 207.228 37.5036 207.372 35.4464 205.873C35.1987 205.689 34.9645 205.487 34.7464 205.269C33.3269 203.836 32.8913 201.835 33.7391 200.371C33.7862 200.276 33.8422 200.186 33.9064 200.102C35.1353 198.424 37.7953 198.268 39.8603 199.775C40.1069 199.955 40.3383 200.154 40.5526 200.371C41.9837 201.8 42.4193 203.805 41.5481 205.269Z" fill="white"/>
<path d="M47.5607 215.982H36.7727C35.9872 215.981 35.2183 215.752 34.5599 215.323C33.9015 214.894 33.3816 214.283 33.0627 213.563C32.9557 213.346 32.8947 213.109 32.8838 212.866C32.885 212.396 33.072 211.945 33.4045 211.612C33.7366 211.279 34.187 211.092 34.6572 211.091H46.5457C45.7173 212.563 46.1412 214.564 47.5607 215.982Z" fill="#3FBDF1"/>
<path d="M115.166 214.242C115.16 214.709 114.969 215.155 114.635 215.481C114.301 215.807 113.852 215.988 113.385 215.983H47.5608C46.1414 214.55 45.7058 212.548 46.5536 211.084H111.301C112.087 211.084 112.857 211.313 113.515 211.744C114.173 212.175 114.692 212.788 115.007 213.51C115.11 213.74 115.164 213.99 115.166 214.242Z" fill="#D7E8F0"/>
<path d="M54.3743 215.981C54.3272 216.076 54.2712 216.166 54.207 216.25C52.9898 217.94 50.3181 218.084 48.2647 216.585C48.0158 216.401 47.7805 216.2 47.5608 215.981C46.1414 214.548 45.7058 212.547 46.5536 211.083C46.6022 210.989 46.6582 210.899 46.7208 210.814C47.9497 209.136 50.6098 208.988 52.6748 210.487C52.9221 210.666 53.1535 210.865 53.367 211.083C54.7982 212.527 55.2337 214.54 54.3743 215.981Z" fill="white"/>
<g opacity="0.21">
<path opacity="0.21" d="M56.2561 185.655L50.7727 160.006C50.6592 159.463 50.3624 158.976 49.9323 158.628C49.5026 158.279 48.9655 158.089 48.4121 158.09H21.2167C20.8484 158.09 20.4852 158.174 20.1548 158.337C19.8243 158.499 19.5357 158.736 19.3111 159.028C19.0883 159.314 18.934 159.648 18.8598 160.003C18.7856 160.358 18.7937 160.725 18.8833 161.076L25.2417 187.029C25.3195 187.391 25.4864 187.727 25.7279 188.007C25.9464 188.284 26.2249 188.507 26.5418 188.661C26.8592 188.815 27.2072 188.894 27.5596 188.894H27.6218L53.9344 188.579C54.2891 188.575 54.6383 188.492 54.9568 188.336C55.2757 188.181 55.5561 187.956 55.7778 187.68C56.0014 187.398 56.1601 187.071 56.2429 186.721C56.3254 186.371 56.33 186.007 56.2561 185.655ZM20.6878 160.629C20.6679 160.552 20.6664 160.471 20.6835 160.393C20.7002 160.316 20.7352 160.243 20.785 160.181C20.8336 160.115 20.897 160.062 20.9701 160.026C21.0428 159.989 21.1233 159.97 21.205 159.971H48.3966C48.5191 159.97 48.6381 160.011 48.7337 160.087C48.8294 160.164 48.8955 160.271 48.9216 160.391L53.1061 179.927C39.1292 166.415 37.5503 181.917 37.5503 181.917C29.6674 177.805 27.3845 182.306 26.7273 185.269L20.6878 160.629Z" fill="#D7E8F0"/>
<path opacity="0.21" d="M28.5435 169.936C30.0563 169.465 30.7797 167.452 30.1535 165.443C29.5274 163.434 27.7968 162.18 26.2646 162.651C24.7323 163.122 24.0284 165.135 24.6507 167.148C25.2729 169.162 27.0501 170.423 28.5435 169.936Z" fill="#D7E8F0"/>
<path opacity="0.21" d="M35.2172 169.479H44.1346C45.2468 169.479 46.3552 169.479 47.4674 169.479H47.623C47.9352 169.488 48.2452 169.429 48.533 169.307C48.7329 169.21 48.9028 169.06 49.0253 168.875C49.1482 168.689 49.2194 168.474 49.2311 168.252C49.2431 168.029 49.1953 167.808 49.093 167.61C48.9911 167.412 48.8379 167.245 48.6496 167.127C48.442 167.028 48.2518 166.897 48.0858 166.737C47.9808 166.564 47.9072 166.372 47.868 166.173C47.6619 165.611 47.2656 165.14 46.748 164.841C46.3696 164.586 45.9429 164.409 45.4945 164.323C45.0461 164.236 44.5849 164.242 44.1385 164.339C43.706 164.451 43.3113 164.677 42.9951 164.993C42.7151 165.265 42.6646 165.628 42.4507 165.935C42.3107 166.134 42.2212 166.071 42.0307 165.959C41.8401 165.846 41.7351 165.772 41.5795 165.69C41.2727 165.527 40.9542 165.387 40.6267 165.269C39.9598 165.021 39.2485 164.915 38.5384 164.958C37.29 165.055 36.0456 165.803 35.6061 166.975C35.2137 166.981 34.8365 167.128 34.5421 167.387C34.2477 167.647 34.0556 168.004 34 168.392C33.9747 168.542 33.9848 168.696 34.0283 168.841C34.0723 168.986 34.1489 169.119 34.2527 169.229C34.5335 169.426 34.8761 169.515 35.2172 169.479Z" fill="#D7E8F0"/>
<path opacity="0.21" d="M99.1745 168.922L98.459 165.978C97.9783 163.996 96.8462 162.233 95.2448 160.972C93.6429 159.712 91.6646 159.027 89.6272 159.027H79.7842C78.6642 159.027 77.5594 159.284 76.5548 159.781C75.5503 160.277 74.6737 160.998 73.9932 161.889C73.3122 162.779 72.8456 163.815 72.6289 164.915C72.4127 166.015 72.4524 167.15 72.7452 168.233L73.558 171.231C74.078 173.158 75.2178 174.86 76.801 176.072C78.3842 177.285 80.3224 177.942 82.3159 177.94H92.085C93.1887 177.94 94.278 177.69 95.2708 177.208C96.2637 176.725 97.1344 176.023 97.8169 175.155C98.4998 174.286 98.9766 173.274 99.2115 172.195C99.4468 171.115 99.4343 169.996 99.1745 168.922ZM88.3633 169.642L84.9954 171.721C84.8663 171.804 84.7201 171.855 84.568 171.871C84.416 171.887 84.2624 171.867 84.1188 171.814C83.9757 171.76 83.8466 171.674 83.7424 171.562C83.6382 171.45 83.5612 171.315 83.5176 171.169L82.2732 167.029C82.221 166.846 82.2218 166.652 82.2755 166.469C82.3292 166.286 82.4334 166.122 82.5765 165.996C82.7192 165.87 82.8946 165.788 83.0828 165.758C83.2707 165.728 83.4632 165.751 83.6382 165.826L88.2583 167.882C88.4224 167.958 88.5624 168.077 88.6643 168.227C88.7661 168.376 88.8257 168.55 88.8362 168.731C88.847 168.911 88.8089 169.092 88.7253 169.252C88.6421 169.412 88.5169 169.547 88.3633 169.642Z" fill="#D7E8F0"/>
<path opacity="0.21" d="M96.9657 195.401H79.7726C78.9863 195.399 78.217 195.169 77.5582 194.738C76.8998 194.308 76.3803 193.695 76.0625 192.975C75.9412 192.706 75.8899 192.411 75.9132 192.117C75.9361 191.823 76.0334 191.539 76.1952 191.292C76.3565 191.046 76.5778 190.844 76.8384 190.706C77.0986 190.568 77.3894 190.497 77.6842 190.502H95.9623C95.1068 191.955 95.5345 193.972 96.9657 195.401Z" fill="#D7E8F0"/>
<path opacity="0.21" d="M108.08 193.633C108.08 194.101 107.895 194.55 107.565 194.881C107.234 195.213 106.786 195.4 106.319 195.4H96.9657C95.5346 193.971 95.099 191.954 95.9585 190.502H104.215C105.001 190.502 105.77 190.73 106.429 191.159C107.087 191.588 107.607 192.2 107.925 192.92C108.024 193.145 108.077 193.387 108.08 193.633Z" fill="#3FBDF1"/>
<path opacity="0.21" d="M103.779 195.402C103.733 195.497 103.677 195.587 103.612 195.67C102.383 197.349 99.723 197.504 97.6579 195.997C97.4122 195.817 97.1808 195.618 96.9657 195.402C95.5346 193.972 95.099 191.955 95.9585 190.503C96.0071 190.408 96.0642 190.318 96.1296 190.234C97.3468 188.544 100.019 188.4 102.072 189.899C102.321 190.083 102.556 190.285 102.776 190.503C104.195 191.936 104.631 193.937 103.779 195.402Z" fill="white"/>
<path opacity="0.21" d="M112.405 204.442C112.401 204.911 112.212 205.36 111.879 205.691C111.546 206.021 111.096 206.206 110.628 206.206H42.4892C43.3603 204.742 42.9248 202.741 41.4937 201.308H108.539C109.327 201.308 110.097 201.537 110.756 201.969C111.415 202.401 111.934 203.015 112.249 203.737C112.349 203.959 112.402 204.199 112.405 204.442Z" fill="#3FBDF1"/>
<path opacity="0.21" d="M42.4895 206.206H33.996C33.2108 206.206 32.4424 205.978 31.784 205.549C31.1256 205.121 30.6052 204.51 30.2859 203.792C30.1883 203.566 30.1354 203.322 30.1304 203.075C30.1304 202.607 30.3163 202.157 30.6476 201.826C30.9786 201.494 31.4277 201.308 31.896 201.308H41.4939C42.925 202.741 43.3606 204.742 42.4895 206.206Z" fill="#D7E8F0"/>
<path opacity="0.21" d="M42.4894 206.207C42.4494 206.304 42.3957 206.395 42.33 206.476C41.1127 208.166 38.441 208.314 36.3876 206.815C36.1384 206.63 35.9031 206.426 35.6837 206.207C34.2643 204.778 33.8287 202.773 34.6804 201.309C34.7263 201.213 34.7823 201.123 34.8476 201.04C36.0765 199.362 38.7366 199.206 40.8016 200.717C41.0462 200.897 41.2776 201.095 41.4938 201.309C42.925 202.742 43.3605 204.743 42.4894 206.207Z" fill="white"/>
<path opacity="0.21" d="M48.4977 216.934H37.6942C36.9091 216.932 36.1414 216.704 35.483 216.275C34.825 215.847 34.3042 215.237 33.9842 214.519C33.8866 214.297 33.8337 214.058 33.8286 213.815C33.8306 213.344 34.0184 212.892 34.3513 212.559C34.6842 212.226 35.1353 212.037 35.6059 212.035H47.4944C46.6427 213.499 47.0783 215.505 48.4977 216.934Z" fill="#3FBDF1"/>
<path opacity="0.21" d="M116.107 215.178C116.107 215.409 116.061 215.638 115.971 215.852C115.882 216.065 115.752 216.259 115.588 216.422C115.424 216.586 115.23 216.715 115.016 216.802C114.802 216.89 114.573 216.935 114.342 216.934H48.4977C47.0782 215.505 46.6427 213.499 47.4944 212.035H112.238C113.025 212.035 113.796 212.265 114.454 212.696C115.113 213.128 115.632 213.743 115.948 214.465C116.049 214.689 116.103 214.932 116.107 215.178Z" fill="#D7E8F0"/>
<path opacity="0.21" d="M55.315 216.935C55.2664 217.03 55.2093 217.12 55.1439 217.204C53.9267 218.894 51.255 219.042 49.2016 217.542C48.9523 217.357 48.717 217.155 48.4977 216.935C47.0782 215.506 46.6427 213.501 47.4944 212.036C47.5403 211.941 47.5963 211.851 47.6616 211.768C48.8905 210.09 51.5505 209.945 53.6156 211.445C53.8602 211.625 54.0916 211.823 54.3078 212.036C55.7389 213.469 56.1745 215.483 55.315 216.935Z" fill="white"/>
</g>
</svg>
