<svg width="132" height="63" viewBox="0 0 132 63" fill="none" xmlns="http://www.w3.org/2000/svg">
<path d="M8.54436 62.5189C1.31411 55.8416 -2.16781 44.4195 5.63555 36.7429C7.56659 34.8449 9.90372 33.4309 12.4036 32.4229C12.5029 32.3869 12.6008 32.3465 12.7002 32.3105" stroke="#CCDDE2" stroke-width="0.60912" stroke-miterlimit="10"/>
<path d="M54.7686 5.86816C62.0348 6.48736 64.8082 9.77776 68.2858 14.1035C68.5738 14.4621 68.8518 14.8235 69.1254 15.185C72.2358 19.2875 74.5642 25.7503 80.8527 24.9467C85.766 24.3175 89.9722 21.2128 94.3743 19.2026C101.63 15.8906 110.358 12.6189 118.159 16.1282C126.519 19.888 130.639 30.1394 130.801 38.7866C130.958 47.4798 127.268 58.5952 118.808 62.5178" stroke="#CCDDE2" stroke-width="0.60912" stroke-miterlimit="10"/>
<path d="M59.7561 22.8548C59.658 26.7284 58.3544 30.475 56.0265 33.5727C56.0211 33.5776 56.0167 33.5833 56.0135 33.59C55.7932 33.8276 55.5685 34.0652 55.3396 34.2941C53.5119 36.129 51.3394 37.5844 48.9473 38.5767C46.555 39.5689 43.9902 40.0783 41.4004 40.0757H41.3471C38.3577 40.0757 35.3697 40.0858 32.3845 40.0858C30.0287 40.0858 27.6455 40.2298 25.3127 39.8885C24.5625 39.7805 23.854 39.5429 23.0865 39.5775C20.1604 39.7129 18.1501 42.482 16.7634 44.7212C16.7451 44.7503 16.7205 44.7749 16.6914 44.7932C16.681 44.7675 16.6761 44.74 16.677 44.7125C16.8613 41.3372 16.1298 37.8466 14.4465 34.9061C14.4162 34.8485 14.3845 34.7938 14.3529 34.7405C13.4154 33.1565 12.1669 31.7957 11.3634 30.1325C9.9728 27.2412 9.34871 24.0409 9.55088 20.8389C9.75306 17.6369 10.7749 14.5406 12.5181 11.8471C14.2616 9.15374 16.6678 6.95357 19.5062 5.4577C22.3446 3.96197 25.5196 3.2208 28.7269 3.30533L41.5573 3.65093C46.517 3.78471 51.2206 5.88293 54.6334 9.48422C58.0462 13.0855 59.8888 17.895 59.7561 22.8548Z" fill="#3FBDF1"/>
<path d="M61.1124 20.3606C61.1195 25.2436 59.3067 29.9541 56.0278 33.5726C56.0224 33.5774 56.018 33.5834 56.0148 33.5898C55.7945 33.8274 55.5699 34.065 55.3409 34.294C53.5132 36.1288 51.3407 37.5842 48.9486 38.5766C46.5563 39.5687 43.9915 40.0782 41.4017 40.0756H41.3484C38.359 40.0756 35.371 40.0857 32.3859 40.0857C30.03 40.0857 27.6468 40.2297 25.314 39.8884C24.5638 39.7804 23.8553 39.5428 23.0878 39.5773C20.1617 39.7127 18.1514 42.4818 16.7647 44.721C16.7464 44.7501 16.7218 44.7747 16.6927 44.793C16.6598 44.8136 16.6217 44.8249 16.5829 44.8257C16.544 44.8264 16.5057 44.8165 16.472 44.7972C16.4383 44.7778 16.4105 44.7497 16.3915 44.7157C16.3725 44.6817 16.3631 44.6433 16.3644 44.6044C16.4638 41.0404 15.5926 37.3885 13.735 34.3357C13.7033 34.2781 13.6673 34.2191 13.6313 34.1658C12.5988 32.5271 11.2481 31.1274 10.3553 29.3994C8.80484 26.3941 8.05358 23.0405 8.17355 19.6611C8.29351 16.2816 9.28076 12.9898 11.0403 10.102C12.8 7.21421 15.2727 4.82755 18.221 3.17155C21.1694 1.51541 24.4941 0.645508 27.8758 0.645508H41.4017C43.9904 0.645652 46.5539 1.1557 48.9454 2.14671C51.337 3.13757 53.5101 4.58981 55.3403 6.42048C57.1707 8.2513 58.6225 10.4246 59.6129 12.8164C60.6032 15.2082 61.1128 17.7717 61.1124 20.3606Z" stroke="black" stroke-width="0.60912" stroke-miterlimit="10"/>
<path d="M49.2624 9.86816H38.0649C36.1738 9.86816 34.6406 11.4013 34.6406 13.2925V28.4182C34.6406 30.3095 36.1738 31.8427 38.0649 31.8427H49.2624C51.1535 31.8427 52.6867 30.3095 52.6867 28.4182V13.2925C52.6867 11.4013 51.1535 9.86816 49.2624 9.86816Z" fill="#D7E8F0"/>
<path d="M43.7632 15.9658C44.5298 15.9658 45.1513 15.3443 45.1513 14.5776C45.1513 13.811 44.5298 13.1895 43.7632 13.1895C42.9965 13.1895 42.375 13.811 42.375 14.5776C42.375 15.3443 42.9965 15.9658 43.7632 15.9658Z" fill="white"/>
<path d="M39.8857 20.8564C39.8857 19.8278 40.2943 18.8416 41.0216 18.1142C41.7488 17.387 42.7352 16.9785 43.7637 16.9785C44.7921 16.9785 45.7785 17.387 46.5057 18.1142C47.2331 18.8416 47.6416 19.8278 47.6416 20.8564H39.8857Z" fill="white"/>
<path d="M47.0886 24.167H40.2357C39.2615 24.167 38.4717 24.9567 38.4717 25.931V26.7964C38.4717 27.7706 39.2615 28.5604 40.2357 28.5604H47.0886C48.0629 28.5604 48.8526 27.7706 48.8526 26.7964V25.931C48.8526 24.9567 48.0629 24.167 47.0886 24.167Z" fill="#3FBDF1"/>
<path d="M29.0107 16.8779H18.1113" stroke="white" stroke-width="0.60912" stroke-linecap="round" stroke-linejoin="round"/>
<path d="M29.0107 19.4268H18.1113" stroke="white" stroke-width="0.60912" stroke-linecap="round" stroke-linejoin="round"/>
<path d="M29.0107 21.7012H18.1113" stroke="white" stroke-width="0.60912" stroke-linecap="round" stroke-linejoin="round"/>
<path d="M29.0107 24.25H18.1113" stroke="white" stroke-width="0.60912" stroke-linecap="round" stroke-linejoin="round"/>
<path d="M29.0107 14.6025H18.1113" stroke="white" stroke-width="0.60912" stroke-linecap="round" stroke-linejoin="round"/>
<path d="M29.0107 26.5264H18.1113" stroke="white" stroke-width="0.60912" stroke-linecap="round" stroke-linejoin="round"/>
<path d="M32.0564 43.0679C32.0564 43.0679 27.0092 42.5797 27.5549 37.4519C28.1007 32.3241 29.0929 32.5559 33.626 30.4233C33.626 30.4233 37.3282 30.406 38.3607 31.5162C39.3932 32.6265 39.9922 30.4276 39.9922 30.4276C39.9922 30.4276 44.8162 24.3594 50.8383 25.6353C56.8604 26.9111 46.1381 31.7409 46.1381 31.7409C46.1381 31.7409 39.2189 31.8359 41.0089 34.4034C41.0089 34.4034 42.05 36.3345 41.4509 37.9429C40.8519 39.5514 40.8591 42.1319 40.4631 42.2068C40.0671 42.2817 34.1588 43.569 34.1588 43.569L32.0564 43.0679Z" fill="white"/>
<path d="M79.2175 62.5203H65.1977C62.8758 62.5238 60.576 62.0695 58.4297 61.1834C56.2835 60.2974 54.333 58.9969 52.6898 57.3565C52.6887 57.6986 52.6524 58.0398 52.5818 58.3746V49.0347C47.9738 43.6534 42.6055 46.3909 41.8841 46.7955C41.5644 43.7384 41.2821 41.3235 41.2821 41.3235C41.2821 41.3235 40.506 34.7658 46.5828 32.3653C46.6317 32.3437 46.6807 32.325 46.7268 32.3077C49.5708 31.2349 52.1469 31.7648 54.2969 32.8189C54.3329 32.8405 54.3689 32.8549 54.4049 32.8765C56.6757 34.017 58.457 35.732 59.5572 36.7328C59.6738 36.835 59.7818 36.9344 59.8841 37.0208C61.0159 38.0086 63.9679 40.9261 67.2842 43.2776L67.3389 43.3179C69.7754 45.0358 72.4049 46.4499 74.6498 46.5709C74.6541 46.5795 80.3393 52.2978 79.2175 62.5203Z" fill="#2E2E2E"/>
<path d="M78.0676 45.7352C76.7616 46.2522 75.6398 46.5431 74.5497 46.5791C73.9793 46.5978 73.4091 46.5416 72.8534 46.412C71.219 46.0535 69.5054 45.0656 67.2374 43.3204L67.1841 43.28C65.2271 41.781 62.8641 39.7204 59.7825 37.0232C59.6803 36.934 59.5723 36.8346 59.4556 36.7352C59.1547 36.4746 58.8451 36.2053 58.5312 35.9274C57.2324 34.764 55.8143 33.7412 54.3004 32.876C54.2644 32.8544 54.2284 32.84 54.1924 32.8184C54.0484 32.7335 53.8972 32.6572 53.7489 32.5808C53.4154 32.4089 53.0705 32.2601 52.7164 32.1359C51.849 31.8257 50.9362 31.6608 50.015 31.6477L49.4491 31.6621C42.1526 31.8767 40.5455 33.573 40.5455 33.573C41.2879 34.5856 41.7435 35.7795 41.8646 37.029C41.2627 36.9311 40.6622 37.1183 40.5585 37.7836C40.4332 38.6 40.2446 39.3488 39.4857 39.8298C39.023 40.1002 38.4761 40.1879 37.9521 40.076C37.9521 40.076 37.942 40.076 37.9377 40.076C37.7851 40.0314 37.6367 39.9954 37.5057 39.968C37.4474 39.9544 37.3902 39.9365 37.3343 39.9148C35.8051 39.3575 34.9123 39.5735 35.2032 41.2108C35.5444 43.136 33.0316 43.388 31.3756 43.0914C28.4539 41.7767 27.6547 36.6474 29.9702 33.488C30.0292 33.4074 30.0955 33.3224 30.1631 33.236C30.2308 33.1496 30.3071 33.0704 30.3748 32.9898C30.5476 32.8022 30.7318 32.6252 30.9263 32.4599C30.994 32.4023 31.0617 32.3432 31.1323 32.29C31.2028 32.2367 31.3036 32.1589 31.3886 32.097C31.4712 32.0312 31.5584 31.9711 31.6492 31.917C32.4327 31.4016 33.3131 31.051 34.2365 30.8865C35.1599 30.7222 36.107 30.7474 37.0204 30.9608C37.757 31.2226 38.4488 31.5966 39.071 32.0696C39.071 32.0696 39.1286 31.9804 39.2452 31.8191C39.5161 31.9793 39.7767 32.1563 40.0257 32.349C40.0257 32.349 44.4105 25.6616 50.7695 25.738C51.2819 25.7424 51.7924 25.8028 52.2916 25.918C57.251 27.6719 60.6163 33.9906 63.6503 34.9597C63.8803 35.033 64.1139 35.0945 64.3502 35.144C66.6974 35.6466 69.3225 35.0994 71.6524 34.9511C73.1875 34.8531 74.7628 34.8892 76.2475 35.301C76.4318 35.3514 76.6204 35.4133 76.8047 35.481H76.8134C78.887 36.2255 80.9289 37.8771 81.4358 40.0717C82.0046 42.5039 80.1542 44.7791 78.0676 45.7352Z" fill="#3FBDF1"/>
<path d="M121.592 25.9649C121.529 26.2206 121.409 26.4589 121.241 26.6617C121.073 26.8645 120.861 27.0264 120.621 27.1356L116.582 29.0609L107.585 32.3599L108.449 29.3575C108.717 28.9643 109.1 28.6627 109.545 28.4935L117.36 25.4998L119.279 24.751C119.661 24.6121 120.078 24.609 120.461 24.7423C120.845 24.8755 121.17 25.137 121.383 25.4825C121.477 25.6317 121.547 25.7944 121.592 25.9649Z" fill="#3FBDF1"/>
<path d="M117.365 24.6418L119.287 23.8858C119.714 23.7292 120.186 23.7442 120.602 23.9277C121.018 24.111 121.347 24.4485 121.52 24.8694C121.693 25.2902 121.696 25.7616 121.529 26.1847C121.362 26.6079 121.037 26.9498 120.623 27.1387L116.584 29.0626L110.579 58.1506C110.242 59.4041 109.501 60.5114 108.47 61.3013C107.44 62.0911 106.178 62.5192 104.88 62.5195H65.0899C62.768 62.523 60.4682 62.0686 58.322 61.1826C56.1758 60.2966 54.2254 58.9961 52.582 57.3557" stroke="black" stroke-width="0.60912" stroke-miterlimit="10"/>
<path d="M103.492 42.9932L103.366 43.3388C101.087 49.4285 100.826 52.9868 100.826 52.9868" stroke="black" stroke-width="0.60912" stroke-miterlimit="10"/>
<path d="M42.9465 58.5341L41.1738 40.4491C41.1725 38.7322 41.6737 37.0523 42.6156 35.6168C43.5575 34.1814 44.899 33.0528 46.4745 32.3707C47.6259 31.8597 48.8774 31.6139 50.1365 31.6512C51.3957 31.6886 52.6303 32.0083 53.7493 32.5867C53.8933 32.663 54.0445 32.7394 54.1929 32.8243C54.2289 32.8474 54.2649 32.8603 54.3009 32.8819C55.8136 33.7462 57.2308 34.768 58.5287 35.9304C58.8426 36.2083 59.1522 36.4776 59.4532 36.7382C59.5698 36.8405 59.6778 36.9398 59.7801 37.0262C62.8588 39.7234 65.2247 41.7782 67.1817 43.283L67.2349 43.3234C70.2949 45.6749 72.3426 46.6483 74.5458 46.5763C75.9369 46.5317 77.3869 46.0651 79.1898 45.2659C85.9218 42.2765 97.2359 44.2291 101.122 51.7099" stroke="black" stroke-width="0.60912" stroke-miterlimit="10"/>
<path d="M47.4082 62.511C47.5032 62.511 47.5925 62.5196 47.6818 62.5196C48.9803 62.5196 50.2257 62.0038 51.1438 61.0857C52.062 60.1674 52.5778 58.9221 52.5778 57.6236V43.6758" stroke="black" stroke-width="0.60912" stroke-miterlimit="10"/>
<path d="M41.8599 37.0293C41.3343 31.7201 35.1019 28.7133 30.6941 31.6265C30.6221 31.6668 30.5501 31.7157 30.4839 31.7705L30.4291 31.8108C30.3442 31.8741 30.2592 31.9375 30.1743 32.0037C29.9034 32.2174 29.6497 32.4519 29.4154 32.705C29.3434 32.7856 29.2714 32.8706 29.2037 32.9513C29.136 33.0319 29.0698 33.1226 29.0107 33.2033" stroke="black" stroke-width="0.60912" stroke-miterlimit="10"/>
<path d="M31.3848 43.0791C32.1985 43.8905 33.1574 44.5421 34.2115 45.0001C38.4393 46.705 40.4913 43.4837 40.4913 43.4837" stroke="black" stroke-width="0.60912" stroke-miterlimit="10"/>
<path d="M76.8972 46.1716C77.0268 46.1256 77.1578 46.0809 77.2831 46.0406L77.3235 46.0276C77.3573 46.0176 77.3904 46.0055 77.4228 45.9916C77.5337 45.9556 77.6417 45.9153 77.754 45.8707L77.9657 45.7857C80.0926 44.854 82.015 42.5457 81.4419 40.0704C80.886 37.68 78.5114 35.9318 76.2578 35.3011C74.7732 34.8892 73.1979 34.8532 71.6628 34.9512C69.0953 35.1124 66.1735 35.7633 63.6564 34.9598C60.1428 33.838 56.1799 25.5364 49.8209 25.4558C43.4618 25.3752 39.0713 32.0683 39.0713 32.0683" stroke="black" stroke-width="0.60912" stroke-miterlimit="10"/>
<path d="M40.5449 33.5761C40.5449 33.5761 41.8611 31.7934 49.6414 31.6494" stroke="black" stroke-width="0.60912" stroke-miterlimit="10"/>
<path d="M103.366 43.3395L107.225 32.492L107.526 31.6438L108.491 28.9294C108.565 28.7229 108.669 28.5287 108.801 28.3534C109.07 27.9606 109.452 27.6592 109.897 27.4894L117.364 24.6396" stroke="black" stroke-width="0.60912" stroke-miterlimit="10"/>
<path d="M99.6949 25.4556L97.6573 28.844L92.3393 35.9979L91.6309 32.7435C91.6418 32.2709 91.7955 31.8125 92.0715 31.4288L96.7299 24.93L97.2325 24.3022C97.4732 23.9747 97.82 23.7407 98.2137 23.6399C98.6075 23.5391 99.024 23.5777 99.3925 23.7492C99.5892 23.8398 99.7663 23.968 99.9137 24.1265C99.9664 24.3516 99.9742 24.5849 99.9366 24.8128C99.8991 25.0409 99.817 25.2594 99.6949 25.4556Z" fill="#3FBDF1"/>
<path d="M104.12 41.2274L97.6598 28.8434L99.6946 25.4537C99.8734 25.1668 99.9659 24.8345 99.961 24.4963C99.9561 24.1584 99.8541 23.8288 99.6672 23.5471C99.4898 23.2775 99.2404 23.063 98.9472 22.9279C98.5791 22.757 98.1634 22.7181 97.77 22.8177C97.3766 22.9174 97.0296 23.1495 96.7872 23.4751L96.2832 24.1087" stroke="black" stroke-width="0.60912" stroke-miterlimit="10"/>
<path d="M96.2807 24.1094L91.6223 30.6023C91.3489 30.9891 91.1984 31.4492 91.1903 31.9228C91.1794 32.1431 91.2001 32.3638 91.2523 32.578L91.9435 35.3731L92.1595 36.2486L94.498 45.7094" stroke="black" stroke-width="0.60912" stroke-miterlimit="10"/>
<path d="M30.6934 31.623C26.4541 34.2525 26.9393 41.271 30.4443 42.8147C31.7835 43.4051 35.6283 43.5491 35.1963 41.1962C34.9083 39.5646 35.7997 39.3486 37.3304 39.9002C39.9785 40.8592 40.5387 38.296 40.5387 38.1189" stroke="black" stroke-width="0.60912" stroke-miterlimit="10"/>
<path d="M39.708 44.3379L41.4403 44.8534" stroke="black" stroke-width="0.60912" stroke-miterlimit="10"/>
<path d="M26.0431 52.3705L24.3842 55.7934C24.2683 56.032 24.0651 56.217 23.8167 56.3103C23.5683 56.4037 23.2937 56.3979 23.0493 56.2945C22.9145 56.2375 22.7933 56.1525 22.6938 56.0452C22.5943 55.938 22.5187 55.8107 22.472 55.672C22.4254 55.5333 22.4086 55.3863 22.4229 55.2406C22.4373 55.095 22.4825 54.954 22.5554 54.8271L22.8779 54.2641C22.8882 54.235 22.9001 54.2066 22.9139 54.1791L23.1371 53.7284L25.0351 49.9038C25.2649 49.4349 25.6086 49.031 26.0347 48.7292C26.4608 48.4274 26.9559 48.237 27.4744 48.1758H27.5176" stroke="black" stroke-width="0.60912" stroke-miterlimit="10"/>
<path d="M29.7121 52.1026L27.2641 52.8111C27.126 52.8512 26.9813 52.8636 26.8383 52.8478C26.6953 52.8319 26.5569 52.788 26.4309 52.7186C26.3049 52.6492 26.1939 52.5556 26.104 52.4433C26.0143 52.3308 25.9475 52.2019 25.9076 52.0637C25.8676 51.9256 25.8551 51.7809 25.8709 51.6379C25.8868 51.4949 25.9307 51.3565 26.0001 51.2305C26.0695 51.1045 26.1631 50.9935 26.2754 50.9036C26.3879 50.8139 26.5168 50.7471 26.655 50.7072L30.1283 49.6992" stroke="black" stroke-width="0.60912" stroke-miterlimit="10"/>
<path d="M27.8243 52.6455C27.9165 53.0172 27.859 53.4101 27.6645 53.7399C27.2066 54.4901 26.0474 54.7479 25.1416 54.5953" stroke="black" stroke-width="0.60912" stroke-miterlimit="10"/>
<path d="M23.1338 53.7292C22.1863 53.0826 21.9933 51.8889 22.2857 50.8391C23.4751 46.4946 28.4388 47.5271 31.7321 48.2903C33.6948 48.7566 35.6202 49.3685 37.4921 50.1206C39.0415 50.7398 40.5578 51.5706 42.2268 51.7996" stroke="black" stroke-width="0.60912" stroke-miterlimit="10"/>
<path d="M27.6641 53.7412C27.6641 53.7412 28.0053 53.8622 28.5885 54.0911C31.1116 55.0824 33.5119 56.361 35.7425 57.9014C36.8383 58.6559 38.2509 59.1671 39.8407 59.5084" stroke="black" stroke-width="0.60912" stroke-miterlimit="10"/>
<path d="M42.6314 56.2541C42.1139 56.1661 41.5816 56.2533 41.1194 56.5022C40.657 56.7511 40.2911 57.1473 40.0797 57.6278C39.1682 59.4998 40.4411 61.716 42.5003 62.0328C44.2155 62.3114 45.9474 62.4746 47.6843 62.5209" stroke="black" stroke-width="0.60912" stroke-miterlimit="10"/>
<path d="M41.8873 46.8612L41.8066 46.8439C41.8066 46.8439 41.8326 46.8266 41.8873 46.7949C41.883 46.8165 41.8873 46.8439 41.8873 46.8612Z" fill="#2E2E2E"/>
<path d="M35.5333 60.3162L15.135 56.4397C14.6193 56.3418 14.122 56.6803 14.0239 57.196L13.9368 57.6544C13.8389 58.17 14.1774 58.6675 14.6931 58.7655L35.0914 62.6419C35.6071 62.74 36.1046 62.4013 36.2025 61.8856L36.2896 61.4273C36.3877 60.9116 36.049 60.4143 35.5333 60.3162Z" stroke="black" stroke-width="0.60912" stroke-miterlimit="10"/>
<path d="M17.1875 59.2412V62.5201" stroke="black" stroke-width="0.60912" stroke-miterlimit="10"/>
<path d="M1.99609 62.5195H124.37" stroke="black" stroke-width="0.60912" stroke-miterlimit="10"/>
</svg>
