<svg width="144" height="144" viewBox="0 0 144 144" fill="none" xmlns="http://www.w3.org/2000/svg">
<path d="M108.502 98.9537C105.672 96.7599 102.254 95.4547 98.6808 95.2029C95.108 94.9512 91.5411 95.7653 88.4304 97.5408C85.3201 99.3166 82.8061 101.975 81.2062 105.179C79.6067 108.384 78.9926 111.99 79.4428 115.544C79.8926 119.097 81.386 122.437 83.734 125.142C86.0821 127.846 89.1794 129.794 92.6344 130.738C96.0891 131.682 99.7461 131.581 103.144 130.447C106.541 129.313 109.526 127.197 111.721 124.367C113.178 122.487 114.252 120.338 114.879 118.044C115.506 115.749 115.675 113.353 115.376 110.993C115.077 108.634 114.317 106.356 113.137 104.29C111.958 102.224 110.383 100.41 108.502 98.9537ZM88.9844 124.122C88.4676 123.679 88.1408 123.054 88.072 122.377C88.0031 121.7 88.1972 121.022 88.6143 120.484C89.0318 119.946 89.64 119.589 90.313 119.487C90.9859 119.385 91.6727 119.546 92.2303 119.937C92.7474 120.38 93.0742 121.005 93.1431 121.682C93.212 122.359 93.0179 123.037 92.6004 123.575C92.1833 124.113 91.5751 124.47 90.9021 124.572C90.2291 124.673 89.5424 124.513 88.9844 124.122ZM104.108 110.075C101.261 112.836 98.3631 115.807 95.0957 118.105C94.3114 118.661 92.948 117.604 93.2911 116.706C94.3973 113.93 95.6859 111.232 97.1479 108.627C98.1799 106.706 99.3215 103.184 101.548 102.27C103.551 101.415 106.024 103.092 106.794 104.925C107.738 107.175 105.506 108.687 104.108 110.075Z" fill="#C2DCFF"/>
<path d="M93.8423 22.028C87.4237 20.399 80.6664 20.7104 74.4248 22.9218C68.1832 25.1339 62.7381 29.1468 58.7771 34.4537C54.8162 39.7606 52.5181 46.1226 52.1738 52.7357C51.8288 59.3482 53.4521 65.915 56.8399 71.605C60.2271 77.295 65.2255 81.8531 71.2033 84.702C77.1806 87.551 83.8688 88.5635 90.4219 87.6114C96.975 86.6587 103.099 83.7847 108.018 79.3519C112.937 74.9197 116.432 69.1276 118.06 62.7089C119.141 58.4473 119.372 54.0146 118.74 49.6638C118.109 45.3131 116.626 41.1294 114.377 37.3518C112.128 33.5741 109.158 30.2768 105.634 27.6476C102.111 25.0177 98.1038 23.1083 93.8423 22.028ZM79.3657 79.0973C78.1413 78.7481 77.1008 77.9357 76.4651 76.8319C75.8301 75.7287 75.6498 74.4208 75.9631 73.1865C76.2763 71.9521 77.0579 70.8887 78.1426 70.2215C79.2273 69.5542 80.5292 69.3361 81.7722 69.6135C82.4113 69.7559 83.0151 70.0253 83.5478 70.405C84.0813 70.7852 84.5327 71.2685 84.8755 71.826C85.2183 72.3836 85.4464 73.0049 85.5448 73.6518C85.6439 74.2987 85.6115 74.9593 85.4505 75.5941C85.2896 76.2283 85.0026 76.8246 84.6073 77.3466C84.212 77.868 83.7161 78.3053 83.1484 78.632C82.5813 78.9588 81.9542 79.168 81.3046 79.2482C80.6544 79.3277 79.9956 79.2768 79.3657 79.0973ZM94.6084 44.1154C91.8239 50.8991 89.1 58.0737 85.2932 64.3793C84.379 65.9018 81.2819 65.116 81.2023 63.3426C81.0267 57.8284 81.2226 52.3089 81.7891 46.8211C82.1186 42.8165 81.4503 36.004 84.5478 32.8051C87.2975 29.9441 92.7176 30.9005 95.3917 33.4296C98.6094 36.5201 95.9536 40.735 94.6084 44.1154Z" fill="#519BFF"/>
<path d="M34.146 79.9099C31.1613 81.3511 28.6708 83.6447 26.99 86.501C25.3086 89.3571 24.5119 92.6478 24.7011 95.9571C24.8898 99.2662 26.0553 102.444 28.0511 105.091C30.0463 107.737 32.7809 109.733 35.9103 110.825C39.0398 111.917 42.4223 112.057 45.6314 111.227C48.8398 110.396 51.7302 108.634 53.9366 106.161C56.1437 103.688 57.5675 100.616 58.0289 97.3338C58.4904 94.0516 57.9675 90.7068 56.5279 87.7214C54.5949 83.718 51.1519 80.6461 46.9546 79.1812C42.7573 77.7163 38.1502 77.9785 34.146 79.9099ZM46.959 106.454C46.6695 106.594 46.3552 106.676 46.034 106.694C45.7125 106.713 45.3911 106.667 45.0873 106.562C44.7837 106.456 44.5038 106.291 44.2638 106.077C44.0237 105.864 43.8283 105.604 43.6881 105.315C43.548 105.025 43.4666 104.711 43.4484 104.39C43.4294 104.069 43.4748 103.747 43.5804 103.443C43.6865 103.139 43.851 102.859 44.0651 102.619C44.2786 102.379 44.538 102.184 44.8275 102.044C45.4122 101.761 46.0856 101.723 46.6992 101.936C47.3125 102.15 47.8154 102.599 48.0984 103.183C48.3813 103.768 48.4194 104.441 48.2061 105.055C47.9922 105.668 47.5436 106.171 46.959 106.454ZM41.5502 88.1453C42.6609 91.6435 43.9272 95.2717 44.4848 98.9221C44.6214 99.8 43.1915 100.48 42.5839 99.8442C40.75 97.7814 39.0564 95.5984 37.5148 93.3089C36.344 91.6693 33.9022 89.2705 34.0609 87.0429C34.1899 85.0675 36.6128 83.6856 38.418 83.8007C40.6401 83.9372 40.9735 86.4087 41.5502 88.1453Z" fill="#69A9FF"/>
</svg>
