<svg width="201" height="235" viewBox="0 0 201 235" fill="none" xmlns="http://www.w3.org/2000/svg">
<path d="M53.5098 157.7C56.479 150.94 58.3536 143.14 58.5304 134.094C59.3884 89.8528 109.412 55.7122 164.904 93.238C220.396 130.764 171.352 233.999 171.352 233.999" stroke="#CCDDE2" stroke-width="1.15773" stroke-miterlimit="10"/>
<path d="M14.7131 234C12.2613 232.073 -6.43004 213.798 4.79673 203.338C9.59373 198.874 19.9183 193.661 30.2611 185.713" stroke="#CCDDE2" stroke-width="1.15773" stroke-miterlimit="10"/>
<path d="M148.465 123.109C148.667 124.156 149.195 125.112 149.975 125.839" stroke="#CCDDE2" stroke-width="1.15773" stroke-miterlimit="10"/>
<path d="M104.898 143.198C104.514 143.3 104.189 143.372 103.931 143.432C103.739 143.466 103.58 143.5 103.471 143.515H103.448L103.297 143.541C103.297 143.541 103.281 143.523 103.271 143.523C100.671 141.615 101.469 138.063 101.469 138.063C109.243 139.288 110.855 132.991 110.855 132.991C110.754 129.972 110.179 128.552 108.853 127.736C107.467 126.868 105.257 126.644 101.88 125.916L101.321 125.791C96.2977 124.65 93.9551 119.494 93.0295 116.634C92.814 116 92.6403 115.353 92.5095 114.697C86.8207 116.834 83.2587 119.861 81.2073 122.13C80.3961 106.039 96.5473 108.35 96.5473 108.35C99.2651 108.389 101.966 108.784 104.581 109.526C105.174 109.786 105.741 110.046 106.282 110.306C106.542 110.438 106.817 110.581 107.062 110.729C107.306 110.878 107.582 111.023 107.821 111.171C107.995 111.273 108.172 111.382 108.341 111.496C111.894 113.751 114.734 116.968 116.531 120.773C116.556 120.825 116.579 120.878 116.598 120.932C116.68 121.108 116.752 121.289 116.814 121.473C120.47 137.468 109.191 142.046 104.898 143.198Z" fill="#3FBDF1"/>
<path d="M104.898 143.197C103.765 141.312 104.29 139.037 104.29 139.037C112.056 140.264 113.673 133.967 113.673 133.967C113.507 129.337 112.257 128.468 108.853 127.727C107.592 127.444 106.043 127.184 104.139 126.76C103.349 126.582 102.588 126.293 101.88 125.899C96.7085 123.065 95.3149 115.658 95.3149 115.658C94.5141 115.957 93.7549 116.282 93.0295 116.617C92.814 115.984 92.6403 115.337 92.5095 114.68C86.8207 116.818 83.2587 119.844 81.2073 122.114C80.3961 106.022 96.5473 108.334 96.5473 108.334C99.2651 108.373 101.966 108.768 104.581 109.509C105.174 109.769 105.741 110.029 106.282 110.289C106.542 110.422 106.817 110.565 107.062 110.713C107.306 110.861 107.582 111.007 107.821 111.155C107.995 111.256 108.172 111.365 108.341 111.48C111.894 113.735 114.734 116.952 116.531 120.757C116.556 120.808 116.579 120.861 116.598 120.915C116.68 121.092 116.752 121.272 116.814 121.456C120.47 137.467 109.191 142.045 104.898 143.197Z" fill="#3FBDF1"/>
<path d="M132.155 214.414C133.356 222.255 134.825 229.97 136.359 234H67.4044C59.1026 210.428 63.039 184.678 63.039 184.678L50.793 185.062C58.1588 172.14 55.538 161.215 54.2952 157.57C63.9152 155.935 73.5352 154.65 83.2566 154.541C82.9966 160.105 89.0702 166.501 97.8296 164.819C101.381 164.143 105.71 162.739 105.804 156.517L108.089 156.917C111.251 157.437 114.111 157.994 116.823 158.62C123.843 160.238 129.875 162.26 137.391 164.819C126.991 172.517 132.16 190.299 132.16 190.299L132.42 190.892L129.1 190.299C129.1 190.299 130.33 202.495 132.155 214.414Z" fill="#353642"/>
<path d="M60.6129 43.048C67.488 43.048 73.0617 37.4744 73.0617 30.5992C73.0617 23.7237 67.488 18.1504 60.6129 18.1504C53.7377 18.1504 48.1641 23.7237 48.1641 30.5992C48.1641 37.4744 53.7377 43.048 60.6129 43.048Z" fill="#3FBDF1"/>
<path d="M64.705 26.4443C64.53 26.0389 64.2942 25.6627 64.0056 25.3289C63.5136 24.7436 62.8249 24.3583 62.0688 24.2454C61.313 24.1323 60.5416 24.2995 59.9002 24.7153C59.4808 24.9862 59.1306 25.3512 58.8768 25.7815C58.6233 26.2116 58.4733 26.6949 58.439 27.1931C57.7843 26.9562 57.0703 26.9383 56.4047 27.1418C55.7389 27.3454 55.1572 27.7593 54.747 28.322C54.3367 28.8844 54.1198 29.5648 54.1292 30.2608C54.1386 30.9568 54.3736 31.6313 54.799 32.1825C55.6908 33.3447 57.2066 34.1091 58.5794 34.5537C59.2996 34.7827 60.0408 34.9405 60.792 35.0243C61.1716 35.0659 63.3426 35.3571 63.5454 35.0243C64.8714 32.9105 65.8334 29.0287 64.705 26.4443Z" fill="white"/>
<path d="M39.6681 26.553C38.8517 26.462 38.0249 26.4048 37.2007 26.3606C36.3167 26.4048 35.4327 26.4698 34.5487 26.579C31.7569 26.8905 29.0219 27.5907 26.4237 28.659C25.26 29.1377 24.1381 29.7125 23.0697 30.3776C22.2988 30.8409 21.5607 31.356 20.8597 31.9194C20.3423 31.1776 19.9271 30.3696 19.6247 29.517C19.1102 28.0784 18.9214 26.5439 19.0715 25.0234C19.2217 23.503 19.7072 22.035 20.4931 20.7249C21.2791 19.4147 22.3456 18.2952 23.6165 17.447C24.8871 16.5989 26.3301 16.043 27.8415 15.82C29.3529 15.5966 30.8949 15.7113 32.3567 16.1556C33.8181 16.6002 35.1631 17.3633 36.2944 18.3903C37.4254 19.4171 38.3148 20.682 38.8983 22.094C39.4817 23.5061 39.7446 25.0299 39.6681 26.5556V26.553Z" fill="#3FBDF1"/>
<path d="M34.5474 26.5795C31.7556 26.891 29.0206 27.5912 26.4224 28.6595C26.2716 28.2591 26.1468 27.8795 26.1052 27.7495C25.8967 27.1588 25.7462 26.5494 25.6554 25.9295C25.4968 24.7439 25.5202 23.3295 26.0714 22.2505C26.3288 21.7324 26.748 21.3122 27.2654 21.0532C27.7828 20.7943 28.3704 20.7108 28.9395 20.8153C29.5086 20.9199 30.0281 21.2069 30.4197 21.6328C30.8112 22.0587 31.0538 22.6002 31.1102 23.1761C31.4966 23.0256 31.9123 22.9653 32.3255 23.0001C32.7389 23.0347 33.1385 23.1634 33.4944 23.3763C34.022 23.6982 34.4177 24.1972 34.6106 24.7842C34.8035 25.3711 34.7812 26.0075 34.5474 26.5795Z" fill="white"/>
<path d="M23.0686 30.3756C22.2977 30.8386 21.5595 31.3539 20.8586 31.9174C20.3887 32.2811 19.9377 32.668 19.5066 33.077C18.9543 33.6037 18.4679 34.1957 18.0584 34.8398C17.6751 35.4391 17.3428 36.0698 17.0652 36.7248C16.6455 37.7263 16.3106 38.7613 16.0642 39.8188C15.5699 42.0997 15.2717 44.4187 15.1724 46.7504C13.344 45.8372 11.8766 44.3352 11.0059 42.4864C10.1351 40.6375 9.91231 38.5494 10.3728 36.5584C10.8335 34.5675 11.9507 32.7894 13.545 31.5107C15.1391 30.232 17.1172 29.5272 19.1608 29.5098C19.3194 29.5098 19.4676 29.5098 19.6262 29.5098C20.8198 29.567 21.9901 29.8613 23.0686 30.3756Z" fill="#3FBDF1"/>
<path d="M18.0597 34.8398C17.6764 35.4394 17.3441 36.0699 17.0665 36.7248C16.6468 37.7263 16.3119 38.7614 16.0655 39.8188C15.5247 39.0674 15.0645 38.1678 14.9917 37.2682C14.9662 36.9448 15.0078 36.6198 15.1139 36.313C15.2197 36.0064 15.3876 35.7249 15.6073 35.4859C15.8268 35.247 16.0933 35.0561 16.3899 34.9248C16.6866 34.7935 17.0072 34.7249 17.3317 34.7228C17.5792 34.7197 17.8254 34.7595 18.0597 34.8398Z" fill="white"/>
<g opacity="0.72">
<path opacity="0.72" d="M75.004 29.0314C78.7891 29.0314 81.8576 25.9632 81.8576 22.1778C81.8576 18.3927 78.7891 15.3242 75.004 15.3242C71.2189 15.3242 68.1504 18.3927 68.1504 22.1778C68.1504 25.9632 71.2189 29.0314 75.004 29.0314Z" fill="#3FBDF1"/>
<path opacity="0.72" d="M77.9778 23.4003C78.1462 23.2261 78.2882 23.0282 78.399 22.8127C78.5945 22.4396 78.6467 22.008 78.5461 21.599C78.4458 21.19 78.199 20.832 77.853 20.5923C77.6278 20.437 77.3701 20.3356 77.0995 20.2964C76.8288 20.2574 76.553 20.281 76.293 20.3661C76.2787 19.9818 76.1398 19.6126 75.8972 19.3144C75.6547 19.0161 75.3216 18.805 74.9483 18.7127C74.5749 18.6207 74.1818 18.6524 73.8284 18.8032C73.4748 18.9543 73.18 19.2163 72.9884 19.5497C72.5828 20.2491 72.51 21.1799 72.5724 21.9729C72.6054 22.3876 72.6803 22.7978 72.796 23.1975C72.8532 23.4003 73.1574 24.5651 73.3654 24.6015C74.7174 24.8303 76.8962 24.5105 77.9778 23.4003Z" fill="white"/>
</g>
<g opacity="0.72">
<path opacity="0.72" d="M71.9498 98.9114C74.6523 98.9114 76.843 96.7206 76.843 94.0182C76.843 91.3158 74.6523 89.125 71.9498 89.125C69.2474 89.125 67.0566 91.3158 67.0566 94.0182C67.0566 96.7206 69.2474 98.9114 71.9498 98.9114Z" fill="#3FBDF1"/>
<path opacity="0.72" d="M74.0709 94.8994C74.1913 94.7751 74.2921 94.6332 74.3699 94.4782C74.5092 94.2125 74.5467 93.9049 74.4755 93.6135C74.404 93.3217 74.2287 93.0664 73.9825 92.8948C73.821 92.783 73.6357 92.71 73.4412 92.6821C73.2467 92.6541 73.0483 92.6718 72.8619 92.7336C72.8502 92.4604 72.7504 92.1983 72.5772 91.9864C72.4043 91.7747 72.1672 91.6245 71.9017 91.5587C71.6363 91.4929 71.3565 91.5147 71.1046 91.6211C70.8526 91.7274 70.6418 91.9126 70.5037 92.1486C70.2388 92.685 70.135 93.2864 70.2047 93.8802C70.2286 94.1761 70.2827 94.4689 70.3659 94.7538C70.4075 94.8968 70.6259 95.7314 70.7715 95.7548C71.7439 95.9108 73.2987 95.6794 74.0709 94.8994Z" fill="white"/>
</g>
<path d="M61.0647 35.2787L57.8079 42.1653C56.626 44.6641 57.6938 47.6479 60.1926 48.8296L67.0793 52.0864C69.5781 53.2681 72.5619 52.2002 73.7436 49.7016L77.0006 42.8148C78.1823 40.3159 77.1145 37.3321 74.6156 36.1504L67.729 32.8937C65.2301 31.712 62.2464 32.7798 61.0647 35.2787Z" fill="#3FBDF1"/>
<path d="M75.1443 44.0229L72.7861 49.0097C72.2926 50.0513 71.4065 50.8552 70.3218 51.2449C69.2371 51.6347 68.0421 51.579 66.9985 51.0897L61.0185 48.2609C59.9772 47.7669 59.174 46.8808 58.7843 45.7964C58.3946 44.7119 58.4499 43.5172 58.9385 42.4733L59.0971 42.1353C60.7221 40.8353 63.5327 39.0881 64.5571 41.4723C66.0339 44.9043 67.9527 43.7941 70.4071 42.3589C72.4663 41.1447 74.9259 40.7417 75.1443 44.0229Z" fill="white"/>
<path d="M65.876 38.7197C66.8926 38.7197 67.7168 37.8955 67.7168 36.8789C67.7168 35.8623 66.8926 35.0381 65.876 35.0381C64.8594 35.0381 64.0352 35.8623 64.0352 36.8789C64.0352 37.8955 64.8594 38.7197 65.876 38.7197Z" fill="white"/>
<path d="M83.7906 57.7898L79.5012 66.8602C77.9456 70.1494 79.3511 74.0773 82.6407 75.6328L91.7108 79.9223C95.0003 81.4779 98.9278 80.0723 100.483 76.7828L104.773 67.7127C106.328 64.4232 104.923 60.4956 101.634 58.9401L92.5633 54.6506C89.2738 53.095 85.3462 54.5006 83.7906 57.7898Z" fill="#3FBDF1"/>
<path d="M102.326 69.3056L99.206 75.8706C98.5542 77.24 97.3865 78.2956 95.9586 78.8068C94.5304 79.3177 92.9582 79.2428 91.5854 78.5978L83.723 74.88C82.3536 74.2279 81.298 73.0603 80.7868 71.6324C80.2756 70.2044 80.3508 68.6322 80.9956 67.2594L81.2062 66.8148C83.346 65.1092 87.0432 62.803 88.3926 65.9412C90.34 70.46 92.8646 68.9986 96.0964 67.1084C98.7978 65.5198 102.04 64.9844 102.326 69.3056Z" fill="white"/>
<path d="M90.1205 62.321C91.4587 62.321 92.5437 61.236 92.5437 59.8978C92.5437 58.5593 91.4587 57.4746 90.1205 57.4746C88.7822 57.4746 87.6973 58.5593 87.6973 59.8978C87.6973 61.236 88.7822 62.321 90.1205 62.321Z" fill="white"/>
<path d="M101.412 31.949C101.773 32.614 102.036 33.3277 102.192 34.068C102.469 35.4306 102.387 36.8414 101.956 38.163C101.524 39.4845 100.757 40.6717 99.7295 41.608C98.9157 42.3282 97.8783 42.8924 97.0515 43.6464C96.4506 44.1664 96.0084 44.845 95.7749 45.6042C95.7312 45.8634 95.6272 46.1083 95.4707 46.3192C94.9871 46.8392 94.5165 46.0228 94.0979 45.8746C93.4263 45.6567 92.6983 45.6928 92.0517 45.976C90.3526 46.6764 88.4642 46.77 86.704 46.2412C84.9441 45.7123 83.4199 44.5933 82.3883 43.0725C81.3566 41.5515 80.8805 39.7217 81.0399 37.8907C81.1993 36.0601 81.9847 34.3399 83.2637 33.0202C84.5377 31.7202 86.2069 30.896 87.8163 30.0432C89.2359 29.2892 90.6477 28.4832 92.1869 28.0386C95.8113 26.9622 99.6619 28.7588 101.412 31.949Z" fill="#3FBDF1"/>
<path d="M86.8729 41.3502C87.8307 41.3502 88.6071 40.5739 88.6071 39.616C88.6071 38.6582 87.8307 37.8818 86.8729 37.8818C85.915 37.8818 85.1387 38.6582 85.1387 39.616C85.1387 40.5739 85.915 41.3502 86.8729 41.3502Z" fill="white"/>
<path d="M91.5448 38.8512C92.5026 38.8512 93.2789 38.0749 93.2789 37.117C93.2789 36.1592 92.5026 35.3828 91.5448 35.3828C90.5869 35.3828 89.8105 36.1592 89.8105 37.117C89.8105 38.0749 90.5869 38.8512 91.5448 38.8512Z" fill="white"/>
<path d="M95.9295 36.5065C96.8874 36.5065 97.6637 35.7301 97.6637 34.7723C97.6637 33.8147 96.8874 33.0381 95.9295 33.0381C94.9717 33.0381 94.1953 33.8147 94.1953 34.7723C94.1953 35.7301 94.9717 36.5065 95.9295 36.5065Z" fill="white"/>
<path d="M155.261 148.735V148.777L154.619 163.54L154.26 171.628C154.26 171.329 154.276 171.02 154.294 170.721C149.856 169.236 144.154 167.125 139.755 165.633C131.097 162.679 124.574 160.409 116.818 158.626C116.35 156.366 115.908 151.52 118.084 144.445C121.204 134.352 122.231 124.111 120.645 122.132C120.63 122.109 120.611 122.09 120.588 122.075C119.459 118.006 116.475 120.64 116.475 120.64C116.475 120.64 116.493 120.681 116.501 120.705C115.879 119.675 115.197 118.683 114.457 117.735C114.482 117.588 114.521 117.444 114.574 117.304C115.533 114.418 120.645 113.724 120.645 113.724C128.128 114.275 132.064 117.611 134.051 121.992C135.8 127.522 134.768 133.517 134.542 139.191C134.451 141.65 134.1 145.431 135.977 147.422C137.711 150.701 142.074 149.284 143.257 148.925C143.642 148.816 144.64 148.748 145.951 148.707C148.621 148.642 152.55 148.691 154.944 148.733C155.061 148.735 155.163 148.735 155.261 148.735Z" fill="#3FBDF1"/>
<path d="M51.7026 16.0446C51.1577 16.166 50.5982 16.2079 50.0412 16.1694C49.02 16.0888 48.0369 15.7441 47.1888 15.1695C46.3404 14.5946 45.6561 13.8094 45.2026 12.8907C44.8568 12.1653 44.6826 11.3151 44.3056 10.5767C44.0597 10.0465 43.6694 9.59605 43.1798 9.27674C43.0049 9.19347 42.8525 9.06955 42.7352 8.91535C42.4752 8.46815 43.1408 8.30174 43.3306 8.03654C43.6205 7.6051 43.7435 7.08294 43.6764 6.56754C43.522 5.21859 43.8382 3.85767 44.5716 2.71502C45.3051 1.5724 46.4106 0.718142 47.7015 0.29676C48.9921 -0.124622 50.3889 -0.0872341 51.6551 0.402554C52.9215 0.892342 53.9797 1.8045 54.651 2.98474C55.3114 4.15214 55.5532 5.50154 55.8288 6.81454C56.0732 7.97154 56.3488 9.13375 56.3488 10.3167C56.3722 13.0962 54.3156 15.457 51.7026 16.0446Z" fill="#3FBDF1"/>
<path d="M49.2395 5.46433C49.9446 5.46433 50.5161 4.89277 50.5161 4.18773C50.5161 3.48269 49.9446 2.91113 49.2395 2.91113C48.5344 2.91113 47.9629 3.48269 47.9629 4.18773C47.9629 4.89277 48.5344 5.46433 49.2395 5.46433Z" fill="white"/>
<path d="M50.0539 9.28172C50.7591 9.28172 51.3305 8.71016 51.3305 8.00512C51.3305 7.30007 50.7591 6.72852 50.0539 6.72852C49.3488 6.72852 48.7773 7.30007 48.7773 8.00512C48.7773 8.71016 49.3488 9.28172 50.0539 9.28172Z" fill="white"/>
<path d="M50.8215 12.8647C51.5266 12.8647 52.0981 12.2932 52.0981 11.5881C52.0981 10.8831 51.5266 10.3115 50.8215 10.3115C50.1164 10.3115 49.5449 10.8831 49.5449 11.5881C49.5449 12.2932 50.1164 12.8647 50.8215 12.8647Z" fill="white"/>
<g opacity="0.72">
<path opacity="0.72" d="M127.82 62.4591C133.179 62.4591 137.524 58.1148 137.524 52.7559C137.524 47.3971 133.179 43.0527 127.82 43.0527C122.462 43.0527 118.117 47.3971 118.117 52.7559C118.117 58.1148 122.462 62.4591 127.82 62.4591Z" fill="#3FBDF1"/>
<path opacity="0.72" d="M128.185 57.2878C128.512 57.3921 128.853 57.4457 129.196 57.4465C129.792 57.4543 130.371 57.2442 130.823 56.856C131.275 56.4678 131.57 55.928 131.653 55.3378C131.707 54.9525 131.67 54.5602 131.546 54.1915C131.422 53.8228 131.214 53.4882 130.938 53.2136C131.414 52.9495 131.79 52.5379 132.011 52.0411C132.233 51.5442 132.286 50.9891 132.165 50.4589C132.043 49.9288 131.752 49.4527 131.336 49.1023C130.921 48.7518 130.402 48.5459 129.859 48.5155C128.718 48.4505 127.496 48.9523 126.531 49.5347C126.029 49.8417 125.559 50.1979 125.127 50.598C124.906 50.8008 123.627 51.9319 123.715 52.2153C124.287 54.0795 126.084 56.6352 128.185 57.2878Z" fill="white"/>
</g>
<path d="M132.327 92.3597C131.72 93.2413 130.988 94.0296 130.153 94.6997C128.608 95.9204 126.773 96.7193 124.826 97.0183C122.88 97.3173 120.889 97.106 119.049 96.4053C117.616 95.8359 116.243 94.8817 114.761 94.3253C113.721 93.8983 112.581 93.7722 111.472 93.9613C111.117 94.0718 110.741 94.0967 110.375 94.0341C109.413 93.7533 110.141 92.6405 110.061 92.0165C109.907 91.0292 109.397 90.1322 108.628 89.4944C106.644 87.7969 105.309 85.466 104.846 82.8967C104.385 80.3271 104.825 77.6769 106.093 75.3949C107.361 73.1129 109.379 71.3392 111.805 70.3746C114.231 69.4097 116.916 69.3132 119.405 70.101C121.865 70.881 123.968 72.4645 126.074 73.9543C127.93 75.2673 129.841 76.5543 131.396 78.1975C135.06 82.1001 135.244 88.1165 132.327 92.3597Z" fill="#3FBDF1"/>
<path d="M113.361 81.3356C114.716 81.3356 115.815 80.2368 115.815 78.8812C115.815 77.5258 114.716 76.4268 113.361 76.4268C112.005 76.4268 110.906 77.5258 110.906 78.8812C110.906 80.2368 112.005 81.3356 113.361 81.3356Z" fill="white"/>
<path d="M119.497 85.6471C120.853 85.6471 121.952 84.5483 121.952 83.1927C121.952 81.8373 120.853 80.7383 119.497 80.7383C118.142 80.7383 117.043 81.8373 117.043 83.1927C117.043 84.5483 118.142 85.6471 119.497 85.6471Z" fill="white"/>
<path d="M125.259 89.6891C126.615 89.6891 127.713 88.5903 127.713 87.2347C127.713 85.8793 126.615 84.7803 125.259 84.7803C123.903 84.7803 122.805 85.8793 122.805 87.2347C122.805 88.5903 123.903 89.6891 125.259 89.6891Z" fill="white"/>
<g opacity="0.54">
<path opacity="0.54" d="M57.7926 19.526C57.7601 19.9498 57.6948 20.3705 57.5976 20.7844L56.5108 25.4982C56.178 26.9412 55.8036 28.4622 54.7714 29.523C52.8474 31.4912 49.626 31.0414 46.9402 30.4434L40.3466 28.9796C38.8334 28.6416 37.2942 28.2984 35.9266 27.5444C34.559 26.7904 33.3942 25.5658 33.0666 24.0448C32.8352 22.9242 33.0848 21.7672 33.3266 20.6492L34.3536 16.12C34.6838 14.638 35.0582 13.0702 36.1268 11.9938C38.0326 10.0724 41.189 10.5092 43.8332 11.0812L50.575 12.545C54.6466 13.4368 58.1176 15.3244 57.7926 19.526Z" fill="#3FBDF1"/>
<path opacity="0.54" d="M48.7003 19.6524C48.9824 19.9153 49.1902 20.2476 49.3033 20.6162C49.4161 20.9849 49.4301 21.3767 49.3438 21.7524C49.2572 22.1281 49.0734 22.4745 48.8108 22.7566C48.5482 23.0387 48.2159 23.2469 47.8475 23.36L45.8377 23.9762L43.8305 24.5898C43.4611 24.7034 43.0685 24.7175 42.692 24.6306C42.3152 24.5438 41.9684 24.3592 41.686 24.0956C41.4034 23.8319 41.1957 23.4983 41.0833 23.1286C40.9708 22.7589 40.958 22.366 41.0459 21.9898L41.5165 19.941L41.9871 17.8948C42.0742 17.5191 42.2583 17.1728 42.5214 16.891C42.7843 16.6089 43.1168 16.4009 43.4855 16.288C43.8544 16.1749 44.2463 16.1609 44.6222 16.2472C44.9979 16.3335 45.3445 16.5171 45.6271 16.7794L47.1637 18.212L48.7003 19.6524Z" fill="white"/>
</g>
<g opacity="0.54">
<path opacity="0.54" d="M131.886 28.599C131.854 29.0228 131.789 29.4437 131.691 29.8574L130.605 34.579C130.272 36.022 129.897 37.543 128.865 38.6012C126.941 40.572 123.72 40.1196 121.034 39.5242L114.44 38.0578C112.927 37.7224 111.388 37.3766 110.02 36.6252C108.653 35.8738 107.488 34.644 107.16 33.1256C106.929 32.005 107.179 30.848 107.42 29.73L108.45 25.219C108.778 23.7344 109.152 22.1692 110.221 21.0902C112.126 19.1714 115.283 19.6056 117.927 20.1802L124.658 21.6336C128.74 22.515 132.211 24.4052 131.886 28.599Z" fill="#3FBDF1"/>
<path opacity="0.54" d="M122.794 28.7314C123.076 28.9945 123.284 29.327 123.397 29.6957C123.51 30.0644 123.523 30.4565 123.437 30.8322C123.351 31.2081 123.167 31.5545 122.905 31.8371C122.642 32.1194 122.31 32.328 121.941 32.4416L119.931 33.0552L117.924 33.6714C117.555 33.7847 117.162 33.7988 116.786 33.7119C116.409 33.6254 116.062 33.4408 115.78 33.1771C115.497 32.9132 115.289 32.5799 115.177 32.2102C115.065 31.8405 115.052 31.4476 115.14 31.0714L115.61 29.0252L116.081 26.979C116.168 26.6033 116.352 26.257 116.615 25.9749C116.878 25.6928 117.211 25.485 117.579 25.3719C117.948 25.2591 118.34 25.2448 118.716 25.3311C119.092 25.4174 119.438 25.601 119.721 25.8636L121.257 27.2962L122.794 28.7314Z" fill="white"/>
</g>
<g opacity="0.54">
<path opacity="0.54" d="M100.774 91.8526C100.757 92.0496 100.726 92.2454 100.68 92.4376L100.176 94.6398C100.02 95.3106 99.8453 96.0178 99.3643 96.5118C98.4699 97.4296 96.9697 97.219 95.7243 96.9408L92.6537 96.2596C91.9408 96.1358 91.2492 95.9106 90.5997 95.5914C90.2758 95.4291 89.9903 95.1998 89.7617 94.9187C89.5329 94.6377 89.3668 94.3114 89.2737 93.9612C89.203 93.4315 89.2446 92.8928 89.3959 92.3804L89.8639 90.2744C90.0173 89.5854 90.1915 88.8548 90.6907 88.353C91.5773 87.4586 93.0463 87.6614 94.2761 87.9292L97.4169 88.6104C99.3071 89.016 100.924 89.8948 100.774 91.8526Z" fill="#3FBDF1"/>
<path opacity="0.54" d="M96.5371 91.9121C96.6686 92.0343 96.7659 92.189 96.8186 92.3609C96.8714 92.5327 96.8779 92.7152 96.8376 92.8902C96.7973 93.0655 96.7115 93.2267 96.5888 93.3582C96.4663 93.4895 96.3111 93.5863 96.1393 93.6385L95.2059 93.9245L94.2699 94.2105C94.098 94.2641 93.9152 94.2713 93.7394 94.2318C93.5639 94.192 93.402 94.1065 93.2702 93.984C93.1381 93.8616 93.0408 93.7066 92.9883 93.5345C92.9355 93.3624 92.929 93.1794 92.9699 93.0041L93.1987 92.0395L93.4171 91.0853C93.4568 90.9098 93.5421 90.7478 93.6646 90.616C93.787 90.4839 93.942 90.3867 94.1138 90.3339C94.286 90.2811 94.469 90.2749 94.6443 90.3154C94.8195 90.356 94.9809 90.4423 95.1122 90.5653L95.8272 91.2309L96.5371 91.9121Z" fill="white"/>
</g>
<g opacity="0.54">
<path opacity="0.54" d="M68.4052 0.553198C68.6184 0.66414 68.8236 0.790135 69.0188 0.930197L71.2028 2.5266C71.8736 3.0128 72.573 3.5406 72.8902 4.305C73.4804 5.7272 72.5392 7.2846 71.6422 8.5326L69.44 11.6006C68.9687 12.331 68.3941 12.9895 67.7344 13.5558C67.048 14.0758 66.1588 14.4242 65.3086 14.25C64.682 14.1252 64.1412 13.73 63.6212 13.3686L61.5152 11.858C60.8262 11.364 60.1034 10.818 59.7836 10.038C59.2142 8.634 60.132 7.1078 61.0082 5.878L63.2416 2.732C64.5806 0.833997 66.3148 -0.536202 68.4052 0.553198Z" fill="#3FBDF1"/>
<path opacity="0.54" d="M66.47 5.25666C66.6663 5.16969 66.8819 5.13569 67.0953 5.15805C67.3088 5.18041 67.5126 5.25838 67.6866 5.38414C67.8605 5.5099 67.9983 5.67909 68.0864 5.87479C68.1746 6.07049 68.2097 6.2859 68.1886 6.49946L68.0638 7.66946L67.939 8.83946C67.9162 9.05389 67.8374 9.25848 67.7102 9.43268C67.5831 9.60688 67.4125 9.74455 67.2154 9.83178C67.0181 9.91904 66.8015 9.95281 66.587 9.92967C66.3728 9.90656 66.1682 9.82736 65.9942 9.70006L65.0452 9.00846L64.0962 8.31946C63.9215 8.19266 63.7832 8.022 63.6956 7.82471C63.6079 7.62742 63.5739 7.41048 63.5968 7.1958C63.6196 6.98111 63.699 6.77629 63.8264 6.60198C63.9538 6.42768 64.1248 6.29009 64.3224 6.20306L65.3962 5.72726L66.47 5.25666Z" fill="white"/>
</g>
<path d="M171.342 196.82C171.341 196.865 171.335 196.911 171.326 196.955C171.322 196.966 171.322 196.978 171.326 196.989C170.96 199.417 169.952 201.704 168.406 203.611C168.388 203.627 168.38 203.653 168.365 203.669C165.988 206.63 162.543 208.767 159.057 210.109C155.495 211.495 151.883 212.054 149.312 211.861H149.255C146.109 211.627 142.656 212.035 139.635 212.602C139.318 212.662 139 212.719 138.683 212.787C136.689 213.187 134.721 213.686 132.771 214.238L132.404 214.339L132.16 214.404C130.34 202.486 129.107 190.281 129.107 190.281L166.287 196.888C167.961 197.192 169.677 197.169 171.342 196.82Z" fill="#3FBDF1"/>
<path d="M94.9876 140.165C93.0324 142.105 90.4142 142.479 87.8428 143.051C82.0006 144.351 77.1022 142.874 76.8448 136.159C76.6784 131.837 77.136 127.514 79.7516 123.926C82.8846 119.628 87.6972 116.765 92.4916 114.675C92.4916 114.675 94.6912 125.928 104.712 126.416C114.732 126.905 112.293 140.116 100.552 137.914" stroke="black" stroke-width="1.15773" stroke-miterlimit="10"/>
<path d="M102.52 143.541C102.78 143.541 103.019 143.541 103.261 143.523C103.319 143.519 103.379 143.519 103.437 143.523H103.461L103.921 143.481" stroke="black" stroke-width="1.15773" stroke-miterlimit="10"/>
<path d="M113.623 116.056C111.98 114.103 110.017 112.444 107.817 111.15C107.572 110.988 107.319 110.841 107.058 110.708C106.798 110.559 106.538 110.416 106.278 110.284C105.729 110 105.16 109.733 104.577 109.504C101.139 108.064 97.4473 107.328 93.7197 107.338C73.6685 107.338 79.2403 124.688 79.2403 124.688" stroke="black" stroke-width="1.15773" stroke-miterlimit="10"/>
<path d="M116.95 158.454C116.259 154.768 117.125 149.029 118.084 144.44C118.945 140.353 119.886 137.184 119.886 137.184C121.305 128.843 121.246 124.371 120.588 122.07C119.459 118.006 116.475 120.64 116.475 120.64" stroke="black" stroke-width="1.15773" stroke-miterlimit="10"/>
<path d="M120.589 122.07C119.46 118.007 116.475 120.64 116.475 120.64C115.96 119.466 115.323 118.348 114.575 117.305C114.273 116.885 113.956 116.476 113.623 116.078C114.515 113.709 116.894 112.297 119.343 112.107C125.773 111.613 132.112 115.87 134.049 121.987C135.799 127.518 134.766 133.513 134.54 139.186C134.449 141.646 134.098 145.426 135.975 147.418C136.074 147.519 136.168 147.61 136.274 147.701C137.834 149.046 140.32 149.121 143.266 148.921C144.124 148.861 145.026 148.788 145.959 148.702C148.819 148.442 151.939 148.219 154.953 148.728L155.252 148.778C155.161 153.692 154.859 158.621 154.61 163.535C154.477 165.927 154.35 168.322 154.285 170.717C149.846 169.232 144.145 167.121 139.745 165.628L137.4 164.82C129.884 162.259 123.862 160.239 116.832 158.621C114.12 157.995 111.26 157.436 108.098 156.918L104.736 156.328C104.511 156.289 104.307 156.171 104.16 155.995C104.014 155.82 103.934 155.598 103.936 155.369V143.474C106.181 143.283 108.351 142.575 110.277 141.406C112.203 140.237 113.832 138.638 115.038 136.735C118.29 131.503 118.6 126.15 116.821 121.452C116.758 121.264 116.684 121.08 116.6 120.9C116.581 120.846 116.558 120.793 116.533 120.742C116.533 120.726 116.517 120.7 116.509 120.682" stroke="black" stroke-width="1.15773" stroke-miterlimit="10"/>
<path d="M33.8047 164.82C34.8447 156.76 35.3231 148.562 36.3319 140.455" stroke="black" stroke-width="1.15773" stroke-miterlimit="10"/>
<path d="M36.498 139.186C36.7814 136.992 37.1168 134.797 37.538 132.629C37.5536 132.522 37.5719 132.421 37.5953 132.322C37.8293 131.038 38.0893 129.761 38.3753 128.484C39.2437 124.665 42.2752 121.87 44.4306 118.758L44.5632 118.425C49.2133 111.66 51.7879 103.685 51.9706 95.4775C52.0226 92.5083 51.9056 86.6375 48.5022 85.4259C46.5912 84.7421 44.5632 86.0785 43.505 87.6047C43.0703 88.2346 42.7209 88.9192 42.465 89.6405" stroke="black" stroke-width="1.15773" stroke-miterlimit="10"/>
<path d="M67.4043 233.999C59.1025 210.427 63.0389 184.677 63.0389 184.677L50.7955 185.062L18.4983 186.086C16.6013 186.149 14.7132 185.803 12.9613 185.074C11.2092 184.344 9.63438 183.246 8.34322 181.855C7.0518 180.464 6.0742 178.813 5.4762 177.011C4.8782 175.21 4.67384 173.301 4.8769 171.414L14.4709 136.39" stroke="black" stroke-width="1.15773" stroke-miterlimit="10"/>
<path d="M14.9355 134.68L15.7779 131.612L16.7555 128.133" stroke="black" stroke-width="1.15773" stroke-miterlimit="10"/>
<path d="M17.5882 125.138L18.1472 123.128C18.8877 120.46 18.7044 117.62 17.6272 115.068L16.5171 112.416C15.7917 110.206 15.5654 109.138 16.4754 106.977C16.906 105.958 17.5105 105.021 18.2616 104.208C20.4534 101.79 23.5396 100.589 26.7194 100.178C29.8992 99.7672 33.4093 100.087 35.9677 102.149C37.7045 103.548 39.3477 106.878 38.2115 109.054C37.3873 110.638 35.6426 111.098 34.158 110.531C33.6386 110.337 33.1706 110.026 32.7905 109.621C31.0381 107.786 27.3304 107.385 26.0304 109.171" stroke="black" stroke-width="1.15773" stroke-miterlimit="10"/>
<path d="M154.211 173.636C154.211 172.983 154.234 172.336 154.26 171.675V171.623C154.26 171.324 154.276 171.015 154.294 170.716" stroke="black" stroke-width="1.15773" stroke-miterlimit="10"/>
<path d="M150.875 111.184C147.83 112.811 144.092 116.904 150.399 126.524C152.479 129.693 154.676 133.12 154.986 137.033C155.274 140.943 155.366 144.865 155.261 148.785" stroke="black" stroke-width="1.15773" stroke-miterlimit="10"/>
<path d="M121.348 188.916L128.586 190.2L129.106 190.291L132.426 190.884L166.281 196.898C167.957 197.203 169.676 197.18 171.343 196.83C174.238 196.221 176.847 194.662 178.755 192.401C180.663 190.14 181.761 187.306 181.876 184.35L176.873 143.398L175.766 134.656C175.414 131.907 176.004 129.12 177.44 126.75L178.925 124.28C178.925 124.28 181.509 120.51 176.988 120.234C174.551 120.091 172.016 120.754 169.814 121.753C168.556 122.312 166.788 123.313 166.078 124.688C165.789 125.209 165.692 125.814 165.802 126.399C166.322 129.085 169.702 130.218 171.933 129.085" stroke="black" stroke-width="1.15773" stroke-miterlimit="10"/>
<path d="M178.479 120.429C178.479 120.429 181.035 118.908 179.306 115.167C178.693 113.836 176.834 112.913 172.832 113.167C162.172 113.846 157.997 124.808 166.09 124.688" stroke="black" stroke-width="1.15773" stroke-miterlimit="10"/>
<path d="M176.051 113.15C178.417 109.889 174.231 106.769 171.181 106.876C168.305 106.977 165.396 108.041 162.877 109.372C159.372 111.223 154.848 114.808 156.143 119.345C156.525 120.682 159.549 122.333 161.525 121.379" stroke="black" stroke-width="1.15773" stroke-miterlimit="10"/>
<path d="M155.919 117.733C155.919 117.733 155.919 117.733 155.919 117.749C154.268 120.902 146.452 117.749 150.864 111.184C151.895 109.731 153.131 108.436 154.533 107.338C165.536 98.3475 167.996 107.489 167.98 106.946" stroke="black" stroke-width="1.15773" stroke-miterlimit="10"/>
<path d="M160.709 121.451C160.709 121.451 164.734 124.311 163.499 129.077" stroke="black" stroke-width="1.15773" stroke-miterlimit="10"/>
<path d="M19.0073 98.5742C18.7473 97.5498 18.7811 96.2576 19.3895 94.604C20.2657 92.2276 22.8189 90.6676 25.3045 89.6406C26.2119 89.2662 27.1245 88.9568 27.9045 88.715C30.6163 87.883 33.5933 87.441 36.4845 87.7322C37.4589 87.8266 38.4222 88.0112 39.3627 88.2834C40.4474 88.5962 41.4853 89.0528 42.4489 89.6406C44.8253 91.1018 46.4347 93.3196 47.4019 96.2316C48.2443 98.7432 48.5693 101.728 46.4841 103.296" stroke="black" stroke-width="1.15773" stroke-miterlimit="10"/>
<path d="M46.6744 136.716L45.9074 140.429C45.8819 140.554 45.8317 140.672 45.7594 140.777C45.6872 140.882 45.5946 140.972 45.4872 141.04C45.3796 141.109 45.2595 141.155 45.1339 141.176C45.0081 141.196 44.8793 141.192 44.7556 141.162C41.8046 140.463 39.2176 139.813 36.498 139.186C35.1486 138.869 33.755 138.57 32.2782 138.261C26.5062 137.067 20.742 135.72 14.9388 134.68C12.513 134.246 10.0846 133.869 7.64058 133.586C6.27298 133.427 4.88719 133.362 3.51179 133.261C3.21123 133.254 2.91976 133.155 2.67718 132.977C1.37718 132.026 2.67719 128.932 2.96059 127.647C2.96059 127.632 2.96059 127.614 2.96059 127.598C3.16079 126.613 8.82358 126.896 16.7406 128.131C19.5018 128.565 22.536 129.106 25.7158 129.759C30.1852 130.676 34.2152 131.667 37.5094 132.619C38.0762 132.785 38.6196 132.944 39.137 133.102C39.137 133.102 39.137 133.102 39.1526 133.102C39.8104 133.31 40.4292 133.51 41.0116 133.711C44.6906 134.966 46.8096 136.058 46.6744 136.716Z" fill="#3FBDF1"/>
<path d="M46.6744 136.716L45.9074 140.429C45.8819 140.554 45.8317 140.672 45.7594 140.777C45.6872 140.882 45.5946 140.972 45.4872 141.04C45.3796 141.109 45.2595 141.155 45.1339 141.176C45.0081 141.196 44.8793 141.192 44.7556 141.162C41.8046 140.463 39.2176 139.813 36.498 139.186C35.1486 138.869 33.755 138.57 32.2782 138.261C26.5062 137.067 20.742 135.72 14.9388 134.68C12.513 134.246 10.0846 133.869 7.64058 133.586C6.27298 133.427 4.88719 133.362 3.51179 133.261C3.21123 133.254 2.91976 133.155 2.67718 132.977C1.37718 132.026 2.67719 128.932 2.96059 127.647C2.96059 127.632 2.96059 127.614 2.96059 127.598C3.16079 126.613 8.82358 126.896 16.7406 128.131C19.5018 128.565 22.536 129.106 25.7158 129.759C30.1852 130.676 34.2152 131.667 37.5094 132.619C38.0762 132.785 38.6196 132.944 39.137 133.102C39.137 133.102 39.137 133.102 39.1526 133.102C39.8104 133.31 40.4292 133.51 41.0116 133.711C44.6906 134.966 46.8096 136.058 46.6744 136.716Z" stroke="black" stroke-width="1.15773" stroke-miterlimit="10"/>
<path d="M38.5787 107.054L39.3171 108.534C40.2453 109.55 41.5297 110.193 43.2899 109.751C46.7427 108.893 47.0833 106.03 46.4827 103.295C46.3795 102.798 46.2458 102.308 46.0823 101.828C45.2737 99.4156 44.0231 97.4734 42.2707 96.0564C41.0255 95.0484 39.5867 94.3069 38.0431 93.8776C36.7855 93.5144 35.4878 93.3075 34.1795 93.2614C31.6089 93.1728 29.0421 93.5246 26.5901 94.3014C24.1383 95.0528 20.7843 96.345 19.0007 98.5628C18.6011 99.0501 18.2849 99.6 18.0647 100.19C17.5161 101.683 17.4225 102.892 17.6149 103.869L17.7995 104.779" stroke="black" stroke-width="1.15773" stroke-miterlimit="10"/>
<path d="M39.5344 88.3404L40.3924 84.7862L41.4116 80.6002C41.5554 79.9965 41.5736 79.3699 41.4647 78.7589C41.3557 78.1482 41.122 77.5663 40.7783 77.0497C40.4346 76.533 39.9881 76.0926 39.4668 75.7562C38.9455 75.4195 38.3605 75.194 37.7482 75.0934C37.5085 75.0536 37.2659 75.0347 37.0228 75.0362C35.994 75.0336 34.9954 75.3841 34.1938 76.0292C33.3925 76.6742 32.8363 77.5746 32.6184 78.58C32.3584 79.7916 32.0334 81.2658 31.6746 82.9272C31.334 84.5028 30.957 86.2292 30.5566 88.0492" stroke="black" stroke-width="1.15773" stroke-miterlimit="10"/>
<path d="M29.3516 93.6357V93.6279" stroke="black" stroke-width="0.77182" stroke-miterlimit="10"/>
<path d="M26.0394 109.168C25.7794 110.445 25.6312 111.248 25.639 111.386C25.639 111.386 25.639 111.386 25.639 111.404C24.5132 118.97 21.2008 123.016 17.5972 125.124C15.3932 126.378 12.9315 127.112 10.4004 127.269" stroke="black" stroke-width="1.15773" stroke-miterlimit="10"/>
<path d="M34.1788 110.528C34.1788 110.528 28.1416 126.62 37.5822 132.324C38.0814 132.624 38.6029 132.885 39.1422 133.104C39.7883 133.372 40.4552 133.587 41.1364 133.746" stroke="black" stroke-width="1.15773" stroke-miterlimit="10"/>
<path d="M45.4077 141.086C45.4077 141.086 45.4493 141.83 36.3311 140.454C33.2111 139.986 29.0173 139.269 23.3779 138.185C19.8419 137.509 16.9039 136.908 14.4703 136.391C1.68348 133.655 2.67408 132.979 2.67408 132.979" stroke="black" stroke-width="1.15773" stroke-miterlimit="10"/>
<path d="M71.0995 50.6346C69.1547 60.9436 62.7483 71.796 54.9795 78.7614C51.8023 81.6214 48.1077 83.6156 44.1193 84.4008C42.8955 84.6496 41.6501 84.7778 40.4013 84.783L41.4127 80.5996C41.661 79.5692 41.5398 78.4845 41.0705 77.5342C40.601 76.5839 39.8132 75.8286 38.8439 75.3996C38.4937 75.2493 38.1273 75.1401 37.7519 75.0746C37.5114 75.0348 37.2678 75.0156 37.0239 75.0174C35.993 75.0159 34.9928 75.3684 34.1907 76.0163C33.3888 76.6645 32.8343 77.5685 32.6195 78.5768C32.4609 79.336 32.2685 80.1966 32.0605 81.1378C22.1805 74.6066 17.8957 60.6368 18.3715 49.293C18.5223 45.523 18.7303 40.5596 20.3813 36.722C20.9385 35.3544 21.7702 34.1155 22.8253 33.082C27.5053 28.6776 33.9117 26.6678 40.5183 26.3662C45.5891 26.6054 50.5795 27.7263 55.2655 29.6786C64.0015 33.368 73.1171 39.9096 71.0995 50.6346Z" fill="#3FBDF1"/>
<path d="M71.0995 50.6346C69.1547 60.9436 62.7483 71.796 54.9795 78.7614C51.8023 81.6214 48.1077 83.6156 44.1193 84.4008L45.0423 80.5996C45.1861 79.9961 45.2043 79.3693 45.0953 78.7583C44.9861 78.1475 44.7527 77.5657 44.4089 77.049C44.0652 76.5324 43.6188 76.092 43.0975 75.7555C42.5762 75.4191 41.9912 75.1934 41.3789 75.0928C41.1392 75.053 40.8966 75.034 40.6535 75.0356C40.0266 75.033 39.4063 75.1633 38.8335 75.4178C38.4833 75.2675 38.1169 75.1583 37.7415 75.0928C37.501 75.053 37.2574 75.0338 37.0135 75.0356C35.9868 75.0354 34.991 75.3866 34.1917 76.0309C33.3922 76.6752 32.8374 77.5735 32.6195 78.5768C32.4609 79.336 32.2685 80.1966 32.0605 81.1378C22.1805 74.6066 17.8957 60.6368 18.3715 49.293C18.5223 45.523 18.7303 40.5596 20.3813 36.722C20.9385 35.3544 21.7702 34.1155 22.8253 33.082C27.5053 28.6776 33.9117 26.6678 40.5183 26.3662C45.5891 26.6054 50.5795 27.7263 55.2655 29.6786C64.0015 33.368 73.1171 39.9096 71.0995 50.6346Z" fill="#3FBDF1"/>
<path d="M71.0999 50.6375C69.1577 60.9465 62.7513 71.7989 54.9799 78.7643C50.8199 82.4927 45.7993 84.7599 40.3939 84.7859L41.4131 80.5999C41.5569 79.9964 41.5751 79.3695 41.4662 78.7585C41.357 78.1478 41.1235 77.5659 40.7798 77.0493C40.4361 76.5327 39.9896 76.0922 39.4683 75.7558C38.947 75.4191 38.362 75.1937 37.7497 75.0931C37.51 75.0533 37.2674 75.0343 37.0243 75.0359C35.9955 75.0333 34.9969 75.384 34.1953 76.0288C33.3937 76.6739 32.8378 77.5742 32.6199 78.5797C32.3599 79.7913 32.0349 81.2655 31.6761 82.9269C19.4821 77.5215 14.2171 61.8149 14.7449 49.2959C14.8931 45.5259 15.1011 40.5625 16.7547 36.7249C17.3109 35.3567 18.1429 34.1176 19.1987 33.0849C28.4053 24.4269 44.2471 25.0249 55.2659 29.6815C63.9993 33.3709 73.1175 39.9099 71.0999 50.6375Z" stroke="black" stroke-width="1.15773" stroke-miterlimit="10"/>
<path d="M71.0476 51.0098C73.151 53.5266 75.1244 57.7438 73.3876 64.0098C73.1206 64.9985 72.7384 65.9522 72.2489 66.8516C69.4877 71.7916 64.1577 72.6574 60.5645 72.6054" stroke="black" stroke-width="1.15773" stroke-miterlimit="10"/>
<path d="M69.4458 56.2793C71.2658 58.4581 72.948 61.9083 72.246 66.8561C72.1344 67.6504 71.9704 68.4364 71.7546 69.2091C69.1546 78.5483 59.61 78.0881 56.334 77.6331" stroke="black" stroke-width="1.15773" stroke-miterlimit="10"/>
<path d="M18.4721 69.1592C16.4389 69.5778 4.93394 67.217 4.79354 57.6256C4.7522 56.3256 4.99739 55.0324 5.51115 53.8374C7.31295 49.7762 12.0657 48.4918 14.8035 48.0732" stroke="black" stroke-width="1.15773" stroke-miterlimit="10"/>
<path d="M16.4035 64.3524C14.3235 64.4798 3.27091 60.5356 4.46951 51.017C4.61251 49.7277 5.03579 48.4854 5.70971 47.377C8.04971 43.6044 12.9481 42.9986 15.7145 42.957" stroke="black" stroke-width="1.15773" stroke-miterlimit="10"/>
<path d="M63.0391 184.68C63.0391 184.68 63.2757 182.873 64.5757 178.791" stroke="black" stroke-width="1.15773" stroke-miterlimit="10"/>
<path d="M105.798 156.501V156.519C105.704 162.736 101.378 164.145 97.8237 164.821C89.0643 166.495 82.9829 160.107 83.2507 154.543" stroke="black" stroke-width="1.15773" stroke-miterlimit="10"/>
<path d="M84.9123 122.296C84.9123 122.296 85.1723 125.156 82.6841 128.845C82.0185 129.838 84.3221 130.247 84.8707 130.431" stroke="black" stroke-width="1.15773" stroke-miterlimit="10"/>
<path d="M94.9445 128.486C96.4221 125.926 95.9333 122.878 93.8527 121.677C91.7722 120.475 88.888 121.576 87.4105 124.136C85.9329 126.695 86.4214 129.743 88.5019 130.945C90.5825 132.146 93.4669 131.045 94.9445 128.486Z" stroke="black" stroke-width="1.15773" stroke-miterlimit="10"/>
<path d="M84.6223 125.175C86.0999 122.604 85.6035 119.546 83.5134 118.345C81.4235 117.143 78.5313 118.254 77.0537 120.825C75.5761 123.396 76.0727 126.454 78.1626 127.655C80.2527 128.856 83.1447 127.746 84.6223 125.175Z" stroke="black" stroke-width="1.16172" stroke-miterlimit="10"/>
<path d="M81.0237 119.715C81.4579 119.711 81.885 119.823 82.2613 120.04C82.611 120.254 82.9076 120.546 83.1289 120.892C83.3499 121.237 83.4898 121.629 83.5379 122.036C83.679 123.053 83.4671 124.088 82.9373 124.967C82.1573 126.306 80.8573 127.169 79.5703 127.169C79.1363 127.174 78.7089 127.063 78.3327 126.846C77.9832 126.631 77.6868 126.34 77.4658 125.994C77.2448 125.648 77.1047 125.257 77.0561 124.85C76.9149 123.832 77.1268 122.797 77.6567 121.917C78.4367 120.58 79.7367 119.715 81.0237 119.715ZM81.0237 118.935C79.5209 118.935 77.9271 119.891 76.9859 121.535C75.6859 123.786 76.1149 126.475 77.9453 127.515C78.4393 127.799 79.0001 127.947 79.5703 127.944C81.0731 127.944 82.6669 126.984 83.6107 125.344C84.9107 123.095 84.4791 120.404 82.6487 119.364C82.1541 119.081 81.5933 118.934 81.0237 118.937V118.935Z" fill="white"/>
<path d="M83.6099 125.347C84.9094 123.096 84.4799 120.415 82.6505 119.359C80.8214 118.303 78.2848 119.271 76.9854 121.522C75.6859 123.773 76.1154 126.454 77.9445 127.51C79.7739 128.566 82.3102 127.598 83.6099 125.347Z" fill="#3FBDF1"/>
<path d="M95.0592 127.746C96.3589 125.484 95.9226 122.795 94.0849 121.739C92.2473 120.683 89.7039 121.66 88.4045 123.921C87.105 126.182 87.5413 128.871 89.3789 129.928C91.2166 130.984 93.7597 130.007 95.0592 127.746Z" fill="#3FBDF1"/>
<path d="M84.8789 123.24C84.8789 123.24 85.6589 122.078 87.4191 124.135" stroke="black" stroke-width="1.15773" stroke-miterlimit="10"/>
<path d="M92.5323 126.081C92.9558 125.526 92.9179 124.785 92.4478 124.426C91.9775 124.068 91.2531 124.226 90.8296 124.781C90.406 125.336 90.444 126.076 90.9143 126.435C91.3844 126.794 92.109 126.636 92.5323 126.081Z" fill="#353642"/>
<path d="M83.7611 123.555C84.1844 123.001 84.1467 122.26 83.6763 121.901C83.206 121.542 82.4816 121.701 82.0581 122.255C81.6345 122.81 81.6725 123.551 82.1428 123.91C82.6129 124.269 83.3375 124.11 83.7611 123.555Z" fill="#353642"/>
<path d="M90.2175 135.066C84.8927 139.59 82.0977 135.56 82.0977 135.56" stroke="black" stroke-width="1.15773" stroke-miterlimit="10"/>
<path d="M33.8047 161.072C38.4093 160.248 43.0555 159.603 47.6185 158.761C49.8441 158.352 52.0679 157.955 54.2901 157.57C64.1909 155.885 74.0761 154.575 84.0861 154.533C84.5694 154.534 85.0366 154.359 85.4012 154.042C85.7659 153.724 86.0033 153.286 86.0699 152.807L86.2545 151.421L87.4219 142.781" stroke="black" stroke-width="1.15773" stroke-miterlimit="10"/>
<path d="M103.922 143.472V143.431V143.224" stroke="black" stroke-width="1.15773" stroke-miterlimit="10"/>
<path d="M2.65625 234H59.6872H66.1378H121.396H131.749H200.763" stroke="black" stroke-width="1.15773" stroke-miterlimit="10"/>
<path d="M129.102 190.291C129.102 190.291 130.329 202.495 132.154 214.414C133.355 222.255 134.824 229.97 136.358 234" stroke="black" stroke-width="1.15773" stroke-miterlimit="10"/>
<path d="M132.154 214.413L132.396 214.348L132.765 214.247C134.715 213.696 136.683 213.207 138.678 212.796C138.995 212.728 139.312 212.671 139.629 212.611C141.853 212.201 144.108 211.981 146.368 211.954C147.369 211.954 148.329 211.92 149.247 211.87H149.304C153.149 211.652 156.363 211.036 159.049 210.118C163.435 208.626 166.396 206.332 168.357 203.678C168.372 203.662 168.38 203.636 168.398 203.621C169.824 201.642 170.819 199.386 171.318 196.998C171.314 196.988 171.314 196.976 171.318 196.965L171.344 196.84" stroke="black" stroke-width="1.15773" stroke-miterlimit="10"/>
</svg>
