<svg width="144" height="72" viewBox="0 0 144 72" fill="none" xmlns="http://www.w3.org/2000/svg">
<g clip-path="url(#clip0_240_2404)">
<g clip-path="url(#clip1_240_2404)">
<path d="M7.04384 0C8.99327 0 10.6484 0.687265 12.0461 2.07988C13.4438 3.45441 14.1243 5.1364 14.1243 7.10776C14.1243 9.07913 13.4438 10.7069 12.0645 12.0814C10.6852 13.4559 9.04844 14.1432 7.1358 14.1432C5.22315 14.1432 3.49442 13.4378 2.09672 12.0452C0.699014 10.6526 0.0185547 8.95252 0.0185547 6.96307C0.0185547 4.97362 0.680624 3.38206 2.05993 2.02562C3.43924 0.669179 5.09442 0 7.04384 0Z" fill="#004AAD"/>
<path d="M12.9104 17.7422H1.21387V57.5312H12.9104V17.7422Z" fill="#004AAD"/>
<path d="M23.5221 6.89062H36.4876V39.9698C36.5244 40.6208 36.6348 41.5432 36.9842 42.556C37.4072 43.7497 37.9957 44.5636 38.2164 44.871C38.3267 45.0338 39.0072 45.9019 40.0555 46.6796C42.152 48.2169 44.5428 48.4159 45.5727 48.4882C46.5658 48.5606 50.0233 48.8138 52.929 46.6796C53.9405 45.9381 54.5658 45.1423 54.7681 44.871C54.9888 44.5636 55.9819 43.2071 56.3681 41.1092C56.552 40.1325 56.5336 39.3187 56.4968 38.758V6.89062H69.4624V37.3835C69.4624 42.5379 69.0762 46.1009 68.3037 48.0903C67.5313 50.0798 66.0601 52.015 63.8899 53.8597C61.7198 55.7226 59.2187 57.079 56.3865 57.9833C53.5543 58.8695 50.2624 59.3217 46.5106 59.3217C41.5819 59.3217 37.2968 58.4716 33.6555 56.7716C30.0141 55.0715 27.4026 52.9373 25.8394 50.3691C24.2762 47.8009 23.4854 43.4784 23.4854 37.3835V6.89062H23.5221Z" fill="#004AAD"/>
<path d="M91.5678 15.9336V21.3594C92.5425 20.2742 94.4 18.538 97.2322 17.3081C100.303 15.9879 102.952 15.9336 104.497 15.9336C110.106 15.9336 114.869 17.923 118.786 21.9019C122.703 25.8808 124.671 30.9811 124.671 37.2026C124.671 43.4242 122.648 48.2169 118.602 52.2501C114.556 56.2832 109.738 58.3089 104.184 58.3089C103.044 58.3089 100.395 58.2004 97.269 57.0609C94.6943 56.1205 92.7816 54.8726 91.5678 53.914V71.9999H80.2207C80.331 53.3172 80.423 34.6163 80.5334 15.9336H91.5678ZM102.253 25.2659C100.763 25.2659 98.6299 25.2659 96.515 26.5681C95.9081 26.9479 93.8667 28.2139 93.4069 30.4023C93.2966 30.9087 93.3517 31.1438 93.4069 32.2109C93.4621 33.2237 93.4437 34.6887 93.4069 37.6367C93.3885 39.4453 93.4069 41.2539 93.4069 43.0625C93.4069 44.2923 93.3885 44.9615 93.8115 45.7211C94.4 46.7701 95.4115 47.1499 96.6437 47.7829C98.2989 48.6148 100.156 49.0308 102.253 49.0308C105.545 49.0308 108.303 47.9095 110.566 45.6668C112.809 43.4242 113.949 40.5485 113.949 37.076C113.949 33.6035 112.846 30.7821 110.639 28.5756C108.432 26.3692 105.637 25.2659 102.271 25.2659H102.253Z" fill="#004AAD"/>
<path d="M136.92 1.08594C138.869 1.08594 140.524 1.7732 141.922 3.16582C143.32 4.54035 144 6.22234 144 8.1937C144 10.1651 143.32 11.7928 141.941 13.1673C140.561 14.5419 138.924 15.2291 137.012 15.2291C135.099 15.2291 133.37 14.5238 131.973 13.1312C130.575 11.7385 129.895 10.0385 129.895 8.04901C129.895 6.05956 130.575 4.50417 131.954 3.14773C133.334 1.79129 134.989 1.12211 136.938 1.12211L136.92 1.08594Z" fill="#004AAD"/>
<path d="M142.786 18.8281H131.09V58.6171H142.786V18.8281Z" fill="#004AAD"/>
</g>
</g>
<defs>
<clipPath id="clip0_240_2404">
<rect width="144" height="72" fill="white"/>
</clipPath>
<clipPath id="clip1_240_2404">
<rect width="144" height="72" fill="white"/>
</clipPath>
</defs>
</svg>
