<svg width="154" height="85" viewBox="0 0 154 85" fill="none" xmlns="http://www.w3.org/2000/svg">
<g opacity="0.5">
<path fill-rule="evenodd" clip-rule="evenodd" d="M10.5007 28.0468C29.2009 11.2166 57.2738 10.6695 76.5833 26.4055C95.8929 10.6695 123.966 11.2166 142.666 28.0468L143.821 29.0861C145.951 31.0029 147.167 33.7335 147.167 36.5988V127.337C147.167 135.569 137.644 140.146 131.216 135.004C118.033 124.457 99.3005 124.457 86.1174 135.004L82.9683 137.523C79.2354 140.509 73.9312 140.509 70.1983 137.523L67.0492 135.004C53.8662 124.457 35.1338 124.457 21.9508 135.004C15.5225 140.146 6 135.569 6 127.337V36.5988C6 33.7335 7.21613 31.0029 9.34589 29.0861L10.5007 28.0468ZM19.0857 37.5857C33.5337 24.5825 55.4663 24.5825 69.9143 37.5857C69.9975 37.6606 70.0816 37.7338 70.1667 37.8054V121.53C54.4553 111.837 34.5447 111.837 18.8333 121.53V37.8129L19.0857 37.5857ZM83 121.53C98.7114 111.837 118.622 111.837 134.333 121.53V37.8129L134.081 37.5857C119.633 24.5825 97.7004 24.5825 83.2524 37.5857C83.1692 37.6606 83.0851 37.7338 83 37.8054V121.53Z" fill="#AACDFF"/>
</g>
</svg>
