<svg width="103" height="131" viewBox="0 0 103 131" fill="none" xmlns="http://www.w3.org/2000/svg">
<g opacity="0.5">
<mask id="mask0_834_11731" style="mask-type:alpha" maskUnits="userSpaceOnUse" x="-67" y="0" width="170" height="170">
<rect x="-67" width="170" height="170" fill="#D9D9D9"/>
</mask>
<g mask="url(#mask0_834_11731)">
<path d="M18.0007 77.917C25.7923 77.917 32.4625 75.1427 38.0111 69.5941C43.5597 64.0455 46.334 57.3753 46.334 49.5837V28.3337H-10.3327V49.5837C-10.3327 57.3753 -7.55837 64.0455 -2.00976 69.5941C3.53885 75.1427 10.209 77.917 18.0007 77.917ZM-38.666 155.834V141.667H-24.4993V120.417C-24.4993 113.216 -22.8171 106.457 -19.4525 100.141C-16.0879 93.825 -11.3952 88.7781 -5.37435 85.0003C-11.3952 81.2225 -16.0879 76.1757 -19.4525 69.8597C-22.8171 63.5437 -24.4993 56.785 -24.4993 49.5837V28.3337H-38.666V14.167H74.6673V28.3337H60.5007V49.5837C60.5007 56.785 58.8184 63.5437 55.4538 69.8597C52.0892 76.1757 47.3965 81.2225 41.3757 85.0003C47.3965 88.7781 52.0892 93.825 55.4538 100.141C58.8184 106.457 60.5007 113.216 60.5007 120.417V141.667H74.6673V155.834H-38.666Z" fill="#AACDFF"/>
</g>
</g>
</svg>
