<svg width="83" height="91" viewBox="0 0 83 91" fill="none" xmlns="http://www.w3.org/2000/svg">
<g opacity="0.5">
<path fill-rule="evenodd" clip-rule="evenodd" d="M130.03 -52.2484H57.9634C48.9307 -52.2484 43.0985 -52.236 38.6595 -51.8675C34.4035 -51.5142 32.8255 -50.9145 32.0509 -50.5136C29.103 -48.9876 26.7063 -46.5526 25.2043 -43.5577C24.8096 -42.7707 24.2193 -41.1676 23.8716 -36.8437C23.6825 -34.4919 23.5887 -31.7553 23.5422 -28.3734H164.451C164.405 -31.7553 164.311 -34.4919 164.122 -36.8437C163.774 -41.1676 163.184 -42.7707 162.789 -43.5577C161.287 -46.5526 158.89 -48.9876 155.943 -50.5136C155.168 -50.9145 153.59 -51.5142 149.334 -51.8675C144.895 -52.236 139.063 -52.2484 130.03 -52.2484ZM23.4967 8.23496V-12.4567H164.497V8.23496C164.497 17.4118 164.485 23.3371 164.122 27.8469C163.774 32.1709 163.184 33.774 162.789 34.561C161.287 37.5559 158.89 39.9908 155.943 41.5168C155.168 41.9178 153.59 42.5175 149.334 42.8708C144.895 43.2393 139.063 43.2516 130.03 43.2516H57.9634C48.9307 43.2516 43.0985 43.2393 38.6595 42.8708C34.4035 42.5175 32.8255 41.9178 32.0509 41.5168C29.103 39.9908 26.7063 37.5559 25.2043 34.561C24.8096 33.774 24.2193 32.1709 23.8716 27.8469C23.5089 23.3371 23.4967 17.4118 23.4967 8.23496ZM11.2452 -50.7837C7.83008 -43.9742 7.83008 -35.06 7.83008 -17.2317V8.23496C7.83008 26.0633 7.83008 34.9775 11.2452 41.787C14.2492 47.7768 19.0426 52.6467 24.9384 55.6987C31.6409 59.1683 40.4151 59.1683 57.9634 59.1683H130.03C147.578 59.1683 156.353 59.1683 163.055 55.6987C168.951 52.6467 173.744 47.7768 176.748 41.787C180.163 34.9775 180.163 26.0633 180.163 8.23496V-17.2317C180.163 -35.06 180.163 -43.9742 176.748 -50.7837C173.744 -56.7736 168.951 -61.6434 163.055 -64.6954C156.353 -68.165 147.578 -68.165 130.03 -68.165H57.9634C40.4151 -68.165 31.6409 -68.165 24.9384 -64.6954C19.0426 -61.6434 14.2492 -56.7736 11.2452 -50.7837ZM46.9967 11.4183C42.6705 11.4183 39.1634 14.9814 39.1634 19.3766C39.1634 23.7719 42.6705 27.335 46.9967 27.335H62.6634C66.9896 27.335 70.4967 23.7719 70.4967 19.3766C70.4967 14.9814 66.9896 11.4183 62.6634 11.4183H46.9967Z" fill="#AACDFF"/>
</g>
</svg>
