<svg width="25" height="25" viewBox="0 0 25 25" fill="none" xmlns="http://www.w3.org/2000/svg">
<mask id="mask0_837_11620" style="mask-type:alpha" maskUnits="userSpaceOnUse" x="0" y="0" width="25" height="25">
<rect x="0.833984" y="0.5" width="24" height="24" fill="#D9D9D9"/>
</mask>
<g mask="url(#mask0_837_11620)">
<path d="M5.83398 20.5V18.5H19.834V20.5H5.83398ZM5.83398 17L4.55898 8.975C4.52565 8.975 4.48815 8.97917 4.44648 8.9875C4.40482 8.99583 4.36732 9 4.33398 9C3.91732 9 3.56315 8.85417 3.27148 8.5625C2.97982 8.27083 2.83398 7.91667 2.83398 7.5C2.83398 7.08333 2.97982 6.72917 3.27148 6.4375C3.56315 6.14583 3.91732 6 4.33398 6C4.75065 6 5.10482 6.14583 5.39648 6.4375C5.68815 6.72917 5.83398 7.08333 5.83398 7.5C5.83398 7.61667 5.82148 7.725 5.79648 7.825C5.77148 7.925 5.74232 8.01667 5.70898 8.1L8.83398 9.5L11.959 5.225C11.7757 5.09167 11.6257 4.91667 11.509 4.7C11.3923 4.48333 11.334 4.25 11.334 4C11.334 3.58333 11.4798 3.22917 11.7715 2.9375C12.0632 2.64583 12.4173 2.5 12.834 2.5C13.2507 2.5 13.6048 2.64583 13.8965 2.9375C14.1882 3.22917 14.334 3.58333 14.334 4C14.334 4.25 14.2757 4.48333 14.159 4.7C14.0423 4.91667 13.8923 5.09167 13.709 5.225L16.834 9.5L19.959 8.1C19.9257 8.01667 19.8965 7.925 19.8715 7.825C19.8465 7.725 19.834 7.61667 19.834 7.5C19.834 7.08333 19.9798 6.72917 20.2715 6.4375C20.5632 6.14583 20.9173 6 21.334 6C21.7507 6 22.1048 6.14583 22.3965 6.4375C22.6882 6.72917 22.834 7.08333 22.834 7.5C22.834 7.91667 22.6882 8.27083 22.3965 8.5625C22.1048 8.85417 21.7507 9 21.334 9C21.3007 9 21.2632 8.99583 21.2215 8.9875C21.1798 8.97917 21.1423 8.975 21.109 8.975L19.834 17H5.83398ZM7.53398 15H18.134L18.784 10.825L16.159 11.975L12.834 7.4L9.50898 11.975L6.88398 10.825L7.53398 15Z" fill="#FFCC00"/>
</g>
</svg>
