<svg width="192" height="37" viewBox="0 0 192 37" fill="none" xmlns="http://www.w3.org/2000/svg">
<mask id="mask0_803_10947" style="mask-type:alpha" maskUnits="userSpaceOnUse" x="84" y="0" width="24" height="24">
<rect x="84" width="24" height="24" fill="#D9D9D9"/>
</mask>
<g mask="url(#mask0_803_10947)">
<path d="M85 20V16C85 15.4333 85.1958 14.9583 85.5875 14.575C85.9792 14.1917 86.45 14 87 14H90.275C90.6083 14 90.925 14.0833 91.225 14.25C91.525 14.4167 91.7667 14.6417 91.95 14.925C92.4333 15.575 93.0292 16.0833 93.7375 16.45C94.4458 16.8167 95.2 17 96 17C96.8167 17 97.5792 16.8167 98.2875 16.45C98.9958 16.0833 99.5833 15.575 100.05 14.925C100.267 14.6417 100.521 14.4167 100.812 14.25C101.104 14.0833 101.408 14 101.725 14H105C105.567 14 106.042 14.1917 106.425 14.575C106.808 14.9583 107 15.4333 107 16V20H100V17.725C99.4167 18.1417 98.7875 18.4583 98.1125 18.675C97.4375 18.8917 96.7333 19 96 19C95.2833 19 94.5833 18.8875 93.9 18.6625C93.2167 18.4375 92.5833 18.1167 92 17.7V20H85ZM96 16C95.3667 16 94.7667 15.8542 94.2 15.5625C93.6333 15.2708 93.1583 14.8667 92.775 14.35C92.4917 13.9333 92.1375 13.6042 91.7125 13.3625C91.2875 13.1208 90.825 13 90.325 13C90.6917 12.3833 91.4667 11.8958 92.65 11.5375C93.8333 11.1792 94.95 11 96 11C97.05 11 98.1667 11.1792 99.35 11.5375C100.533 11.8958 101.308 12.3833 101.675 13C101.192 13 100.733 13.1208 100.3 13.3625C99.8667 13.6042 99.5083 13.9333 99.225 14.35C98.8583 14.8833 98.3917 15.2917 97.825 15.575C97.2583 15.8583 96.65 16 96 16ZM88 13C87.1667 13 86.4583 12.7083 85.875 12.125C85.2917 11.5417 85 10.8333 85 10C85 9.15 85.2917 8.4375 85.875 7.8625C86.4583 7.2875 87.1667 7 88 7C88.85 7 89.5625 7.2875 90.1375 7.8625C90.7125 8.4375 91 9.15 91 10C91 10.8333 90.7125 11.5417 90.1375 12.125C89.5625 12.7083 88.85 13 88 13ZM104 13C103.167 13 102.458 12.7083 101.875 12.125C101.292 11.5417 101 10.8333 101 10C101 9.15 101.292 8.4375 101.875 7.8625C102.458 7.2875 103.167 7 104 7C104.85 7 105.562 7.2875 106.138 7.8625C106.713 8.4375 107 9.15 107 10C107 10.8333 106.713 11.5417 106.138 12.125C105.562 12.7083 104.85 13 104 13ZM96 10C95.1667 10 94.4583 9.70833 93.875 9.125C93.2917 8.54167 93 7.83333 93 7C93 6.15 93.2917 5.4375 93.875 4.8625C94.4583 4.2875 95.1667 4 96 4C96.85 4 97.5625 4.2875 98.1375 4.8625C98.7125 5.4375 99 6.15 99 7C99 7.83333 98.7125 8.54167 98.1375 9.125C97.5625 9.70833 96.85 10 96 10Z" fill="#004AAD"/>
</g>
<path d="M1 36L191 36" stroke="#004AAD" stroke-width="2" stroke-linecap="round"/>
</svg>
