<svg width="160" height="102" viewBox="0 0 160 102" fill="none" xmlns="http://www.w3.org/2000/svg">
<path fill-rule="evenodd" clip-rule="evenodd" d="M57.578 16.6867C47.0024 19.122 40.4033 29.6695 42.8387 40.2452C45.274 50.8208 55.8215 57.4198 66.3971 54.9845C75.8098 52.817 82.0723 44.2234 81.6188 34.9032C81.5383 34.4397 81.5004 33.9777 81.5025 33.5213C81.419 32.8246 81.2975 32.1254 81.1364 31.4261C78.7011 20.8504 68.1536 14.2514 57.578 16.6867ZM94.8979 22.8629C88.5994 6.82591 71.3458 -2.61516 54.0504 1.36759C35.0142 5.75118 23.1359 24.7366 27.5195 43.7728C27.9492 45.6386 28.5191 47.4356 29.2156 49.1552C18.9941 60.2328 13.4576 75.3517 14.7844 91.0669L14.2419 91.1918C10.0116 92.166 5.79263 89.5263 4.81849 85.2961C4.16785 82.4706 5.1231 79.6411 7.1249 77.7734C10.2989 74.812 10.4712 69.8382 7.50976 66.6643C4.54835 63.4903 -0.425357 63.318 -3.59932 66.2794C-9.53542 71.818 -12.4614 80.3087 -10.5006 88.8237C-7.57823 101.514 5.07874 109.433 17.7695 106.511L18.3126 106.386C22.627 117.557 30.3534 126.698 39.9652 132.848L44.0646 150.65C44.2743 151.562 44.5248 152.652 44.8243 153.594C45.1713 154.685 45.7713 156.225 47.0063 157.698C48.6057 159.606 50.768 160.959 53.1836 161.563C55.0488 162.029 56.6956 161.896 57.8289 161.73C58.8068 161.588 59.8963 161.336 60.8086 161.126C60.8684 161.112 60.9276 161.098 60.9859 161.085L75.539 157.734C75.5973 157.72 75.6564 157.707 75.7163 157.693C76.6288 157.483 77.7185 157.233 78.6603 156.933C79.7516 156.586 81.2911 155.986 82.7646 154.751C84.6728 153.152 86.0257 150.989 86.6294 148.574C87.0955 146.709 86.9619 145.062 86.7966 143.929C86.654 142.951 86.4026 141.861 86.1922 140.949L85.7986 139.24L93.4581 137.476L93.8517 139.185C94.0614 140.098 94.3119 141.187 94.6114 142.129C94.9584 143.22 95.5585 144.76 96.7934 146.233C98.3928 148.142 100.555 149.495 102.971 150.098C104.836 150.564 106.483 150.431 107.616 150.265C108.594 150.123 109.683 149.872 110.596 149.661C110.656 149.647 110.715 149.634 110.773 149.62L125.327 146.269C125.385 146.255 125.444 146.242 125.504 146.228C126.416 146.018 127.506 145.768 128.448 145.468C129.539 145.121 131.079 144.521 132.552 143.286C134.46 141.687 135.813 139.525 136.417 137.109C136.883 135.244 136.75 133.597 136.584 132.464C136.442 131.486 136.19 130.396 135.98 129.484C135.966 129.424 135.952 129.365 135.939 129.307L134.398 122.613C141.944 116.638 147.764 108.795 151.322 99.9541L154.983 99.1112C155.895 98.9014 156.985 98.6509 157.927 98.3514C159.018 98.0044 160.557 97.4044 162.031 96.1694C163.939 94.57 165.292 92.4076 165.896 89.9922C166.362 88.127 166.228 86.4801 166.063 85.3468C165.92 84.3689 165.669 83.2794 165.459 82.3671C165.445 82.3073 165.431 82.2481 165.418 82.1898L159.357 55.8696C159.157 55.0008 158.918 53.963 158.636 53.0641C158.31 52.0247 157.75 50.555 156.605 49.126M38.6001 62.3735C46.8612 69.6416 58.3837 72.9613 69.9247 70.3036C85.0354 66.824 95.6358 54.1438 97.1727 39.541C97.5358 39.366 97.8511 39.1908 98.0214 39.0963C98.0427 39.0845 98.0617 39.0739 98.0782 39.0648L113.231 30.6955L114.721 37.1636C114.734 37.2204 114.748 37.2864 114.765 37.3606C114.921 38.0631 115.242 39.4994 115.89 40.8066C116.452 41.9371 117.133 42.8969 118.014 43.8002C119.039 44.8493 120.369 45.6756 121.039 46.0917C121.113 46.1379 121.179 46.179 121.236 46.2148C125.095 48.65 128.529 51.7498 131.352 55.3924L131.431 55.4944C131.888 56.085 132.395 56.7383 132.859 57.2791C133.349 57.8485 134.17 58.7512 135.337 59.5261C136.985 60.6211 138.729 61.2429 140.698 61.4381C142.038 61.5709 143.394 61.3991 144.452 61.1968L149.746 84.1856L147.132 84.7875C147.06 84.8042 146.975 84.8228 146.88 84.8438C145.991 85.0403 144.175 85.4417 142.595 86.3403C141.231 87.1163 140.122 88.0714 139.153 89.3056C138.025 90.7411 137.316 92.5904 136.958 93.5263C136.917 93.6313 136.882 93.7249 136.85 93.805C134.272 100.354 129.966 106.148 124.37 110.5L124.263 110.583C123.646 111.063 122.963 111.594 122.399 112.082C121.804 112.599 120.863 113.465 120.073 114.701C119.079 116.255 118.503 117.874 118.293 119.706C118.048 121.83 118.57 123.995 118.827 125.057C118.854 125.172 118.879 125.274 118.899 125.361L120.267 131.302L108.777 133.948L108.384 132.239C108.174 131.327 107.923 130.237 107.624 129.295C107.277 128.204 106.677 126.664 105.442 125.191C103.843 123.283 101.68 121.93 99.2647 121.326C97.3995 120.86 95.7526 120.994 94.6194 121.159C93.6414 121.301 92.5519 121.553 91.6396 121.763C91.5797 121.777 91.5207 121.791 91.4624 121.804L80.739 124.273C80.6808 124.287 80.6217 124.3 80.5619 124.314C79.6494 124.524 78.5596 124.774 77.6178 125.074C76.5264 125.421 74.987 126.021 73.5135 127.256C71.6053 128.855 70.2524 131.018 69.6487 133.433C69.1825 135.298 69.3162 136.945 69.4815 138.079C69.6241 139.056 69.8754 140.146 70.0859 141.058L70.4795 142.767L58.9901 145.413L55.1623 128.791C55.1493 128.734 55.1345 128.668 55.118 128.594C54.9615 127.891 54.6414 126.455 53.9924 125.148C53.4312 124.017 52.7502 123.057 51.8684 122.154C50.8443 121.105 49.5141 120.279 48.8442 119.862C48.7698 119.816 48.7035 119.775 48.6467 119.739C40.1746 114.393 33.7477 105.848 31.3243 95.3239C28.5672 83.351 31.5963 71.388 38.6001 62.3735ZM94.8979 22.8629L107.455 15.9272C107.519 15.8919 107.584 15.8562 107.649 15.8202C108.714 15.2315 109.919 14.5651 111.008 14.0847C112.209 13.5543 114.127 12.843 116.482 12.9611C119.419 13.1083 122.195 14.3476 124.265 16.4358C125.925 18.1106 126.676 20.0133 127.083 21.262C127.452 22.3929 127.76 23.7354 128.033 24.9214C128.05 24.9938 128.066 25.0657 128.083 25.1369L129.918 33.1062C135.029 36.3768 139.608 40.4921 143.425 45.3134C144.124 45.1557 144.879 44.9959 145.574 44.8918C146.652 44.7305 148.219 44.5919 150.004 44.9959C152.609 45.5852 154.936 47.0414 156.605 49.126" fill="#AACDFF"/>
</svg>
