<svg width="25" height="25" viewBox="0 0 25 25" fill="none" xmlns="http://www.w3.org/2000/svg">
<mask id="mask0_837_11646" style="mask-type:alpha" maskUnits="userSpaceOnUse" x="0" y="0" width="25" height="25">
<rect x="0.667969" y="0.5" width="24" height="24" fill="#D9D9D9"/>
</mask>
<g mask="url(#mask0_837_11646)">
<path d="M12.668 22.5C10.3513 21.9167 8.4388 20.5875 6.93047 18.5125C5.42214 16.4375 4.66797 14.1333 4.66797 11.6V5.5L12.668 2.5L20.668 5.5V11.6C20.668 14.1333 19.9138 16.4375 18.4055 18.5125C16.8971 20.5875 14.9846 21.9167 12.668 22.5ZM12.668 20.4C14.4013 19.85 15.8346 18.75 16.968 17.1C18.1013 15.45 18.668 13.6167 18.668 11.6V6.875L12.668 4.625L6.66797 6.875V11.6C6.66797 13.6167 7.23464 15.45 8.36797 17.1C9.5013 18.75 10.9346 19.85 12.668 20.4Z" fill="#FFCC00"/>
</g>
</svg>
