<svg width="128" height="88" viewBox="0 0 128 88" fill="none" xmlns="http://www.w3.org/2000/svg">
<path d="M36.291 91.9587C41.7563 91.9587 46.1868 87.5282 46.1868 82.0628C46.1868 76.5975 41.7563 72.167 36.291 72.167C30.8257 72.167 26.3952 76.5975 26.3952 82.0628C26.3952 87.5282 30.8257 91.9587 36.291 91.9587Z" fill="#AACDFF"/>
<path d="M63.9993 91.9587C69.4647 91.9587 73.8952 87.5282 73.8952 82.0628C73.8952 76.5975 69.4647 72.167 63.9993 72.167C58.534 72.167 54.1035 76.5975 54.1035 82.0628C54.1035 87.5282 58.534 91.9587 63.9993 91.9587Z" fill="#AACDFF"/>
<path d="M101.604 82.0628C101.604 87.5282 97.173 91.9587 91.7077 91.9587C86.2424 91.9587 81.8118 87.5282 81.8118 82.0628C81.8118 76.5975 86.2424 72.167 91.7077 72.167C97.173 72.167 101.604 76.5975 101.604 82.0628Z" fill="#AACDFF"/>
<path d="M36.291 119.667C41.7563 119.667 46.1868 115.236 46.1868 109.771C46.1868 104.306 41.7563 99.8753 36.291 99.8753C30.8257 99.8753 26.3952 104.306 26.3952 109.771C26.3952 115.236 30.8257 119.667 36.291 119.667Z" fill="#AACDFF"/>
<path d="M73.8952 109.771C73.8952 115.236 69.4647 119.667 63.9993 119.667C58.534 119.667 54.1035 115.236 54.1035 109.771C54.1035 104.306 58.534 99.8753 63.9993 99.8753C69.4647 99.8753 73.8952 104.306 73.8952 109.771Z" fill="#AACDFF"/>
<path d="M91.7077 119.667C97.173 119.667 101.604 115.236 101.604 109.771C101.604 104.306 97.173 99.8753 91.7077 99.8753C86.2424 99.8753 81.8118 104.306 81.8118 109.771C81.8118 115.236 86.2424 119.667 91.7077 119.667Z" fill="#AACDFF"/>
<path d="M46.1868 137.479C46.1868 142.945 41.7563 147.375 36.291 147.375C30.8257 147.375 26.3952 142.945 26.3952 137.479C26.3952 132.014 30.8257 127.584 36.291 127.584C41.7563 127.584 46.1868 132.014 46.1868 137.479Z" fill="#AACDFF"/>
<path d="M63.9993 147.375C69.4647 147.375 73.8952 142.945 73.8952 137.479C73.8952 132.014 69.4647 127.584 63.9993 127.584C58.534 127.584 54.1035 132.014 54.1035 137.479C54.1035 142.945 58.534 147.375 63.9993 147.375Z" fill="#AACDFF"/>
<path d="M101.604 137.479C101.604 142.945 97.173 147.375 91.7077 147.375C86.2424 147.375 81.8118 142.945 81.8118 137.479C81.8118 132.014 86.2424 127.584 91.7077 127.584C97.173 127.584 101.604 132.014 101.604 137.479Z" fill="#AACDFF"/>
<path fill-rule="evenodd" clip-rule="evenodd" d="M0.666016 51.5837C0.666016 33.8487 0.666016 24.9812 4.11748 18.2073C7.15347 12.2488 11.9979 7.40444 17.9563 4.36845C24.7302 0.916992 33.5977 0.916992 51.3327 0.916992H76.666C94.401 0.916992 103.269 0.916992 110.042 4.36845C116.001 7.40444 120.845 12.2488 123.881 18.2073C127.333 24.9812 127.333 33.8487 127.333 51.5837V124.417C127.333 142.152 127.333 151.02 123.881 157.793C120.845 163.752 116.001 168.596 110.042 171.632C103.269 175.084 94.401 175.084 76.666 175.084H51.3327C33.5977 175.084 24.7302 175.084 17.9563 171.632C11.9979 168.596 7.15347 163.752 4.11748 157.793C0.666016 151.02 0.666016 142.152 0.666016 124.417V51.5837ZM51.3327 16.7503H76.666C85.7948 16.7503 91.6891 16.7626 96.1753 17.1292C100.477 17.4806 102.071 18.0772 102.854 18.4761C105.833 19.9941 108.256 22.4162 109.774 25.3955C110.172 26.1783 110.769 27.7731 111.12 32.0744C111.487 36.5606 111.499 42.4549 111.499 51.5837V124.417C111.499 133.546 111.487 139.44 111.12 143.926C110.769 148.228 110.172 149.822 109.774 150.605C108.256 153.584 105.833 156.007 102.854 157.525C102.071 157.923 100.477 158.52 96.1753 158.871C91.6891 159.238 85.7948 159.25 76.666 159.25H51.3327C42.2039 159.25 36.3096 159.238 31.8234 158.871C27.5221 158.52 25.9274 157.923 25.1445 157.525C22.1653 156.007 19.7431 153.584 18.2251 150.605C17.8262 149.822 17.2296 148.228 16.8782 143.926C16.5117 139.44 16.4993 133.546 16.4993 124.417V51.5837C16.4993 42.4549 16.5117 36.5606 16.8782 32.0744C17.2296 27.7731 17.8262 26.1783 18.2251 25.3955C19.7431 22.4162 22.1653 19.9941 25.1445 18.4761C25.9274 18.0772 27.5221 17.4806 31.8234 17.1292C36.3096 16.7626 42.2039 16.7503 51.3327 16.7503Z" fill="#AACDFF"/>
</svg>
