<svg width="42" height="42" viewBox="0 0 42 42" fill="none" xmlns="http://www.w3.org/2000/svg">
<path d="M27.1976 1.46196C23.3047 0.299633 19.1552 0.319499 15.2737 1.51843C11.3921 2.71775 7.95309 5.0424 5.39105 8.19879C2.82901 11.3552 1.25942 15.2012 0.881023 19.2509C0.502239 23.3001 1.33098 27.3712 3.2634 30.9489C5.19543 34.5266 8.14365 37.4505 11.7355 39.3504C15.3269 41.2502 19.4006 42.0411 23.4412 41.6228C27.4819 41.2043 31.3078 39.5957 34.4353 37C37.5624 34.4047 39.8511 30.9388 41.0111 27.041C41.7819 24.4531 42.0359 21.7387 41.7586 19.0527C41.4817 16.3666 40.6786 13.7616 39.3961 11.3863C38.1131 9.01106 36.3759 6.91225 34.2829 5.20945C32.1898 3.50625 29.7822 2.23295 27.1976 1.46196ZM16.8802 36.1177C16.1386 35.8723 15.5214 35.3475 15.1597 34.6539C14.7984 33.9608 14.721 33.1536 14.9443 32.404C15.1675 31.6545 15.6734 31.0217 16.3552 30.6397C17.0369 30.2577 17.8404 30.1569 18.5952 30.3586C18.9833 30.4622 19.3466 30.6428 19.6635 30.8893C19.9808 31.1362 20.2453 31.4442 20.4413 31.795C20.6373 32.1459 20.7614 32.5329 20.8053 32.9324C20.8496 33.332 20.8131 33.7365 20.6984 34.122C20.5836 34.5071 20.3927 34.8658 20.1372 35.1761C19.8817 35.4861 19.5667 35.7419 19.2104 35.928C18.8546 36.1141 18.4649 36.2267 18.0648 36.2594C17.6642 36.2917 17.2617 36.2438 16.8802 36.1177ZM27.1081 15.0361C25.2298 19.1286 23.3786 23.4625 20.8858 27.2357C20.2869 28.1468 18.4085 27.5861 18.4046 26.4958C18.4365 23.1074 18.6963 19.7251 19.1824 16.3717C19.4858 13.9224 19.2486 9.72481 21.228 7.84017C22.9858 6.15411 26.2837 6.87838 27.8587 8.49824C29.7526 10.4763 28.0181 12.9957 27.1081 15.0361Z" fill="#3FBDF1"/>
</svg>
